  0
SECTION
  2
HEADER
  9
$ACADVER
  1
AC1015
  9
$ACADMAINTVER
 70
     6
  9
$DWGCODEPAGE
  3
ANSI_1251
  9
$INSBASE
 10
0.0
 20
0.0
 30
0.0
  9
$EXTMIN
 10
0.0
 20
0.0
 30
0.0
  9
$EXTMAX
 10
210.0
 20
297.0
 30
0.0
  9
$LIMMIN
 10
0.0
 20
0.0
  9
$LIMMAX
 10
210.0
 20
297.0
  9
$ORTHOMODE
 70
     0
  9
$REGENMODE
 70
     1
  9
$FILLMODE
 70
     1
  9
$QTEXTMODE
 70
     0
  9
$MIRRTEXT
 70
     1
  9
$LTSCALE
 40
1.0
  9
$ATTMODE
 70
     1
  9
$TEXTSIZE
 40
3.5
  9
$TRACEWID
 40
1.0
  9
$TEXTSTYLE
  7
Standard
  9
$CLAYER
  8
0
  9
$CELTYPE
  6
ByLayer
  9
$CECOLOR
 62
   256
  9
$CELTSCALE
 40
1.0
  9
$DISPSILH
 70
     0
  9
$DIMSCALE
 40
1.0
  9
$DIMASZ
 40
3.5
  9
$DIMEXO
 40
0.01
  9
$DIMDLI
 40
3.75
  9
$DIMRND
 40
0.0
  9
$DIMDLE
 40
0.0
  9
$DIMEXE
 40
1.0
  9
$DIMTP
 40
0.0
  9
$DIMTM
 40
0.0
  9
$DIMTXT
 40
3.5
  9
$DIMCEN
 40
2.5
  9
$DIMTSZ
 40
0.0
  9
$DIMTOL
 70
     0
  9
$DIMLIM
 70
     0
  9
$DIMTIH
 70
     1
  9
$DIMTOH
 70
     1
  9
$DIMSE1
 70
     0
  9
$DIMSE2
 70
     0
  9
$DIMTAD
 70
     1
  9
$DIMZIN
 70
     0
  9
$DIMBLK
  1

  9
$DIMASO
 70
     1
  9
$DIMSHO
 70
     1
  9
$DIMPOST
  1

  9
$DIMAPOST
  1

  9
$DIMALT
 70
     0
  9
$DIMALTD
 70
     3
  9
$DIMALTF
 40
0.0393700787
  9
$DIMLFAC
 40
2.0
  9
$DIMTOFL
 70
     1
  9
$DIMTVP
 40
0.0
  9
$DIMTIX
 70
     0
  9
$DIMSOXD
 70
     0
  9
$DIMSAH
 70
     0
  9
$DIMBLK1
  1

  9
$DIMBLK2
  1

  9
$DIMSTYLE
  2
ISO-25
  9
$DIMCLRD
 70
     0
  9
$DIMCLRE
 70
     0
  9
$DIMCLRT
 70
     0
  9
$DIMTFAC
 40
1.0
  9
$DIMGAP
 40
3.0
  9
$DIMJUST
 70
     0
  9
$DIMSD1
 70
     0
  9
$DIMSD2
 70
     0
  9
$DIMTOLJ
 70
     0
  9
$DIMTZIN
 70
     0
  9
$DIMALTZ
 70
     0
  9
$DIMALTTZ
 70
     0
  9
$DIMUPT
 70
     0
  9
$DIMDEC
 70
     2
  9
$DIMTDEC
 70
     3
  9
$DIMALTU
 70
     2
  9
$DIMALTTD
 70
     3
  9
$DIMTXSTY
  7
Standard
  9
$DIMAUNIT
 70
     0
  9
$DIMADEC
 70
     2
  9
$DIMALTRND
 40
0.0
  9
$DIMAZIN
 70
     0
  9
$DIMDSEP
 70
    44
  9
$DIMATFIT
 70
     3
  9
$DIMFRAC
 70
     0
  9
$DIMLDRBLK
  1

  9
$DIMLUNIT
 70
     2
  9
$DIMLWD
 70
    -2
  9
$DIMLWE
 70
    -2
  9
$DIMTMOVE
 70
     0
  9
$LUNITS
 70
     2
  9
$LUPREC
 70
     4
  9
$SKETCHINC
 40
1.0
  9
$FILLETRAD
 40
10.0
  9
$AUNITS
 70
     0
  9
$AUPREC
 70
     2
  9
$MENU
  1
.
  9
$ELEVATION
 40
0.0
  9
$PELEVATION
 40
0.0
  9
$THICKNESS
 40
0.0
  9
$LIMCHECK
 70
     0
  9
$CHAMFERA
 40
0.0
  9
$CHAMFERB
 40
0.0
  9
$CHAMFERC
 40
0.0
  9
$CHAMFERD
 40
0.0
  9
$SKPOLY
 70
     0
  9
$TDCREATE
 40
2459842.605066586
  9
$TDUCREATE
 40
2459842.480066586
  9
$TDUPDATE
 40
2459842.605070521
  9
$TDUUPDATE
 40
2459842.480070521
  9
$TDINDWG
 40
0.0000000116
  9
$TDUSRTIMER
 40
0.0000000116
  9
$USRTIMER
 70
     1
  9
$ANGBASE
 50
0.0
  9
$ANGDIR
 70
     0
  9
$PDMODE
 70
     0
  9
$PDSIZE
 40
-1.0
  9
$PLINEWID
 40
0.0
  9
$SPLFRAME
 70
     0
  9
$SPLINETYPE
 70
     6
  9
$SPLINESEGS
 70
     8
  9
$HANDSEED
  5
252
  9
$SURFTAB1
 70
     6
  9
$SURFTAB2
 70
     6
  9
$SURFTYPE
 70
     6
  9
$SURFU
 70
     6
  9
$SURFV
 70
     6
  9
$UCSBASE
  2

  9
$UCSNAME
  2

  9
$UCSORG
 10
0.0
 20
0.0
 30
0.0
  9
$UCSXDIR
 10
1.0
 20
0.0
 30
0.0
  9
$UCSYDIR
 10
0.0
 20
1.0
 30
0.0
  9
$UCSORTHOREF
  2

  9
$UCSORTHOVIEW
 70
     0
  9
$UCSORGTOP
 10
0.0
 20
0.0
 30
0.0
  9
$UCSORGBOTTOM
 10
0.0
 20
0.0
 30
0.0
  9
$UCSORGLEFT
 10
0.0
 20
0.0
 30
0.0
  9
$UCSORGRIGHT
 10
0.0
 20
0.0
 30
0.0
  9
$UCSORGFRONT
 10
0.0
 20
0.0
 30
0.0
  9
$UCSORGBACK
 10
0.0
 20
0.0
 30
0.0
  9
$PUCSBASE
  2

  9
$PUCSNAME
  2

  9
$PUCSORG
 10
0.0
 20
0.0
 30
0.0
  9
$PUCSXDIR
 10
1.0
 20
0.0
 30
0.0
  9
$PUCSYDIR
 10
0.0
 20
1.0
 30
0.0
  9
$PUCSORTHOREF
  2

  9
$PUCSORTHOVIEW
 70
     0
  9
$PUCSORGTOP
 10
0.0
 20
0.0
 30
0.0
  9
$PUCSORGBOTTOM
 10
0.0
 20
0.0
 30
0.0
  9
$PUCSORGLEFT
 10
0.0
 20
0.0
 30
0.0
  9
$PUCSORGRIGHT
 10
0.0
 20
0.0
 30
0.0
  9
$PUCSORGFRONT
 10
0.0
 20
0.0
 30
0.0
  9
$PUCSORGBACK
 10
0.0
 20
0.0
 30
0.0
  9
$USERI1
 70
     0
  9
$USERI2
 70
     0
  9
$USERI3
 70
     0
  9
$USERI4
 70
     0
  9
$USERI5
 70
     0
  9
$USERR1
 40
0.0
  9
$USERR2
 40
0.0
  9
$USERR3
 40
0.0
  9
$USERR4
 40
0.0
  9
$USERR5
 40
0.0
  9
$WORLDVIEW
 70
     1
  9
$SHADEDGE
 70
     3
  9
$SHADEDIF
 70
    70
  9
$TILEMODE
 70
     1
  9
$MAXACTVP
 70
    64
  9
$PINSBASE
 10
0.0
 20
0.0
 30
0.0
  9
$PLIMCHECK
 70
     0
  9
$PEXTMIN
 10
1.0000000000E+20
 20
1.0000000000E+20
 30
1.0000000000E+20
  9
$PEXTMAX
 10
-1.0000000000E+20
 20
-1.0000000000E+20
 30
-1.0000000000E+20
  9
$PLIMMIN
 10
0.0
 20
0.0
  9
$PLIMMAX
 10
420.0
 20
297.0
  9
$UNITMODE
 70
     0
  9
$VISRETAIN
 70
     1
  9
$PLINEGEN
 70
     0
  9
$PSLTSCALE
 70
     1
  9
$TREEDEPTH
 70
  3020
  9
$CMLSTYLE
  2
Standard
  9
$CMLJUST
 70
     0
  9
$CMLSCALE
 40
20.0
  9
$PROXYGRAPHICS
 70
     1
  9
$MEASUREMENT
 70
     1
  9
$CELWEIGHT
370
    -1
  9
$ENDCAPS
280
     0
  9
$JOINSTYLE
280
     0
  9
$LWDISPLAY
290
     1
  9
$INSUNITS
 70
     4
  9
$HYPERLINKBASE
  1

  9
$STYLESHEET
  1

  9
$XEDIT
290
     1
  9
$CEPSNTYPE
380
     0
  9
$PSTYLEMODE
290
     1
  9
$FINGERPRINTGUID
  2
{f1f6b33b-f839-48d5-95bd-67ea0c054386}
  9
$VERSIONGUID
  2
{FAEB1C32-E019-11D5-929B-00C0DF256EC4}
  9
$EXTNAMES
290
     1
  9
$PSVPSCALE
 40
0.0
  9
$OLESTARTUP
290
     0
  0
ENDSEC
  0
SECTION
  2
CLASSES
  0
CLASS
  1
ACDBDICTIONARYWDFLT
  2
AcDbDictionaryWithDefault
  3
ObjectDBX Classes
 90
        0
280
     0
281
     0
  0
CLASS
  1
VISUALSTYLE
  2
AcDbVisualStyle
  3
ObjectDBX Classes
 90
     4095
280
     0
281
     0
  0
CLASS
  1
MATERIAL
  2
AcDbMaterial
  3
ObjectDBX Classes
 90
     1153
280
     0
281
     0
  0
CLASS
  1
SCALE
  2
AcDbScale
  3
ObjectDBX Classes
 90
     1153
280
     0
281
     0
  0
CLASS
  1
TABLESTYLE
  2
AcDbTableStyle
  3
ObjectDBX Classes
 90
     4095
280
     0
281
     0
  0
CLASS
  1
MLEADERSTYLE
  2
AcDbMLeaderStyle
  3
ACDB_MLEADERSTYLE_CLASS
 90
     4095
280
     0
281
     0
  0
CLASS
  1
SUN
  2
AcDbSun
  3
SCENEOE
 90
     1153
280
     0
281
     0
  0
CLASS
  1
ACDBPLACEHOLDER
  2
AcDbPlaceHolder
  3
ObjectDBX Classes
 90
        0
280
     0
281
     0
  0
CLASS
  1
LAYOUT
  2
AcDbLayout
  3
ObjectDBX Classes
 90
        0
280
     0
281
     0
  0
ENDSEC
  0
SECTION
  2
TABLES
  0
TABLE
  2
VPORT
  5
8
330
0
100
AcDbSymbolTable
 70
     1
  0
VPORT
  5
29
330
8
100
AcDbSymbolTableRecord
100
AcDbViewportTableRecord
  2
*Active
 70
     0
 10
0.0
 20
0.0
 11
1.0
 21
1.0
 12
105.0
 22
148.5
 13
0.0
 23
0.0
 14
10.0
 24
10.0
 15
10.0
 25
10.0
 16
0.0
 26
0.0
 36
1.0
 17
0.0
 27
0.0
 37
0.0
 40
297.0
 41
0.7070707071
 42
50.0
 43
0.0
 44
0.0
 50
0.0
 51
0.0
 71
     0
 72
  2000
 73
     1
 74
     3
 75
     0
 76
     0
 77
     0
 78
     0
281
     0
 65
     1
110
0.0
120
0.0
130
0.0
111
1.0
121
0.0
131
0.0
112
0.0
122
1.0
132
0.0
 79
     0
146
0.0
  0
ENDTAB
  0
TABLE
  2
LTYPE
  5
5
330
0
100
AcDbSymbolTable
 70
     6
  0
LTYPE
  5
14
330
5
100
AcDbSymbolTableRecord
100
AcDbLinetypeTableRecord
  2
ByBlock
 70
     0
  3

 72
    65
 73
     0
 40
0.0
  0
LTYPE
  5
15
330
5
100
AcDbSymbolTableRecord
100
AcDbLinetypeTableRecord
  2
ByLayer
 70
     0
  3

 72
    65
 73
     0
 40
0.0
  0
LTYPE
  5
16
330
5
100
AcDbSymbolTableRecord
100
AcDbLinetypeTableRecord
  2
Continuous
 70
     0
  3
Solid line
 72
    65
 73
     0
 40
0.0
  0
LTYPE
  5
6E
330
5
100
AcDbSymbolTableRecord
100
AcDbLinetypeTableRecord
  2
HIDDEN
 70
     0
  3
Hidden __ __ __ __ __ __ __ __ __ __ __ __ __ __
 72
    65
 73
     2
 40
1.905
 49
1.27
 74
     0
 49
-0.635
 74
     0
  0
LTYPE
  5
6F
330
5
100
AcDbSymbolTableRecord
100
AcDbLinetypeTableRecord
  2
PHANTOM
 70
     0
  3
Phantom ______  __  __  ______  __  __  ______
 72
    65
 73
     6
 40
12.7
 49
6.35
 74
     0
 49
-1.27
 74
     0
 49
1.27
 74
     0
 49
-1.27
 74
     0
 49
1.27
 74
     0
 49
-1.27
 74
     0
  0
LTYPE
  5
70
330
5
100
AcDbSymbolTableRecord
100
AcDbLinetypeTableRecord
  2
CENTER
 70
     0
  3
Center ____ _ ____ _ ____ _ ____ _ ____ _ ____
 72
    65
 73
     4
 40
10.16
 49
6.35
 74
     0
 49
-1.27
 74
     0
 49
1.27
 74
     0
 49
-1.27
 74
     0
  0
LTYPE
  5
71
330
5
100
AcDbSymbolTableRecord
100
AcDbLinetypeTableRecord
  2
CENTERX2
 70
     0
  3
Center (2x) ________  __  ________  __  _____
 72
    65
 73
     4
 40
20.32
 49
12.7
 74
     0
 49
-2.54
 74
     0
 49
2.54
 74
     0
 49
-2.54
 74
     0
  0
LTYPE
  5
72
330
5
100
AcDbSymbolTableRecord
100
AcDbLinetypeTableRecord
  2
DOT2
 70
     0
  3
Dot (.5x) ........................................
 72
    65
 73
     2
 40
0.635
 49
0.0
 74
     0
 49
-0.635
 74
     0
  0
ENDTAB
  0
TABLE
  2
LAYER
  5
2
330
0
100
AcDbSymbolTable
 70
     6
  0
LAYER
  5
10
330
2
100
AcDbSymbolTableRecord
100
AcDbLayerTableRecord
  2
0
 70
     0
 62
     7
  6
Continuous
370
    -3
390
F
  0
LAYER
  5
73
330
2
100
AcDbSymbolTableRecord
100
AcDbLayerTableRecord
  2
Œ—≈¬€≈
 70
     0
 62
     7
  6
Continuous
370
    -3
390
F
  0
LAYER
  5
74
330
2
100
AcDbSymbolTableRecord
100
AcDbLayerTableRecord
  2
¬ŒƒﬂÕ€≈_«Õ¿ »
 70
     0
 62
    11
  6
Continuous
370
    -3
390
F
  0
LAYER
  5
75
330
2
100
AcDbSymbolTableRecord
100
AcDbLayerTableRecord
  2
— –€“€≈_Œ¡⁄≈ “€
 70
     0
 62
   -52
  6
Continuous
290
     0
370
    -3
390
F
  0
LAYER
  5
76
330
2
100
AcDbSymbolTableRecord
100
AcDbLayerTableRecord
  2
Œ—ÕŒ¬ÕŒ…
 70
     0
 62
     7
  6
Continuous
370
    25
390
F
  0
LAYER
  5
77
330
2
100
AcDbSymbolTableRecord
100
AcDbLayerTableRecord
  2
FORMAT
 70
     0
 62
     7
  6
Continuous
370
    -3
390
F
  0
ENDTAB
  0
TABLE
  2
STYLE
  5
3
330
0
100
AcDbSymbolTable
 70
     5
  0
STYLE
  5
11
330
3
100
AcDbSymbolTableRecord
100
AcDbTextStyleTableRecord
  2
Standard
 70
     0
 40
0.0
 41
1.0
 50
0.0
 71
     0
 42
3.5
  3
txt
  4

  0
STYLE
  5
9F
330
3
100
AcDbSymbolTableRecord
100
AcDbTextStyleTableRecord
  2
SLDTEXTSTYLE0
 70
     0
 40
0.0
 41
0.5590187797
 50
0.0
 71
     0
 42
3.5
  3
TXT
  4
bigfont
  0
STYLE
  5
A3
330
3
100
AcDbSymbolTableRecord
100
AcDbTextStyleTableRecord
  2
SLDTEXTSTYLE1
 70
     0
 40
0.0
 41
0.605
 50
0.0
 71
     0
 42
3.5
  3
TXT
  4
bigfont
  0
STYLE
  5
AE
330
3
100
AcDbSymbolTableRecord
100
AcDbTextStyleTableRecord
  2
SLDTEXTSTYLE2
 70
     0
 40
0.0
 41
0.5279196334
 50
0.0
 71
     0
 42
3.5
  3
TXT
  4
bigfont
  0
STYLE
  5
B0
330
3
100
AcDbSymbolTableRecord
100
AcDbTextStyleTableRecord
  2
SLDTEXTSTYLE3
 70
     0
 40
0.0
 41
0.605
 50
0.0
 71
     0
 42
3.5
  3
TXT
  4

  0
ENDTAB
  0
TABLE
  2
VIEW
  5
6
330
0
100
AcDbSymbolTable
 70
     0
  0
ENDTAB
  0
TABLE
  2
UCS
  5
7
330
0
100
AcDbSymbolTable
 70
     0
  0
ENDTAB
  0
TABLE
  2
APPID
  5
9
330
0
100
AcDbSymbolTable
 70
     1
  0
APPID
  5
12
330
9
100
AcDbSymbolTableRecord
100
AcDbRegAppTableRecord
  2
ACAD
 70
     0
  0
ENDTAB
  0
TABLE
  2
DIMSTYLE
  5
A
330
0
100
AcDbSymbolTable
 70
     4
100
AcDbDimStyleTable
  0
DIMSTYLE
105
27
330
A
100
AcDbSymbolTableRecord
100
AcDbDimStyleTableRecord
  2
ISO-25
 70
     0
 41
2.5
 42
0.625
 43
3.75
 44
1.25
 73
     0
 74
     0
 77
     1
 78
     8
140
2.5
141
2.5
143
0.0393700787
147
0.625
171
     3
172
     1
178
     0
271
     2
272
     2
274
     3
278
    44
283
     0
284
     8
340
11
  0
DIMSTYLE
105
F6
102
{ACAD_REACTORS
330
F5
330
100
102
}
330
A
100
AcDbSymbolTableRecord
100
AcDbDimStyleTableRecord
  2
SLDDIMSTYLE0
 70
     0
 41
3.5
 44
0.0
 45
0.000000001
 73
     0
 74
     0
 77
     2
 78
    12
 79
     3
140
3.5
144
2.0
147
0.875
173
     1
178
     0
271
     2
272
     3
276
     2
284
    12
340
B0
  0
DIMSTYLE
105
10B
102
{ACAD_REACTORS
330
10A
330
117
330
123
330
142
330
14E
330
15A
330
166
330
17D
330
1B5
330
1C1
330
1CD
330
1D9
102
}
330
A
100
AcDbSymbolTableRecord
100
AcDbDimStyleTableRecord
  2
SLDDIMSTYLE1
 70
     0
 41
3.5
 44
0.0
 45
0.000000001
 73
     0
 74
     0
 77
     2
 78
    12
 79
     3
140
3.5
144
2.0
147
0.875
172
     1
173
     1
178
     0
271
     2
272
     3
276
     2
284
    12
289
     0
340
B0
  0
DIMSTYLE
105
130
102
{ACAD_REACTORS
330
12F
330
139
330
170
102
}
330
A
100
AcDbSymbolTableRecord
100
AcDbDimStyleTableRecord
  2
SLDDIMSTYLE2
 70
     0
 41
3.5
 44
0.0
 45
0.000000001
 78
    12
 79
     3
140
3.5
141
0.0
144
2.0
147
0.875
173
     1
178
     0
271
     2
272
     3
276
     2
284
    12
340
B0
  0
ENDTAB
  0
TABLE
  2
BLOCK_RECORD
  5
1
330
0
100
AcDbSymbolTable
 70
    18
  0
BLOCK_RECORD
  5
1F
330
1
100
AcDbSymbolTableRecord
100
AcDbBlockTableRecord
  2
*Model_Space
340
22
  0
BLOCK_RECORD
  5
1B
330
1
100
AcDbSymbolTableRecord
100
AcDbBlockTableRecord
  2
*Paper_Space
340
1E
  0
BLOCK_RECORD
  5
23
330
1
100
AcDbSymbolTableRecord
100
AcDbBlockTableRecord
  2
*Paper_Space0
340
26
  0
BLOCK_RECORD
  5
F7
330
1
100
AcDbSymbolTableRecord
100
AcDbBlockTableRecord
  2
_D
340
0
  0
BLOCK_RECORD
  5
101
330
1
100
AcDbSymbolTableRecord
100
AcDbBlockTableRecord
  2
_D_1
340
0
  0
BLOCK_RECORD
  5
10C
330
1
100
AcDbSymbolTableRecord
100
AcDbBlockTableRecord
  2
_D_2
340
0
  0
BLOCK_RECORD
  5
118
330
1
100
AcDbSymbolTableRecord
100
AcDbBlockTableRecord
  2
_D_3
340
0
  0
BLOCK_RECORD
  5
124
330
1
100
AcDbSymbolTableRecord
100
AcDbBlockTableRecord
  2
_D_4
340
0
  0
BLOCK_RECORD
  5
131
330
1
100
AcDbSymbolTableRecord
100
AcDbBlockTableRecord
  2
_D_5
340
0
  0
BLOCK_RECORD
  5
13A
330
1
100
AcDbSymbolTableRecord
100
AcDbBlockTableRecord
  2
_D_6
340
0
  0
BLOCK_RECORD
  5
143
330
1
100
AcDbSymbolTableRecord
100
AcDbBlockTableRecord
  2
_D_7
340
0
  0
BLOCK_RECORD
  5
14F
330
1
100
AcDbSymbolTableRecord
100
AcDbBlockTableRecord
  2
_D_8
340
0
  0
BLOCK_RECORD
  5
15B
330
1
100
AcDbSymbolTableRecord
100
AcDbBlockTableRecord
  2
_D_9
340
0
  0
BLOCK_RECORD
  5
167
330
1
100
AcDbSymbolTableRecord
100
AcDbBlockTableRecord
  2
_D_10
340
0
  0
BLOCK_RECORD
  5
171
330
1
100
AcDbSymbolTableRecord
100
AcDbBlockTableRecord
  2
_D_11
340
0
  0
BLOCK_RECORD
  5
17E
330
1
100
AcDbSymbolTableRecord
100
AcDbBlockTableRecord
  2
_D_12
340
0
  0
BLOCK_RECORD
  5
1B6
330
1
100
AcDbSymbolTableRecord
100
AcDbBlockTableRecord
  2
_D_13
340
0
  0
BLOCK_RECORD
  5
1C2
330
1
100
AcDbSymbolTableRecord
100
AcDbBlockTableRecord
  2
_D_14
340
0
  0
BLOCK_RECORD
  5
1CE
330
1
100
AcDbSymbolTableRecord
100
AcDbBlockTableRecord
  2
_D_15
340
0
  0
BLOCK_RECORD
  5
1DA
330
1
100
AcDbSymbolTableRecord
100
AcDbBlockTableRecord
  2
_D_16
340
0
  0
ENDTAB
  0
ENDSEC
  0
SECTION
  2
BLOCKS
  0
BLOCK
  5
20
330
1F
100
AcDbEntity
  8
0
100
AcDbBlockBegin
  2
*Model_Space
 70
     0
 10
0.0
 20
0.0
 30
0.0
  3
*Model_Space
  1

  0
ENDBLK
  5
21
330
1F
100
AcDbEntity
  8
0
100
AcDbBlockEnd
  0
BLOCK
  5
1C
330
1B
100
AcDbEntity
 67
     1
  8
0
100
AcDbBlockBegin
  2
*Paper_Space
 70
     0
 10
0.0
 20
0.0
 30
0.0
  3
*Paper_Space
  1

  0
ENDBLK
  5
1D
330
1B
100
AcDbEntity
 67
     1
  8
0
100
AcDbBlockEnd
  0
BLOCK
  5
24
330
23
100
AcDbEntity
  8
0
100
AcDbBlockBegin
  2
*Paper_Space0
 70
     0
 10
0.0
 20
0.0
 30
0.0
  3
*Paper_Space0
  1

  0
ENDBLK
  5
25
330
23
100
AcDbEntity
  8
0
100
AcDbBlockEnd
  0
BLOCK
  5
F8
330
F7
100
AcDbEntity
  8
0
100
AcDbBlockBegin
  2
_D
 70
     0
 10
0.0
 20
0.0
 30
0.0
  3
_D
  1

  0
SOLID
  5
FA
330
F7
100
AcDbEntity
  8
0
  6
Continuous
 62
     7
370
    18
100
AcDbTrace
 10
47.9752696629
 20
266.6985339732
 30
0.0
 11
51.4752696629
 21
266.1600724347
 31
0.0
 12
51.4752696629
 22
267.2369955116
 32
0.0
 13
51.4752696629
 23
267.2369955116
 33
0.0
  0
SOLID
  5
FB
330
F7
100
AcDbEntity
  8
0
  6
Continuous
 62
     7
370
    18
100
AcDbTrace
 10
91.2252696629
 20
266.6985339732
 30
0.0
 11
87.7252696629
 21
267.2369955116
 31
0.0
 12
87.7252696629
 22
266.1600724347
 32
0.0
 13
87.7252696629
 23
266.1600724347
 33
0.0
  0
LINE
  5
FC
330
F7
100
AcDbEntity
  8
0
  6
Continuous
 62
     7
370
     0
100
AcDbLine
 10
47.9752696629
 20
253.7170337079
 30
0.0
 11
47.9752696629
 21
267.6985339732
 31
0.0
  0
LINE
  5
FD
330
F7
100
AcDbEntity
  8
0
  6
Continuous
 62
     7
370
     0
100
AcDbLine
 10
91.2252696629
 20
253.7170337079
 30
0.0
 11
91.2252696629
 21
267.6985339732
 31
0.0
  0
LINE
  5
FE
330
F7
100
AcDbEntity
  8
0
  6
Continuous
 62
     7
370
     0
100
AcDbLine
 10
47.9752696629
 20
266.6985339732
 30
0.0
 11
91.2252696629
 21
266.6985339732
 31
0.0
  0
MTEXT
  5
FF
330
F7
100
AcDbEntity
  8
0
  6
Continuous
 62
     7
370
    18
100
AcDbMText
 10
61.026695385
 20
271.2102710624
 30
0.0
 40
3.5
 41
0.0
 71
     1
 72
     1
  1
86,50
  7
SLDTEXTSTYLE3
 73
     1
 44
1.0
  0
ENDBLK
  5
F9
330
F7
100
AcDbEntity
  8
0
100
AcDbBlockEnd
  0
BLOCK
  5
102
330
101
100
AcDbEntity
  8
0
100
AcDbBlockBegin
  2
_D_1
 70
     0
 10
0.0
 20
0.0
 30
0.0
  3
_D_1
  1

  0
SOLID
  5
104
330
101
100
AcDbEntity
  8
0
  6
Continuous
 62
     7
370
    18
100
AcDbTrace
 10
33.759831981
 20
253.7070337079
 30
0.0
 11
33.2213704425
 21
250.2070337079
 31
0.0
 12
34.2982935195
 22
250.2070337079
 32
0.0
 13
34.2982935195
 23
250.2070337079
 33
0.0
  0
SOLID
  5
105
330
101
100
AcDbEntity
  8
0
  6
Continuous
 62
     7
370
    18
100
AcDbTrace
 10
33.759831981
 20
216.2070337079
 30
0.0
 11
34.2982935195
 21
219.7070337079
 31
0.0
 12
33.2213704425
 22
219.7070337079
 32
0.0
 13
33.2213704425
 23
219.7070337079
 33
0.0
  0
LINE
  5
106
330
101
100
AcDbEntity
  8
0
  6
Continuous
 62
     7
370
     0
100
AcDbLine
 10
47.9652696629
 20
253.7070337079
 30
0.0
 11
32.759831981
 21
253.7070337079
 31
0.0
  0
LINE
  5
107
330
101
100
AcDbEntity
  8
0
  6
Continuous
 62
     7
370
     0
100
AcDbLine
 10
47.9652696629
 20
216.2070337079
 30
0.0
 11
32.759831981
 21
216.2070337079
 31
0.0
  0
LINE
  5
108
330
101
100
AcDbEntity
  8
0
  6
Continuous
 62
     7
370
     0
100
AcDbLine
 10
33.759831981
 20
253.7070337079
 30
0.0
 11
33.759831981
 21
216.2070337079
 31
0.0
  0
MTEXT
  5
109
330
101
100
AcDbEntity
  8
0
  6
Continuous
 62
     7
370
    18
100
AcDbMText
 10
29.2480948918
 20
232.2944678044
 30
0.0
 40
3.5
 41
0.0
 71
     1
 72
     1
  1
75
  7
SLDTEXTSTYLE3
 11
-7.044195017643634E-15
 21
1.0
 31
0.0
 73
     1
 44
1.0
  0
ENDBLK
  5
103
330
101
100
AcDbEntity
  8
0
100
AcDbBlockEnd
  0
BLOCK
  5
10D
330
10C
100
AcDbEntity
  8
0
100
AcDbBlockBegin
  2
_D_2
 70
     0
 10
0.0
 20
0.0
 30
0.0
  3
_D_2
  1

  0
SOLID
  5
10F
330
10C
100
AcDbEntity
  8
0
  6
Continuous
 62
     7
370
    18
100
AcDbTrace
 10
47.9752696629
 20
260.382034952
 30
0.0
 11
44.4752696629
 21
260.9204964904
 31
0.0
 12
44.4752696629
 22
259.8435734135
 32
0.0
 13
44.4752696629
 23
259.8435734135
 33
0.0
  0
SOLID
  5
110
330
10C
100
AcDbEntity
  8
0
  6
Continuous
 62
     7
370
    18
100
AcDbTrace
 10
48.7252696629
 20
260.382034952
 30
0.0
 11
52.2252696629
 21
259.8435734135
 31
0.0
 12
52.2252696629
 22
260.9204964904
 32
0.0
 13
52.2252696629
 23
260.9204964904
 33
0.0
  0
LINE
  5
111
330
10C
100
AcDbEntity
  8
0
  6
Continuous
 62
     7
370
     0
100
AcDbLine
 10
47.9752696629
 20
253.7170337079
 30
0.0
 11
47.9752696629
 21
261.382034952
 31
0.0
  0
LINE
  5
112
330
10C
100
AcDbEntity
  8
0
  6
Continuous
 62
     7
370
     0
100
AcDbLine
 10
48.7252696629
 20
253.7170337079
 30
0.0
 11
48.7252696629
 21
261.382034952
 31
0.0
  0
LINE
  5
113
330
10C
100
AcDbEntity
  8
0
  6
Continuous
 62
     7
370
     0
100
AcDbLine
 10
47.9752696629
 20
260.382034952
 30
0.0
 11
34.539143635
 21
260.382034952
 31
0.0
  0
LINE
  5
114
330
10C
100
AcDbEntity
  8
0
  6
Continuous
 62
     7
370
     0
100
AcDbLine
 10
47.9752696629
 20
260.382034952
 30
0.0
 11
48.7252696629
 21
260.382034952
 31
0.0
  0
LINE
  5
115
330
10C
100
AcDbEntity
  8
0
  6
Continuous
 62
     7
370
     0
100
AcDbLine
 10
48.7252696629
 20
260.382034952
 30
0.0
 11
55.4560388937
 21
260.382034952
 31
0.0
  0
MTEXT
  5
116
330
10C
100
AcDbEntity
  8
0
  6
Continuous
 62
     7
370
    18
100
AcDbMText
 10
34.539143635
 20
264.8937720412
 30
0.0
 40
3.5
 41
0.0
 71
     1
 72
     1
  1
1,50
  7
SLDTEXTSTYLE3
 73
     1
 44
1.0
  0
ENDBLK
  5
10E
330
10C
100
AcDbEntity
  8
0
100
AcDbBlockEnd
  0
BLOCK
  5
119
330
118
100
AcDbEntity
  8
0
100
AcDbBlockBegin
  2
_D_3
 70
     0
 10
0.0
 20
0.0
 30
0.0
  3
_D_3
  1

  0
SOLID
  5
11B
330
118
100
AcDbEntity
  8
0
  6
Continuous
 62
     7
370
    18
100
AcDbTrace
 10
49.7252696629
 20
256.0394915078
 30
0.0
 11
46.2252696629
 21
256.5779530463
 31
0.0
 12
46.2252696629
 22
255.5010299694
 32
0.0
 13
46.2252696629
 23
255.5010299694
 33
0.0
  0
SOLID
  5
11C
330
118
100
AcDbEntity
  8
0
  6
Continuous
 62
     7
370
    18
100
AcDbTrace
 10
52.2252696629
 20
256.0394915078
 30
0.0
 11
55.7252696629
 21
255.5010299694
 31
0.0
 12
55.7252696629
 22
256.5779530463
 32
0.0
 13
55.7252696629
 23
256.5779530463
 33
0.0
  0
LINE
  5
11D
330
118
100
AcDbEntity
  8
0
  6
Continuous
 62
     7
370
     0
100
AcDbLine
 10
49.7252696629
 20
253.7170337079
 30
0.0
 11
49.7252696629
 21
257.0394915078
 31
0.0
  0
LINE
  5
11E
330
118
100
AcDbEntity
  8
0
  6
Continuous
 62
     7
370
     0
100
AcDbLine
 10
52.2252696629
 20
253.7170337079
 30
0.0
 11
52.2252696629
 21
257.0394915078
 31
0.0
  0
LINE
  5
11F
330
118
100
AcDbEntity
  8
0
  6
Continuous
 62
     7
370
     0
100
AcDbLine
 10
49.7252696629
 20
256.0394915078
 30
0.0
 11
23.6056697971
 21
256.0394915078
 31
0.0
  0
LINE
  5
120
330
118
100
AcDbEntity
  8
0
  6
Continuous
 62
     7
370
     0
100
AcDbLine
 10
49.7252696629
 20
256.0394915078
 30
0.0
 11
52.2252696629
 21
256.0394915078
 31
0.0
  0
LINE
  5
121
330
118
100
AcDbEntity
  8
0
  6
Continuous
 62
     7
370
     0
100
AcDbLine
 10
52.2252696629
 20
256.0394915078
 30
0.0
 11
58.9560388937
 21
256.0394915078
 31
0.0
  0
MTEXT
  5
122
330
118
100
AcDbEntity
  8
0
  6
Continuous
 62
     7
370
    18
100
AcDbMText
 10
23.6056697971
 20
260.551228597
 30
0.0
 40
3.5
 41
0.0
 71
     1
 72
     1
  1
5
  7
SLDTEXTSTYLE3
 73
     1
 44
1.0
  0
ENDBLK
  5
11A
330
118
100
AcDbEntity
  8
0
100
AcDbBlockEnd
  0
BLOCK
  5
125
330
124
100
AcDbEntity
  8
0
100
AcDbBlockBegin
  2
_D_4
 70
     0
 10
0.0
 20
0.0
 30
0.0
  3
_D_4
  1

  0
SOLID
  5
127
330
124
100
AcDbEntity
  8
0
  6
Continuous
 62
     7
370
    18
100
AcDbTrace
 10
53.9752696629
 20
210.1650171297
 30
0.0
 11
50.4752696629
 21
210.7034786681
 31
0.0
 12
50.4752696629
 22
209.6265555912
 32
0.0
 13
50.4752696629
 23
209.6265555912
 33
0.0
  0
SOLID
  5
128
330
124
100
AcDbEntity
  8
0
  6
Continuous
 62
     7
370
    18
100
AcDbTrace
 10
55.2252696629
 20
210.1650171297
 30
0.0
 11
58.7252696629
 21
209.6265555912
 31
0.0
 12
58.7252696629
 22
210.7034786681
 32
0.0
 13
58.7252696629
 23
210.7034786681
 33
0.0
  0
LINE
  5
129
330
124
100
AcDbEntity
  8
0
  6
Continuous
 62
     7
370
     0
100
AcDbLine
 10
53.9752696629
 20
216.1970337079
 30
0.0
 11
53.9752696629
 21
209.1650171297
 31
0.0
  0
LINE
  5
12A
330
124
100
AcDbEntity
  8
0
  6
Continuous
 62
     7
370
     0
100
AcDbLine
 10
55.2252696629
 20
216.1970337079
 30
0.0
 11
55.2252696629
 21
209.1650171297
 31
0.0
  0
LINE
  5
12B
330
124
100
AcDbEntity
  8
0
  6
Continuous
 62
     7
370
     0
100
AcDbLine
 10
53.9752696629
 20
210.1650171297
 30
0.0
 11
43.6502721132
 21
210.1650171297
 31
0.0
  0
LINE
  5
12C
330
124
100
AcDbEntity
  8
0
  6
Continuous
 62
     7
370
     0
100
AcDbLine
 10
53.9752696629
 20
210.1650171297
 30
0.0
 11
55.2252696629
 21
210.1650171297
 31
0.0
  0
LINE
  5
12D
330
124
100
AcDbEntity
  8
0
  6
Continuous
 62
     7
370
     0
100
AcDbLine
 10
55.2252696629
 20
210.1650171297
 30
0.0
 11
61.9560388937
 21
210.1650171297
 31
0.0
  0
MTEXT
  5
12E
330
124
100
AcDbEntity
  8
0
  6
Continuous
 62
     7
370
    18
100
AcDbMText
 10
43.6502721132
 20
214.6767542189
 30
0.0
 40
3.5
 41
0.0
 71
     1
 72
     1
  1
2,50
  7
SLDTEXTSTYLE3
 73
     1
 44
1.0
  0
ENDBLK
  5
126
330
124
100
AcDbEntity
  8
0
100
AcDbBlockEnd
  0
BLOCK
  5
132
330
131
100
AcDbEntity
  8
0
100
AcDbBlockBegin
  2
_D_5
 70
     0
 10
0.0
 20
0.0
 30
0.0
  3
_D_5
  1

  0
SOLID
  5
134
330
131
100
AcDbEntity
  8
0
  6
Continuous
 62
     7
370
    18
100
AcDbTrace
 10
58.817681591
 20
248.4964931376
 30
0.0
 11
60.500301405
 21
251.612376863
 31
0.0
 12
59.4859261898
 22
251.9740483111
 32
0.0
 13
59.4859261898
 23
251.9740483111
 33
0.0
  0
LINE
  5
135
330
131
100
AcDbEntity
  8
0
  6
Continuous
 62
     7
370
     0
100
AcDbLine
 10
58.817681591
 20
248.4964931376
 30
0.0
 11
62.9800636379
 21
260.1706720273
 31
0.0
  0
LINE
  5
136
330
131
100
AcDbEntity
  8
0
  6
Continuous
 62
     7
370
     0
100
AcDbLine
 10
57.6002696629
 20
245.0820337079
 30
0.0
 11
58.817681591
 21
248.4964931376
 31
0.0
  0
LINE
  5
137
330
131
100
AcDbEntity
  8
0
  6
Continuous
 62
     7
370
     0
100
AcDbLine
 10
62.9800636379
 20
260.1706720273
 30
0.0
 11
75.8087857083
 21
260.1706720273
 31
0.0
  0
MTEXT
  5
138
330
131
100
AcDbEntity
  8
0
  6
Continuous
 62
     7
370
    18
100
AcDbMText
 10
62.9803136379
 20
264.6824091165
 30
0.0
 40
3.5
 41
0.0
 71
     1
 72
     1
  1
R7,25
  7
SLDTEXTSTYLE3
 73
     1
 44
1.0
  0
ENDBLK
  5
133
330
131
100
AcDbEntity
  8
0
100
AcDbBlockEnd
  0
BLOCK
  5
13B
330
13A
100
AcDbEntity
  8
0
100
AcDbBlockBegin
  2
_D_6
 70
     0
 10
0.0
 20
0.0
 30
0.0
  3
_D_6
  1

  0
SOLID
  5
13D
330
13A
100
AcDbEntity
  8
0
  6
Continuous
 62
     7
370
    18
100
AcDbTrace
 10
58.7169804474
 20
247.1781210209
 30
0.0
 11
60.8378857717
 21
250.0139104055
 31
0.0
 12
59.8874332249
 22
250.5202731904
 32
0.0
 13
59.8874332249
 23
250.5202731904
 33
0.0
  0
LINE
  5
13E
330
13A
100
AcDbEntity
  8
0
  6
Continuous
 62
     7
370
     0
100
AcDbLine
 10
58.7169804474
 20
247.1781210209
 30
0.0
 11
62.9800636379
 21
255.1800089884
 31
0.0
  0
LINE
  5
13F
330
13A
100
AcDbEntity
  8
0
  6
Continuous
 62
     7
370
     0
100
AcDbLine
 10
57.6002696629
 20
245.0820337079
 30
0.0
 11
58.7169804474
 21
247.1781210209
 31
0.0
  0
LINE
  5
140
330
13A
100
AcDbEntity
  8
0
  6
Continuous
 62
     7
370
     0
100
AcDbLine
 10
62.9800636379
 20
255.1800089884
 30
0.0
 11
75.8087857083
 21
255.1800089884
 31
0.0
  0
MTEXT
  5
141
330
13A
100
AcDbEntity
  8
0
  6
Continuous
 62
     7
370
    18
100
AcDbMText
 10
62.9803136379
 20
259.6917460776
 30
0.0
 40
3.5
 41
0.0
 71
     1
 72
     1
  1
R4,75
  7
SLDTEXTSTYLE3
 73
     1
 44
1.0
  0
ENDBLK
  5
13C
330
13A
100
AcDbEntity
  8
0
100
AcDbBlockEnd
  0
BLOCK
  5
144
330
143
100
AcDbEntity
  8
0
100
AcDbBlockBegin
  2
_D_7
 70
     0
 10
0.0
 20
0.0
 30
0.0
  3
_D_7
  1

  0
SOLID
  5
146
330
143
100
AcDbEntity
  8
0
  6
Continuous
 62
     7
370
    18
100
AcDbTrace
 10
89.4752696629
 20
201.3385743674
 30
0.0
 11
85.9752696629
 21
201.8770359059
 31
0.0
 12
85.9752696629
 22
200.800112829
 32
0.0
 13
85.9752696629
 23
200.800112829
 33
0.0
  0
SOLID
  5
147
330
143
100
AcDbEntity
  8
0
  6
Continuous
 62
     7
370
    18
100
AcDbTrace
 10
90.4752696629
 20
201.3385743674
 30
0.0
 11
93.9752696629
 21
200.800112829
 31
0.0
 12
93.9752696629
 22
201.8770359059
 32
0.0
 13
93.9752696629
 23
201.8770359059
 33
0.0
  0
LINE
  5
148
330
143
100
AcDbEntity
  8
0
  6
Continuous
 62
     7
370
     0
100
AcDbLine
 10
89.4752696629
 20
228.0720337079
 30
0.0
 11
89.4752696629
 21
200.3385743674
 31
0.0
  0
LINE
  5
149
330
143
100
AcDbEntity
  8
0
  6
Continuous
 62
     7
370
     0
100
AcDbLine
 10
90.4752696629
 20
216.1970337079
 30
0.0
 11
90.4752696629
 21
200.3385743674
 31
0.0
  0
LINE
  5
14A
330
143
100
AcDbEntity
  8
0
  6
Continuous
 62
     7
370
     0
100
AcDbLine
 10
89.4752696629
 20
201.3385743674
 30
0.0
 11
82.7445004322
 21
201.3385743674
 31
0.0
  0
LINE
  5
14B
330
143
100
AcDbEntity
  8
0
  6
Continuous
 62
     7
370
     0
100
AcDbLine
 10
89.4752696629
 20
201.3385743674
 30
0.0
 11
90.4752696629
 21
201.3385743674
 31
0.0
  0
LINE
  5
14C
330
143
100
AcDbEntity
  8
0
  6
Continuous
 62
     7
370
     0
100
AcDbLine
 10
90.4752696629
 20
201.3385743674
 30
0.0
 11
95.8499967962
 21
201.3385743674
 31
0.0
  0
MTEXT
  5
14D
330
143
100
AcDbEntity
  8
0
  6
Continuous
 62
     7
370
    18
100
AcDbMText
 10
93.1763857513
 20
205.8503114566
 30
0.0
 40
3.5
 41
0.0
 71
     1
 72
     1
  1
2
  7
SLDTEXTSTYLE3
 73
     1
 44
1.0
  0
ENDBLK
  5
145
330
143
100
AcDbEntity
  8
0
100
AcDbBlockEnd
  0
BLOCK
  5
150
330
14F
100
AcDbEntity
  8
0
100
AcDbBlockBegin
  2
_D_8
 70
     0
 10
0.0
 20
0.0
 30
0.0
  3
_D_8
  1

  0
SOLID
  5
152
330
14F
100
AcDbEntity
  8
0
  6
Continuous
 62
     7
370
    18
100
AcDbTrace
 10
85.2252696629
 20
191.2771149206
 30
0.0
 11
81.7252696629
 21
191.8155764591
 31
0.0
 12
81.7252696629
 22
190.7386533822
 32
0.0
 13
81.7252696629
 23
190.7386533822
 33
0.0
  0
SOLID
  5
153
330
14F
100
AcDbEntity
  8
0
  6
Continuous
 62
     7
370
    18
100
AcDbTrace
 10
86.9752696629
 20
191.2771149206
 30
0.0
 11
90.4752696629
 21
190.7386533822
 31
0.0
 12
90.4752696629
 22
191.8155764591
 32
0.0
 13
90.4752696629
 23
191.8155764591
 33
0.0
  0
LINE
  5
154
330
14F
100
AcDbEntity
  8
0
  6
Continuous
 62
     7
370
     0
100
AcDbLine
 10
85.2252696629
 20
216.1970337079
 30
0.0
 11
85.2252696629
 21
190.2771149206
 31
0.0
  0
LINE
  5
155
330
14F
100
AcDbEntity
  8
0
  6
Continuous
 62
     7
370
     0
100
AcDbLine
 10
86.9752696629
 20
228.0720337079
 30
0.0
 11
86.9752696629
 21
190.2771149206
 31
0.0
  0
LINE
  5
156
330
14F
100
AcDbEntity
  8
0
  6
Continuous
 62
     7
370
     0
100
AcDbLine
 10
85.2252696629
 20
191.2771149206
 30
0.0
 11
78.4945004322
 21
191.2771149206
 31
0.0
  0
LINE
  5
157
330
14F
100
AcDbEntity
  8
0
  6
Continuous
 62
     7
370
     0
100
AcDbLine
 10
85.2252696629
 20
191.2771149206
 30
0.0
 11
86.9752696629
 21
191.2771149206
 31
0.0
  0
LINE
  5
158
330
14F
100
AcDbEntity
  8
0
  6
Continuous
 62
     7
370
     0
100
AcDbLine
 10
86.9752696629
 20
191.2771149206
 30
0.0
 11
98.1495163233
 21
191.2771149206
 31
0.0
  0
MTEXT
  5
159
330
14F
100
AcDbEntity
  8
0
  6
Continuous
 62
     7
370
    18
100
AcDbMText
 10
88.7918776662
 20
195.7888520098
 30
0.0
 40
3.5
 41
0.0
 71
     1
 72
     1
  1
3,50
  7
SLDTEXTSTYLE3
 73
     1
 44
1.0
  0
ENDBLK
  5
151
330
14F
100
AcDbEntity
  8
0
100
AcDbBlockEnd
  0
BLOCK
  5
15C
330
15B
100
AcDbEntity
  8
0
100
AcDbBlockBegin
  2
_D_9
 70
     0
 10
0.0
 20
0.0
 30
0.0
  3
_D_9
  1

  0
SOLID
  5
15E
330
15B
100
AcDbEntity
  8
0
  6
Continuous
 62
     7
370
    18
100
AcDbTrace
 10
76.8502696629
 20
196.9484132284
 30
0.0
 11
73.3502696629
 21
197.4868747669
 31
0.0
 12
73.3502696629
 22
196.40995169
 32
0.0
 13
73.3502696629
 23
196.40995169
 33
0.0
  0
SOLID
  5
15F
330
15B
100
AcDbEntity
  8
0
  6
Continuous
 62
     7
370
    18
100
AcDbTrace
 10
77.9752696629
 20
196.9484132284
 30
0.0
 11
81.4752696629
 21
196.40995169
 31
0.0
 12
81.4752696629
 22
197.4868747669
 32
0.0
 13
81.4752696629
 23
197.4868747669
 33
0.0
  0
LINE
  5
160
330
15B
100
AcDbEntity
  8
0
  6
Continuous
 62
     7
370
     0
100
AcDbLine
 10
76.8502696629
 20
228.0720337079
 30
0.0
 11
76.8502696629
 21
195.9484132284
 31
0.0
  0
LINE
  5
161
330
15B
100
AcDbEntity
  8
0
  6
Continuous
 62
     7
370
     0
100
AcDbLine
 10
77.9752696629
 20
224.8220337079
 30
0.0
 11
77.9752696629
 21
195.9484132284
 31
0.0
  0
LINE
  5
162
330
15B
100
AcDbEntity
  8
0
  6
Continuous
 62
     7
370
     0
100
AcDbLine
 10
76.8502696629
 20
196.9484132284
 30
0.0
 11
69.1520111829
 21
196.9484132284
 31
0.0
  0
LINE
  5
163
330
15B
100
AcDbEntity
  8
0
  6
Continuous
 62
     7
370
     0
100
AcDbLine
 10
76.8502696629
 20
196.9484132284
 30
0.0
 11
77.9752696629
 21
196.9484132284
 31
0.0
  0
LINE
  5
164
330
15B
100
AcDbEntity
  8
0
  6
Continuous
 62
     7
370
     0
100
AcDbLine
 10
77.9752696629
 20
196.9484132284
 30
0.0
 11
84.7060388937
 21
196.9484132284
 31
0.0
  0
MTEXT
  5
165
330
15B
100
AcDbEntity
  8
0
  6
Continuous
 62
     7
370
    18
100
AcDbMText
 10
69.1520111829
 20
201.4601503176
 30
0.0
 40
3.5
 41
0.0
 71
     1
 72
     1
  1
2,25
  7
SLDTEXTSTYLE3
 73
     1
 44
1.0
  0
ENDBLK
  5
15D
330
15B
100
AcDbEntity
  8
0
100
AcDbBlockEnd
  0
BLOCK
  5
168
330
167
100
AcDbEntity
  8
0
100
AcDbBlockBegin
  2
_D_10
 70
     0
 10
0.0
 20
0.0
 30
0.0
  3
_D_10
  1

  0
SOLID
  5
16A
330
167
100
AcDbEntity
  8
0
  6
Continuous
 62
     7
370
    18
100
AcDbTrace
 10
107.8123592904
 20
253.7070337079
 30
0.0
 11
107.2738977519
 21
250.2070337079
 31
0.0
 12
108.3508208288
 22
250.2070337079
 32
0.0
 13
108.3508208288
 23
250.2070337079
 33
0.0
  0
SOLID
  5
16B
330
167
100
AcDbEntity
  8
0
  6
Continuous
 62
     7
370
    18
100
AcDbTrace
 10
107.8123592904
 20
227.4570337079
 30
0.0
 11
108.3508208288
 21
230.9570337079
 31
0.0
 12
107.2738977519
 22
230.9570337079
 32
0.0
 13
107.2738977519
 23
230.9570337079
 33
0.0
  0
LINE
  5
16C
330
167
100
AcDbEntity
  8
0
  6
Continuous
 62
     7
370
     0
100
AcDbLine
 10
91.2352696629
 20
253.7070337079
 30
0.0
 11
108.8123592904
 21
253.7070337079
 31
0.0
  0
LINE
  5
16D
330
167
100
AcDbEntity
  8
0
  6
Continuous
 62
     7
370
     0
100
AcDbLine
 10
88.8602696629
 20
227.4570337079
 30
0.0
 11
108.8123592904
 21
227.4570337079
 31
0.0
  0
LINE
  5
16E
330
167
100
AcDbEntity
  8
0
  6
Continuous
 62
     7
370
     0
100
AcDbLine
 10
107.8123592904
 20
253.7070337079
 30
0.0
 11
107.8123592904
 21
227.4570337079
 31
0.0
  0
MTEXT
  5
16F
330
167
100
AcDbEntity
  8
0
  6
Continuous
 62
     7
370
    18
100
AcDbMText
 10
103.3006222012
 20
228.2301608359
 30
0.0
 40
3.5
 41
0.0
 71
     1
 72
     1
  1
52,50
  7
SLDTEXTSTYLE3
 11
-7.044195017643634E-15
 21
1.0
 31
0.0
 73
     1
 44
1.0
  0
ENDBLK
  5
169
330
167
100
AcDbEntity
  8
0
100
AcDbBlockEnd
  0
BLOCK
  5
172
330
171
100
AcDbEntity
  8
0
100
AcDbBlockBegin
  2
_D_11
 70
     0
 10
0.0
 20
0.0
 30
0.0
  3
_D_11
  1

  0
SOLID
  5
174
330
171
100
AcDbEntity
  8
0
  6
Continuous
 62
     7
370
    18
100
AcDbTrace
 10
89.3293519966
 20
227.6806546881
 30
0.0
 11
91.6664096023
 21
225.0201843206
 31
0.0
 12
92.3580165287
 22
225.8456800341
 32
0.0
 13
92.3580165287
 23
225.8456800341
 33
0.0
  0
LINE
  5
175
330
171
100
AcDbEntity
  8
0
  6
Continuous
 62
     7
370
     0
100
AcDbLine
 10
89.3293519966
 20
227.6806546881
 30
0.0
 11
104.4653275182
 21
214.9996130579
 31
0.0
  0
LINE
  5
176
330
171
100
AcDbEntity
  8
0
  6
Continuous
 62
     7
370
     0
100
AcDbLine
 10
88.8502696629
 20
228.0820337079
 30
0.0
 11
89.3293519966
 21
227.6806546881
 31
0.0
  0
LINE
  5
177
330
171
100
AcDbEntity
  8
0
  6
Continuous
 62
     7
370
     0
100
AcDbLine
 10
104.4653275182
 20
214.9996130579
 30
0.0
 11
117.2940495886
 21
214.9996130579
 31
0.0
  0
MTEXT
  5
178
330
171
100
AcDbEntity
  8
0
  6
Continuous
 62
     7
370
    18
100
AcDbMText
 10
104.4655775182
 20
219.5113501471
 30
0.0
 40
3.5
 41
0.0
 71
     1
 72
     1
  1
R1,25
  7
SLDTEXTSTYLE3
 73
     1
 44
1.0
  0
ENDBLK
  5
173
330
171
100
AcDbEntity
  8
0
100
AcDbBlockEnd
  0
BLOCK
  5
17F
330
17E
100
AcDbEntity
  8
0
100
AcDbBlockBegin
  2
_D_12
 70
     0
 10
0.0
 20
0.0
 30
0.0
  3
_D_12
  1

  0
SOLID
  5
181
330
17E
100
AcDbEntity
  8
0
  6
Continuous
 62
     7
370
    18
100
AcDbTrace
 10
150.9092808989
 20
266.7274121953
 30
0.0
 11
154.4092808989
 21
266.1889506568
 31
0.0
 12
154.4092808989
 22
267.2658737337
 32
0.0
 13
154.4092808989
 23
267.2658737337
 33
0.0
  0
SOLID
  5
182
330
17E
100
AcDbEntity
  8
0
  6
Continuous
 62
     7
370
    18
100
AcDbTrace
 10
146.9092808989
 20
266.7274121953
 30
0.0
 11
143.4092808989
 21
267.2658737337
 31
0.0
 12
143.4092808989
 22
266.1889506568
 32
0.0
 13
143.4092808989
 23
266.1889506568
 33
0.0
  0
LINE
  5
183
330
17E
100
AcDbEntity
  8
0
  6
Continuous
 62
     7
370
     0
100
AcDbLine
 10
150.9092808989
 20
253.7170337079
 30
0.0
 11
150.9092808989
 21
267.7274121953
 31
0.0
  0
LINE
  5
184
330
17E
100
AcDbEntity
  8
0
  6
Continuous
 62
     7
370
     0
100
AcDbLine
 10
146.9092808989
 20
253.7170337079
 30
0.0
 11
146.9092808989
 21
267.7274121953
 31
0.0
  0
LINE
  5
185
330
17E
100
AcDbEntity
  8
0
  6
Continuous
 62
     7
370
     0
100
AcDbLine
 10
150.9092808989
 20
266.7274121953
 30
0.0
 11
157.6400501296
 21
266.7274121953
 31
0.0
  0
LINE
  5
186
330
17E
100
AcDbEntity
  8
0
  6
Continuous
 62
     7
370
     0
100
AcDbLine
 10
150.9092808989
 20
266.7274121953
 30
0.0
 11
146.9092808989
 21
266.7274121953
 31
0.0
  0
LINE
  5
187
330
17E
100
AcDbEntity
  8
0
  6
Continuous
 62
     7
370
     0
100
AcDbLine
 10
146.9092808989
 20
266.7274121953
 30
0.0
 11
140.1785116681
 21
266.7274121953
 31
0.0
  0
MTEXT
  5
188
330
17E
100
AcDbEntity
  8
0
  6
Continuous
 62
     7
370
    18
100
AcDbMText
 10
148.3402618833
 20
271.2391492845
 30
0.0
 40
3.5
 41
0.0
 71
     1
 72
     1
  1
8
  7
SLDTEXTSTYLE3
 73
     1
 44
1.0
  0
ENDBLK
  5
180
330
17E
100
AcDbEntity
  8
0
100
AcDbBlockEnd
  0
BLOCK
  5
1B7
330
1B6
100
AcDbEntity
  8
0
100
AcDbBlockBegin
  2
_D_13
 70
     0
 10
0.0
 20
0.0
 30
0.0
  3
_D_13
  1

  0
SOLID
  5
1B9
330
1B6
100
AcDbEntity
  8
0
  6
Continuous
 62
     7
370
    18
100
AcDbTrace
 10
50.3502696629
 20
173.4062079316
 30
0.0
 11
46.8502696629
 21
173.94466947
 31
0.0
 12
46.8502696629
 22
172.8677463931
 32
0.0
 13
46.8502696629
 23
172.8677463931
 33
0.0
  0
SOLID
  5
1BA
330
1B6
100
AcDbEntity
  8
0
  6
Continuous
 62
     7
370
    18
100
AcDbTrace
 10
51.6002696629
 20
173.4062079316
 30
0.0
 11
55.1002696629
 21
172.8677463931
 31
0.0
 12
55.1002696629
 22
173.94466947
 32
0.0
 13
55.1002696629
 23
173.94466947
 33
0.0
  0
LINE
  5
1BB
330
1B6
100
AcDbEntity
  8
0
  6
Continuous
 62
     7
370
     0
100
AcDbLine
 10
50.3502696629
 20
167.9598651685
 30
0.0
 11
50.3502696629
 21
174.4062079316
 31
0.0
  0
LINE
  5
1BC
330
1B6
100
AcDbEntity
  8
0
  6
Continuous
 62
     7
370
     0
100
AcDbLine
 10
51.6002696629
 20
167.9598651685
 30
0.0
 11
51.6002696629
 21
174.4062079316
 31
0.0
  0
LINE
  5
1BD
330
1B6
100
AcDbEntity
  8
0
  6
Continuous
 62
     7
370
     0
100
AcDbLine
 10
50.3502696629
 20
173.4062079316
 30
0.0
 11
43.6195004322
 21
173.4062079316
 31
0.0
  0
LINE
  5
1BE
330
1B6
100
AcDbEntity
  8
0
  6
Continuous
 62
     7
370
     0
100
AcDbLine
 10
50.3502696629
 20
173.4062079316
 30
0.0
 11
51.6002696629
 21
173.4062079316
 31
0.0
  0
LINE
  5
1BF
330
1B6
100
AcDbEntity
  8
0
  6
Continuous
 62
     7
370
     0
100
AcDbLine
 10
51.6002696629
 20
173.4062079316
 30
0.0
 11
57.5079006591
 21
173.4062079316
 31
0.0
  0
MTEXT
  5
1C0
330
1B6
100
AcDbEntity
  8
0
  6
Continuous
 62
     7
370
    18
100
AcDbMText
 10
48.150262002
 20
177.9179450208
 30
0.0
 40
3.5
 41
0.0
 71
     1
 72
     1
  1
2,50
  7
SLDTEXTSTYLE3
 73
     1
 44
1.0
  0
ENDBLK
  5
1B8
330
1B6
100
AcDbEntity
  8
0
100
AcDbBlockEnd
  0
BLOCK
  5
1C3
330
1C2
100
AcDbEntity
  8
0
100
AcDbBlockBegin
  2
_D_14
 70
     0
 10
0.0
 20
0.0
 30
0.0
  3
_D_14
  1

  0
SOLID
  5
1C5
330
1C2
100
AcDbEntity
  8
0
  6
Continuous
 62
     7
370
    18
100
AcDbTrace
 10
49.7252696629
 20
158.0427286098
 30
0.0
 11
46.2252696629
 21
158.5811901483
 31
0.0
 12
46.2252696629
 22
157.5042670714
 32
0.0
 13
46.2252696629
 23
157.5042670714
 33
0.0
  0
SOLID
  5
1C6
330
1C2
100
AcDbEntity
  8
0
  6
Continuous
 62
     7
370
    18
100
AcDbTrace
 10
52.2252696629
 20
158.0427286098
 30
0.0
 11
55.7252696629
 21
157.5042670714
 31
0.0
 12
55.7252696629
 22
158.5811901483
 32
0.0
 13
55.7252696629
 23
158.5811901483
 33
0.0
  0
LINE
  5
1C7
330
1C2
100
AcDbEntity
  8
0
  6
Continuous
 62
     7
370
     0
100
AcDbLine
 10
49.7252696629
 20
165.4398651685
 30
0.0
 11
49.7252696629
 21
157.0427286098
 31
0.0
  0
LINE
  5
1C8
330
1C2
100
AcDbEntity
  8
0
  6
Continuous
 62
     7
370
     0
100
AcDbLine
 10
52.2252696629
 20
165.4398651685
 30
0.0
 11
52.2252696629
 21
157.0427286098
 31
0.0
  0
LINE
  5
1C9
330
1C2
100
AcDbEntity
  8
0
  6
Continuous
 62
     7
370
     0
100
AcDbLine
 10
49.7252696629
 20
158.0427286098
 30
0.0
 11
42.9945004322
 21
158.0427286098
 31
0.0
  0
LINE
  5
1CA
330
1C2
100
AcDbEntity
  8
0
  6
Continuous
 62
     7
370
     0
100
AcDbLine
 10
49.7252696629
 20
158.0427286098
 30
0.0
 11
52.2252696629
 21
158.0427286098
 31
0.0
  0
LINE
  5
1CB
330
1C2
100
AcDbEntity
  8
0
  6
Continuous
 62
     7
370
     0
100
AcDbLine
 10
52.2252696629
 20
158.0427286098
 30
0.0
 11
54.165886853
 21
158.0427286098
 31
0.0
  0
MTEXT
  5
1CC
330
1C2
100
AcDbEntity
  8
0
  6
Continuous
 62
     7
370
    18
100
AcDbMText
 10
51.4922758081
 20
162.554465699
 30
0.0
 40
3.5
 41
0.0
 71
     1
 72
     1
  1
5
  7
SLDTEXTSTYLE3
 73
     1
 44
1.0
  0
ENDBLK
  5
1C4
330
1C2
100
AcDbEntity
  8
0
100
AcDbBlockEnd
  0
BLOCK
  5
1CF
330
1CE
100
AcDbEntity
  8
0
100
AcDbBlockBegin
  2
_D_15
 70
     0
 10
0.0
 20
0.0
 30
0.0
  3
_D_15
  1

  0
SOLID
  5
1D1
330
1CE
100
AcDbEntity
  8
0
  6
Continuous
 62
     7
370
    18
100
AcDbTrace
 10
48.7252696629
 20
160.2446604996
 30
0.0
 11
52.2252696629
 21
159.7061989611
 31
0.0
 12
52.2252696629
 22
160.783122038
 32
0.0
 13
52.2252696629
 23
160.783122038
 33
0.0
  0
SOLID
  5
1D2
330
1CE
100
AcDbEntity
  8
0
  6
Continuous
 62
     7
370
    18
100
AcDbTrace
 10
47.9752696629
 20
160.2446604996
 30
0.0
 11
44.4752696629
 21
160.783122038
 31
0.0
 12
44.4752696629
 22
159.7061989611
 32
0.0
 13
44.4752696629
 23
159.7061989611
 33
0.0
  0
LINE
  5
1D3
330
1CE
100
AcDbEntity
  8
0
  6
Continuous
 62
     7
370
     0
100
AcDbLine
 10
48.7252696629
 20
164.1898651685
 30
0.0
 11
48.7252696629
 21
159.2446604996
 31
0.0
  0
LINE
  5
1D4
330
1CE
100
AcDbEntity
  8
0
  6
Continuous
 62
     7
370
     0
100
AcDbLine
 10
47.9752696629
 20
164.1898651685
 30
0.0
 11
47.9752696629
 21
159.2446604996
 31
0.0
  0
LINE
  5
1D5
330
1CE
100
AcDbEntity
  8
0
  6
Continuous
 62
     7
370
     0
100
AcDbLine
 10
48.7252696629
 20
160.2446604996
 30
0.0
 11
55.4560388937
 21
160.2446604996
 31
0.0
  0
LINE
  5
1D6
330
1CE
100
AcDbEntity
  8
0
  6
Continuous
 62
     7
370
     0
100
AcDbLine
 10
48.7252696629
 20
160.2446604996
 30
0.0
 11
47.9752696629
 21
160.2446604996
 31
0.0
  0
LINE
  5
1D7
330
1CE
100
AcDbEntity
  8
0
  6
Continuous
 62
     7
370
     0
100
AcDbLine
 10
47.9752696629
 20
160.2446604996
 30
0.0
 11
36.8903830203
 21
160.2446604996
 31
0.0
  0
MTEXT
  5
1D8
330
1CE
100
AcDbEntity
  8
0
  6
Continuous
 62
     7
370
    18
100
AcDbMText
 10
36.8903830203
 20
164.7563975888
 30
0.0
 40
3.5
 41
0.0
 71
     1
 72
     1
  1
1,50
  7
SLDTEXTSTYLE3
 73
     1
 44
1.0
  0
ENDBLK
  5
1D0
330
1CE
100
AcDbEntity
  8
0
100
AcDbBlockEnd
  0
BLOCK
  5
1DB
330
1DA
100
AcDbEntity
  8
0
100
AcDbBlockBegin
  2
_D_16
 70
     0
 10
0.0
 20
0.0
 30
0.0
  3
_D_16
  1

  0
SOLID
  5
1DD
330
1DA
100
AcDbEntity
  8
0
  6
Continuous
 62
     7
370
    18
100
AcDbTrace
 10
28.50774273
 20
164.1998651685
 30
0.0
 11
27.9692811915
 21
160.6998651685
 31
0.0
 12
29.0462042685
 22
160.6998651685
 32
0.0
 13
29.0462042685
 23
160.6998651685
 33
0.0
  0
SOLID
  5
1DE
330
1DA
100
AcDbEntity
  8
0
  6
Continuous
 62
     7
370
    18
100
AcDbTrace
 10
28.50774273
 20
168.1998651685
 30
0.0
 11
29.0462042685
 21
171.6998651685
 31
0.0
 12
27.9692811915
 22
171.6998651685
 32
0.0
 13
27.9692811915
 23
171.6998651685
 33
0.0
  0
LINE
  5
1DF
330
1DA
100
AcDbEntity
  8
0
  6
Continuous
 62
     7
370
     0
100
AcDbLine
 10
47.9652696629
 20
164.1998651685
 30
0.0
 11
27.50774273
 21
164.1998651685
 31
0.0
  0
LINE
  5
1E0
330
1DA
100
AcDbEntity
  8
0
  6
Continuous
 62
     7
370
     0
100
AcDbLine
 10
47.9652696629
 20
168.1998651685
 30
0.0
 11
27.50774273
 21
168.1998651685
 31
0.0
  0
LINE
  5
1E1
330
1DA
100
AcDbEntity
  8
0
  6
Continuous
 62
     7
370
     0
100
AcDbLine
 10
28.50774273
 20
164.1998651685
 30
0.0
 11
28.50774273
 21
157.4690959378
 31
0.0
  0
LINE
  5
1E2
330
1DA
100
AcDbEntity
  8
0
  6
Continuous
 62
     7
370
     0
100
AcDbLine
 10
28.50774273
 20
164.1998651685
 30
0.0
 11
28.50774273
 21
168.1998651685
 31
0.0
  0
LINE
  5
1E3
330
1DA
100
AcDbEntity
  8
0
  6
Continuous
 62
     7
370
     0
100
AcDbLine
 10
28.50774273
 20
168.1998651685
 30
0.0
 11
28.50774273
 21
174.9306343993
 31
0.0
  0
MTEXT
  5
1E4
330
1DA
100
AcDbEntity
  8
0
  6
Continuous
 62
     7
370
    18
100
AcDbMText
 10
23.9960056408
 20
166.164221432
 30
0.0
 40
3.5
 41
0.0
 71
     1
 72
     1
  1
8
  7
SLDTEXTSTYLE3
 11
6.123233995736766E-17
 21
1.0
 31
0.0
 73
     1
 44
1.0
  0
ENDBLK
  5
1DC
330
1DA
100
AcDbEntity
  8
0
100
AcDbBlockEnd
  0
ENDSEC
  0
SECTION
  2
ENTITIES
  0
LINE
  5
78
330
1F
100
AcDbEntity
  8
0
  6
Continuous
 62
     7
370
    25
100
AcDbLine
 10
20.0
 20
20.0
 30
0.0
 11
20.0
 21
5.0
 31
0.0
  0
LINE
  5
79
330
1F
100
AcDbEntity
  8
0
  6
Continuous
 62
     7
370
    50
100
AcDbLine
 10
20.0
 20
150.0
 30
0.0
 11
8.0
 21
150.0
 31
0.0
  0
LINE
  5
7A
330
1F
100
AcDbEntity
  8
0
  6
Continuous
 62
     7
370
    50
100
AcDbLine
 10
20.0
 20
278.0
 30
0.0
 11
90.0
 21
278.0
 31
0.0
  0
LINE
  5
7B
330
1F
100
AcDbEntity
  8
0
  6
Continuous
 62
     7
370
    50
100
AcDbLine
 10
90.0
 20
292.0
 30
0.0
 11
90.0
 21
278.0
 31
0.0
  0
LINE
  5
7C
330
1F
100
AcDbEntity
  8
0
  6
Continuous
 62
     7
370
    18
100
AcDbLine
 10
0.0
 20
297.0
 30
0.0
 11
210.0
 21
297.0
 31
0.0
  0
LINE
  5
7D
330
1F
100
AcDbEntity
  8
0
  6
Continuous
 62
     7
370
    18
100
AcDbLine
 10
0.0
 20
297.0
 30
0.0
 11
0.0
 21
0.0
 31
0.0
  0
LINE
  5
7E
330
1F
100
AcDbEntity
  8
0
  6
Continuous
 62
     7
370
    18
100
AcDbLine
 10
0.0
 20
0.0
 30
0.0
 11
210.0
 21
0.0
 31
0.0
  0
LINE
  5
7F
330
1F
100
AcDbEntity
  8
0
  6
Continuous
 62
     7
370
    18
100
AcDbLine
 10
210.0
 20
297.0
 30
0.0
 11
210.0
 21
0.0
 31
0.0
  0
LINE
  5
80
330
1F
100
AcDbEntity
  8
0
  6
Continuous
 62
     7
370
    50
100
AcDbLine
 10
27.0
 20
20.0
 30
0.0
 11
27.0
 21
5.0
 31
0.0
  0
LINE
  5
81
330
1F
100
AcDbEntity
  8
0
  6
Continuous
 62
     7
370
    50
100
AcDbLine
 10
195.0
 20
20.0
 30
0.0
 11
195.0
 21
5.0
 31
0.0
  0
LINE
  5
82
330
1F
100
AcDbEntity
  8
0
  6
Continuous
 62
     7
370
    50
100
AcDbLine
 10
195.0
 20
20.0
 30
0.0
 11
195.0
 21
5.0
 31
0.0
  0
LINE
  5
83
330
1F
100
AcDbEntity
  8
0
  6
Continuous
 62
     7
370
    50
100
AcDbLine
 10
8.0
 20
5.0
 30
0.0
 11
8.0
 21
150.0
 31
0.0
  0
LINE
  5
84
330
1F
100
AcDbEntity
  8
0
  6
Continuous
 62
     7
370
    50
100
AcDbLine
 10
8.0
 20
5.0
 30
0.0
 11
20.0
 21
5.0
 31
0.0
  0
LINE
  5
85
330
1F
100
AcDbEntity
  8
0
  6
Continuous
 62
     7
370
    50
100
AcDbLine
 10
13.0
 20
5.0
 30
0.0
 11
13.0
 21
150.0
 31
0.0
  0
LINE
  5
86
330
1F
100
AcDbEntity
  8
0
  6
Continuous
 62
     7
370
    25
100
AcDbLine
 10
20.0
 20
5.0
 30
0.0
 11
20.0
 21
150.0
 31
0.0
  0
LINE
  5
87
330
1F
100
AcDbEntity
  8
0
  6
Continuous
 62
     7
370
    50
100
AcDbLine
 10
20.0
 20
5.0
 30
0.0
 11
20.0
 21
292.0
 31
0.0
  0
LINE
  5
88
330
1F
100
AcDbEntity
  8
0
  6
Continuous
 62
     7
370
    50
100
AcDbLine
 10
20.0
 20
292.0
 30
0.0
 11
205.0
 21
292.0
 31
0.0
  0
LINE
  5
89
330
1F
100
AcDbEntity
  8
0
  6
Continuous
 62
     7
370
    50
100
AcDbLine
 10
205.0
 20
292.0
 30
0.0
 11
205.0
 21
5.0
 31
0.0
  0
LINE
  5
8A
330
1F
100
AcDbEntity
  8
0
  6
Continuous
 62
     7
370
    50
100
AcDbLine
 10
20.0
 20
5.0
 30
0.0
 11
205.0
 21
5.0
 31
0.0
  0
LINE
  5
8B
330
1F
100
AcDbEntity
  8
0
  6
Continuous
 62
     7
370
    50
100
AcDbLine
 10
20.0
 20
10.0
 30
0.0
 11
85.0
 21
10.0
 31
0.0
  0
LINE
  5
8C
330
1F
100
AcDbEntity
  8
0
  6
Continuous
 62
     7
370
    50
100
AcDbLine
 10
195.0
 20
13.0
 30
0.0
 11
205.0
 21
13.0
 31
0.0
  0
LINE
  5
8D
330
1F
100
AcDbEntity
  8
0
  6
Continuous
 62
     7
370
    18
100
AcDbLine
 10
20.0
 20
15.0
 30
0.0
 11
85.0
 21
15.0
 31
0.0
  0
LINE
  5
8E
330
1F
100
AcDbEntity
  8
0
  6
Continuous
 62
     7
370
    50
100
AcDbLine
 10
20.0
 20
20.0
 30
0.0
 11
205.0
 21
20.0
 31
0.0
  0
LINE
  5
8F
330
1F
100
AcDbEntity
  8
0
  6
Continuous
 62
     7
370
    50
100
AcDbLine
 10
20.0
 20
30.0
 30
0.0
 11
8.0
 21
30.0
 31
0.0
  0
LINE
  5
90
330
1F
100
AcDbEntity
  8
0
  6
Continuous
 62
     7
370
    50
100
AcDbLine
 10
205.0
 20
5.0
 30
0.0
 11
20.0
 21
5.0
 31
0.0
  0
LINE
  5
91
330
1F
100
AcDbEntity
  8
0
  6
Continuous
 62
     7
370
    50
100
AcDbLine
 10
20.0
 20
5.0
 30
0.0
 11
20.0
 21
292.0
 31
0.0
  0
LINE
  5
92
330
1F
100
AcDbEntity
  8
0
  6
Continuous
 62
     7
370
    50
100
AcDbLine
 10
20.0
 20
65.0
 30
0.0
 11
8.0
 21
65.0
 31
0.0
  0
LINE
  5
93
330
1F
100
AcDbEntity
  8
0
  6
Continuous
 62
     7
370
    50
100
AcDbLine
 10
37.0
 20
20.0
 30
0.0
 11
37.0
 21
5.0
 31
0.0
  0
LINE
  5
94
330
1F
100
AcDbEntity
  8
0
  6
Continuous
 62
     7
370
    50
100
AcDbLine
 10
20.0
 20
90.0
 30
0.0
 11
8.0
 21
90.0
 31
0.0
  0
LINE
  5
95
330
1F
100
AcDbEntity
  8
0
  6
Continuous
 62
     7
370
    50
100
AcDbLine
 10
60.0
 20
5.0
 30
0.0
 11
60.0
 21
20.0
 31
0.0
  0
LINE
  5
96
330
1F
100
AcDbEntity
  8
0
  6
Continuous
 62
     7
370
    50
100
AcDbLine
 10
75.0
 20
20.0
 30
0.0
 11
75.0
 21
5.0
 31
0.0
  0
LINE
  5
97
330
1F
100
AcDbEntity
  8
0
  6
Continuous
 62
     7
370
    50
100
AcDbLine
 10
20.0
 20
115.0
 30
0.0
 11
8.0
 21
115.0
 31
0.0
  0
LINE
  5
98
330
1F
100
AcDbEntity
  8
0
  6
Continuous
 62
     7
370
    50
100
AcDbLine
 10
85.0
 20
20.0
 30
0.0
 11
85.0
 21
5.0
 31
0.0
  0
LINE
  5
99
330
1F
100
AcDbEntity
  8
0
  6
Continuous
 62
     7
370
    50
100
AcDbLine
 10
205.0
 20
292.0
 30
0.0
 11
205.0
 21
5.0
 31
0.0
  0
LINE
  5
9A
330
1F
100
AcDbEntity
  8
0
  6
Continuous
 62
     7
370
    50
100
AcDbLine
 10
20.0
 20
292.0
 30
0.0
 11
205.0
 21
292.0
 31
0.0
  0
LINE
  5
9B
330
1F
100
AcDbEntity
  8
0
  6
Continuous
 62
     7
370
    50
100
AcDbLine
 10
14.999
 20
148.5
 30
0.0
 11
20.001
 21
148.5
 31
0.0
  0
LINE
  5
9C
330
1F
100
AcDbEntity
  8
0
  6
Continuous
 62
     7
370
    50
100
AcDbLine
 10
112.5
 20
297.001
 30
0.0
 11
112.5
 21
291.999
 31
0.0
  0
LINE
  5
9D
330
1F
100
AcDbEntity
  8
0
  6
Continuous
 62
     7
370
    50
100
AcDbLine
 10
210.001
 20
148.5
 30
0.0
 11
204.999
 21
148.5
 31
0.0
  0
LINE
  5
9E
330
1F
100
AcDbEntity
  8
0
  6
Continuous
 62
     7
370
    50
100
AcDbLine
 10
112.5
 20
-0.001
 30
0.0
 11
112.5
 21
5.001
 31
0.0
  0
MTEXT
  5
A0
330
1F
100
AcDbEntity
  8
0
  6
Continuous
 62
     7
370
     0
100
AcDbMText
 10
48.4444853553
 20
8.8165251596
 30
0.0
 40
2.5
 41
0.0
 71
     2
 72
     1
  1
\U+2116 \U+0434\U+043E\U+043A\U+0443\U+043C.
  7
SLDTEXTSTYLE0
 73
     1
 44
1.0
  0
MTEXT
  5
A1
330
1F
100
AcDbEntity
  8
0
  6
Continuous
 62
     7
370
     0
100
AcDbMText
 10
67.5322514931
 20
8.8165251596
 30
0.0
 40
2.5
 41
0.0
 71
     2
 72
     1
  1
\U+041F\U+043E\U+0434\U+043F.
  7
SLDTEXTSTYLE0
 73
     1
 44
1.0
  0
MTEXT
  5
A2
330
1F
100
AcDbEntity
  8
0
  6
Continuous
 62
     7
370
     0
100
AcDbMText
 10
79.9458279538
 20
8.8165251596
 30
0.0
 40
2.5
 41
0.0
 71
     2
 72
     1
  1
\U+0414\U+0430\U+0442\U+0430
  7
SLDTEXTSTYLE0
 73
     1
 44
1.0
  0
MTEXT
  5
A4
330
1F
100
AcDbEntity
  8
0
  6
Continuous
 62
     7
370
     0
100
AcDbMText
 10
9.1833407191
 20
17.43901041
 30
0.0
 40
2.5
 41
0.0
 71
     2
 72
     1
  1
\U+0418\U+043D\U+0432. \U+2116 \U+043F\U+043E\U+0434\U+043B.
  7
SLDTEXTSTYLE1
 11
-3.491481338843133E-15
 21
1.0
 31
0.0
 73
     1
 44
1.0
  0
MTEXT
  5
A5
330
1F
100
AcDbEntity
  8
0
  6
Continuous
 62
     7
370
     0
100
AcDbMText
 10
9.1833407191
 20
47.4099390581
 30
0.0
 40
2.5
 41
0.0
 71
     2
 72
     1
  1
\U+041F\U+043E\U+0434\U+043F. \U+0438 \U+0434\U+0430\U+0442\U+0430
  7
SLDTEXTSTYLE1
 11
-3.491481338843133E-15
 21
1.0
 31
0.0
 73
     1
 44
1.0
  0
MTEXT
  5
A6
330
1F
100
AcDbEntity
  8
0
  6
Continuous
 62
     7
370
     0
100
AcDbMText
 10
9.1833407191
 20
77.4327256158
 30
0.0
 40
2.5
 41
0.0
 71
     2
 72
     1
  1
\U+0412\U+0437\U+0430\U+043C. \U+0438\U+043D\U+0432. \U+2116
  7
SLDTEXTSTYLE1
 11
-3.491481338843133E-15
 21
1.0
 31
0.0
 73
     1
 44
1.0
  0
MTEXT
  5
A7
330
1F
100
AcDbEntity
  8
0
  6
Continuous
 62
     7
370
     0
100
AcDbMText
 10
9.1833407191
 20
102.4082019925
 30
0.0
 40
2.5
 41
0.0
 71
     2
 72
     1
  1
\U+0418\U+043D\U+0432. \U+2116 \U+0434\U+0443\U+0431\U+043B.
  7
SLDTEXTSTYLE1
 11
-3.491481338843133E-15
 21
1.0
 31
0.0
 73
     1
 44
1.0
  0
MTEXT
  5
A8
330
1F
100
AcDbEntity
  8
0
  6
Continuous
 62
     7
370
     0
100
AcDbMText
 10
9.1833407191
 20
132.4099390581
 30
0.0
 40
2.5
 41
0.0
 71
     2
 72
     1
  1
\U+041F\U+043E\U+0434\U+043F. \U+0438 \U+0434\U+0430\U+0442\U+0430
  7
SLDTEXTSTYLE1
 11
-3.491481338843133E-15
 21
1.0
 31
0.0
 73
     1
 44
1.0
  0
MTEXT
  5
A9
330
1F
100
AcDbEntity
  8
0
  6
Continuous
 62
     7
370
     0
100
AcDbMText
 10
119.8656693846
 20
3.8165415389
 30
0.0
 40
2.5
 41
0.0
 71
     2
 72
     1
  1
\U+041A\U+043E\U+043F\U+0438\U+0440\U+043E\U+0432\U+0430\U+043B
  7
SLDTEXTSTYLE1
 73
     1
 44
1.0
  0
MTEXT
  5
AA
330
1F
100
AcDbEntity
  8
0
  6
Continuous
 62
     7
370
     0
100
AcDbMText
 10
199.8985365736
 20
17.8165251596
 30
0.0
 40
2.5
 41
0.0
 71
     2
 72
     1
  1
\U+041B\U+0438\U+0441\U+0442
  7
SLDTEXTSTYLE1
 73
     1
 44
1.0
  0
MTEXT
  5
AB
330
1F
100
AcDbEntity
  8
0
  6
Continuous
 62
     7
370
     0
100
AcDbMText
 10
179.8498274013
 20
3.8165415389
 30
0.0
 40
2.5
 41
0.0
 71
     2
 72
     1
  1
\U+0424\U+043E\U+0440\U+043C\U+0430\U+0442 \U+04104
  7
SLDTEXTSTYLE1
 73
     1
 44
1.0
  0
MTEXT
  5
AC
330
1F
100
AcDbEntity
  8
0
  6
Continuous
 62
     7
370
     0
100
AcDbMText
 10
31.9549084858
 20
8.8165251596
 30
0.0
 40
2.5
 41
0.0
 71
     2
 72
     1
  1
\U+041B\U+0438\U+0441\U+0442
  7
SLDTEXTSTYLE0
 73
     1
 44
1.0
  0
MTEXT
  5
AD
330
1F
100
AcDbEntity
  8
0
  6
Continuous
 62
     7
370
     0
100
AcDbMText
 10
206.4334584611
 20
5.25
 30
0.0
 40
2.5
 41
0.0
 71
     1
 72
     1
  1
\U+0424\U+0430\U+0439\U+043B: flow heat cell
  7
SLDTEXTSTYLE1
 11
-3.491481338843133E-15
 21
1.0
 31
0.0
 73
     1
 44
1.0
  0
MTEXT
  5
AF
330
1F
100
AcDbEntity
  8
0
  6
Continuous
 62
     7
370
     0
100
AcDbMText
 10
23.5309174052
 20
8.8165251596
 30
0.0
 40
2.5
 41
0.0
 71
     2
 72
     1
  1
\U+0418\U+0437\U+043C.
  7
SLDTEXTSTYLE2
 73
     1
 44
1.0
  0
MTEXT
  5
B1
330
1F
100
AcDbEntity
  8
0
  6
Continuous
 62
     7
370
     0
100
AcDbMText
 10
17.4817708032
 20
150.3168190899
 30
0.0
 40
3.5
 41
0.0
 71
     2
 72
     1
  1
A
  7
SLDTEXTSTYLE3
 73
     1
 44
1.0
  0
MTEXT
  5
B2
330
1F
100
AcDbEntity
  8
0
  6
Continuous
 62
     7
370
     0
100
AcDbMText
 10
207.4817708032
 20
150.3168190899
 30
0.0
 40
3.5
 41
0.0
 71
     2
 72
     1
  1
A
  7
SLDTEXTSTYLE3
 73
     1
 44
1.0
  0
MTEXT
  5
B3
330
1F
100
AcDbEntity
  8
0
  6
Continuous
 62
     7
370
     0
100
AcDbMText
 10
104.9756944776
 20
4.3168190899
 30
0.0
 40
3.5
 41
0.0
 71
     2
 72
     1
  1
1
  7
SLDTEXTSTYLE3
 73
     1
 44
1.0
  0
MTEXT
  5
B4
330
1F
100
AcDbEntity
  8
0
  6
Continuous
 62
     7
370
     0
100
AcDbMText
 10
104.9756944776
 20
296.3168190899
 30
0.0
 40
3.5
 41
0.0
 71
     2
 72
     1
  1
1
  7
SLDTEXTSTYLE3
 73
     1
 44
1.0
  0
LINE
  5
B5
330
1F
100
AcDbEntity
  8
0
  6
Continuous
 62
     7
370
    25
100
AcDbLine
 10
90.4752696629
 20
216.2070337079
 30
0.0
 11
91.2252696629
 21
216.2070337079
 31
0.0
  0
LINE
  5
B6
330
1F
100
AcDbEntity
  8
0
  6
Continuous
 62
     7
370
    25
100
AcDbLine
 10
90.4752696629
 20
253.7070337079
 30
0.0
 11
90.4752696629
 21
216.2070337079
 31
0.0
  0
LINE
  5
B7
330
1F
100
AcDbEntity
  8
0
  6
Continuous
 62
     7
370
    25
100
AcDbLine
 10
91.2252696629
 20
253.7070337079
 30
0.0
 11
90.4752696629
 21
253.7070337079
 31
0.0
  0
LINE
  5
B8
330
1F
100
AcDbEntity
  8
0
  6
Continuous
 62
     7
370
    25
100
AcDbLine
 10
91.2252696629
 20
216.2070337079
 30
0.0
 11
91.2252696629
 21
253.7070337079
 31
0.0
  0
LINE
  5
B9
330
1F
100
AcDbEntity
  8
0
  6
Continuous
 62
     7
370
    25
100
AcDbLine
 10
48.7252696629
 20
253.7070337079
 30
0.0
 11
47.9752696629
 21
253.7070337079
 31
0.0
  0
LINE
  5
BA
330
1F
100
AcDbEntity
  8
0
  6
Continuous
 62
     7
370
    25
100
AcDbLine
 10
48.7252696629
 20
216.2070337079
 30
0.0
 11
48.7252696629
 21
253.7070337079
 31
0.0
  0
LINE
  5
BB
330
1F
100
AcDbEntity
  8
0
  6
Continuous
 62
     7
370
    25
100
AcDbLine
 10
47.9752696629
 20
216.2070337079
 30
0.0
 11
48.7252696629
 21
216.2070337079
 31
0.0
  0
LINE
  5
BC
330
1F
100
AcDbEntity
  8
0
  6
Continuous
 62
     7
370
    25
100
AcDbLine
 10
47.9752696629
 20
253.7070337079
 30
0.0
 11
47.9752696629
 21
216.2070337079
 31
0.0
  0
LINE
  5
BD
330
1F
100
AcDbEntity
  8
0
  6
Continuous
 62
     7
370
    25
100
AcDbLine
 10
53.9752696629
 20
245.0820337079
 30
0.0
 11
53.9752696629
 21
216.2070337079
 31
0.0
  0
LINE
  5
BE
330
1F
100
AcDbEntity
  8
0
  6
Continuous
 62
     7
370
    25
100
AcDbLine
 10
49.7252696629
 20
253.7070337079
 30
0.0
 11
49.7252696629
 21
228.0820337079
 31
0.0
  0
ARC
  5
BF
330
1F
100
AcDbEntity
  8
0
  6
Continuous
 62
     7
370
    25
100
AcDbCircle
 10
50.3502696629
 20
228.0820337079
 30
0.0
 40
0.6250000000000284
100
AcDbArc
 50
180.0
 51
270.0
  0
LINE
  5
C0
330
1F
100
AcDbEntity
  8
0
  6
Continuous
 62
     7
370
    25
100
AcDbLine
 10
50.3502696629
 20
227.4570337079
 30
0.0
 11
51.6002696629
 21
227.4570337079
 31
0.0
  0
ARC
  5
C1
330
1F
100
AcDbEntity
  8
0
  6
Continuous
 62
     7
370
    25
100
AcDbCircle
 10
51.6002696629
 20
228.0820337079
 30
0.0
 40
0.6250000000000284
100
AcDbArc
 50
270.0
 51
0.0
  0
LINE
  5
C2
330
1F
100
AcDbEntity
  8
0
  6
Continuous
 62
     7
370
    25
100
AcDbLine
 10
52.2252696629
 20
253.7070337079
 30
0.0
 11
52.2252696629
 21
228.0820337079
 31
0.0
  0
LINE
  5
C3
330
1F
100
AcDbEntity
  8
0
  6
Continuous
 62
     7
370
    25
100
AcDbLine
 10
62.3502696629
 20
253.7070337079
 30
0.0
 11
62.3502696629
 21
228.0820337079
 31
0.0
  0
ARC
  5
C4
330
1F
100
AcDbEntity
  8
0
  6
Continuous
 62
     7
370
    25
100
AcDbCircle
 10
62.9752696629
 20
228.0820337079
 30
0.0
 40
0.6250000000000284
100
AcDbArc
 50
180.0
 51
270.0
  0
LINE
  5
C5
330
1F
100
AcDbEntity
  8
0
  6
Continuous
 62
     7
370
    25
100
AcDbLine
 10
62.9752696629
 20
227.4570337079
 30
0.0
 11
64.2252696629
 21
227.4570337079
 31
0.0
  0
ARC
  5
C6
330
1F
100
AcDbEntity
  8
0
  6
Continuous
 62
     7
370
    25
100
AcDbCircle
 10
64.2252696629
 20
228.0820337079
 30
0.0
 40
0.6250000000000284
100
AcDbArc
 50
270.0
 51
0.0
  0
LINE
  5
C7
330
1F
100
AcDbEntity
  8
0
  6
Continuous
 62
     7
370
    25
100
AcDbLine
 10
64.8502696629
 20
253.7070337079
 30
0.0
 11
64.8502696629
 21
228.0820337079
 31
0.0
  0
LINE
  5
C8
330
1F
100
AcDbEntity
  8
0
  6
Continuous
 62
     7
370
    25
100
AcDbLine
 10
74.3502696629
 20
253.7070337079
 30
0.0
 11
74.3502696629
 21
228.0820337079
 31
0.0
  0
ARC
  5
C9
330
1F
100
AcDbEntity
  8
0
  6
Continuous
 62
     7
370
    25
100
AcDbCircle
 10
74.9752696629
 20
228.0820337079
 30
0.0
 40
0.6250000000000284
100
AcDbArc
 50
180.0
 51
270.0
  0
LINE
  5
CA
330
1F
100
AcDbEntity
  8
0
  6
Continuous
 62
     7
370
    25
100
AcDbLine
 10
74.9752696629
 20
227.4570337079
 30
0.0
 11
76.2252696629
 21
227.4570337079
 31
0.0
  0
ARC
  5
CB
330
1F
100
AcDbEntity
  8
0
  6
Continuous
 62
     7
370
    25
100
AcDbCircle
 10
76.2252696629
 20
228.0820337079
 30
0.0
 40
0.6250000000000284
100
AcDbArc
 50
270.0
 51
0.0
  0
LINE
  5
CC
330
1F
100
AcDbEntity
  8
0
  6
Continuous
 62
     7
370
    25
100
AcDbLine
 10
76.8502696629
 20
253.7070337079
 30
0.0
 11
76.8502696629
 21
228.0820337079
 31
0.0
  0
LINE
  5
CD
330
1F
100
AcDbEntity
  8
0
  6
Continuous
 62
     7
370
    25
100
AcDbLine
 10
86.9752696629
 20
253.7070337079
 30
0.0
 11
86.9752696629
 21
228.0820337079
 31
0.0
  0
ARC
  5
CE
330
1F
100
AcDbEntity
  8
0
  6
Continuous
 62
     7
370
    25
100
AcDbCircle
 10
87.6002696629
 20
228.0820337079
 30
0.0
 40
0.6250000000000284
100
AcDbArc
 50
180.0
 51
270.0
  0
LINE
  5
CF
330
1F
100
AcDbEntity
  8
0
  6
Continuous
 62
     7
370
    25
100
AcDbLine
 10
87.6002696629
 20
227.4570337079
 30
0.0
 11
88.8502696629
 21
227.4570337079
 31
0.0
  0
ARC
  5
D0
330
1F
100
AcDbEntity
  8
0
  6
Continuous
 62
     7
370
    25
100
AcDbCircle
 10
88.8502696629
 20
228.0820337079
 30
0.0
 40
0.6250000000000284
100
AcDbArc
 50
270.0
 51
0.0
  0
LINE
  5
D1
330
1F
100
AcDbEntity
  8
0
  6
Continuous
 62
     7
370
    25
100
AcDbLine
 10
89.4752696629
 20
253.7070337079
 30
0.0
 11
89.4752696629
 21
228.0820337079
 31
0.0
  0
LINE
  5
D2
330
1F
100
AcDbEntity
  8
0
  6
Continuous
 62
     7
370
    25
100
AcDbLine
 10
85.2252696629
 20
216.2070337079
 30
0.0
 11
85.2252696629
 21
245.0820337079
 31
0.0
  0
LINE
  5
D3
330
1F
100
AcDbEntity
  8
0
  6
Continuous
 62
     7
370
    25
100
AcDbLine
 10
77.9752696629
 20
224.8320337079
 30
0.0
 11
77.9752696629
 21
245.0820337079
 31
0.0
  0
ARC
  5
D4
330
1F
100
AcDbEntity
  8
0
  6
Continuous
 62
     7
370
    25
100
AcDbCircle
 10
75.6002696629
 20
224.8320337079
 30
0.0
 40
2.375000000000014
100
AcDbArc
 50
180.0
 51
0.0
  0
LINE
  5
D5
330
1F
100
AcDbEntity
  8
0
  6
Continuous
 62
     7
370
    25
100
AcDbLine
 10
73.2252696629
 20
224.8320337079
 30
0.0
 11
73.2252696629
 21
245.0820337079
 31
0.0
  0
ARC
  5
D6
330
1F
100
AcDbEntity
  8
0
  6
Continuous
 62
     7
370
    25
100
AcDbCircle
 10
69.6002696629
 20
245.0820337079
 30
0.0
 40
3.625
100
AcDbArc
 50
0.0
 51
180.0
  0
LINE
  5
D7
330
1F
100
AcDbEntity
  8
0
  6
Continuous
 62
     7
370
    25
100
AcDbLine
 10
65.9752696629
 20
224.8320337079
 30
0.0
 11
65.9752696629
 21
245.0820337079
 31
0.0
  0
LINE
  5
D8
330
1F
100
AcDbEntity
  8
0
  6
Continuous
 62
     7
370
    25
100
AcDbLine
 10
61.2252696629
 20
224.8320337079
 30
0.0
 11
61.2252696629
 21
245.0820337079
 31
0.0
  0
ARC
  5
D9
330
1F
100
AcDbEntity
  8
0
  6
Continuous
 62
     7
370
    25
100
AcDbCircle
 10
81.6002696629
 20
245.0820337079
 30
0.0
 40
3.625
100
AcDbArc
 50
0.0
 51
180.0
  0
ARC
  5
DA
330
1F
100
AcDbEntity
  8
0
  6
Continuous
 62
     7
370
    25
100
AcDbCircle
 10
57.6002696629
 20
245.0820337079
 30
0.0
 40
3.625000000000021
100
AcDbArc
 50
0.0
 51
180.0
  0
ARC
  5
DB
330
1F
100
AcDbEntity
  8
0
  6
Continuous
 62
     7
370
    25
100
AcDbCircle
 10
63.6002696629
 20
224.8320337079
 30
0.0
 40
2.375000000000007
100
AcDbArc
 50
180.0
 51
0.0
  0
LINE
  5
DC
330
1F
100
AcDbEntity
  8
0
  6
Continuous
 62
     7
370
    25
100
AcDbLine
 10
48.7252696629
 20
216.2070337079
 30
0.0
 11
53.9752696629
 21
216.2070337079
 31
0.0
  0
LINE
  5
DD
330
1F
100
AcDbEntity
  8
0
  6
Continuous
 62
     7
370
    25
100
AcDbLine
 10
85.2252696629
 20
216.2070337079
 30
0.0
 11
90.4752696629
 21
216.2070337079
 31
0.0
  0
LINE
  5
DE
330
1F
100
AcDbEntity
  8
0
  6
Continuous
 62
     7
370
    25
100
AcDbLine
 10
48.7252696629
 20
253.7070337079
 30
0.0
 11
49.7252696629
 21
253.7070337079
 31
0.0
  0
LINE
  5
DF
330
1F
100
AcDbEntity
  8
0
  6
Continuous
 62
     7
370
    25
100
AcDbLine
 10
89.4752696629
 20
253.7070337079
 30
0.0
 11
90.4752696629
 21
253.7070337079
 31
0.0
  0
LINE
  5
E0
330
1F
100
AcDbEntity
  8
0
  6
Continuous
 62
     7
370
    25
100
AcDbLine
 10
76.8502696629
 20
253.7070337079
 30
0.0
 11
86.9752696629
 21
253.7070337079
 31
0.0
  0
LINE
  5
E1
330
1F
100
AcDbEntity
  8
0
  6
Continuous
 62
     7
370
    25
100
AcDbLine
 10
64.8502696629
 20
253.7070337079
 30
0.0
 11
74.3502696629
 21
253.7070337079
 31
0.0
  0
LINE
  5
E2
330
1F
100
AcDbEntity
  8
0
  6
Continuous
 62
     7
370
    25
100
AcDbLine
 10
52.2252696629
 20
253.7070337079
 30
0.0
 11
62.3502696629
 21
253.7070337079
 31
0.0
  0
LINE
  5
E3
330
1F
100
AcDbEntity
  8
0
  6
Continuous
 62
     7
370
    25
100
AcDbLine
 10
59.9752696629
 20
245.0820337079
 30
0.0
 11
59.9752696629
 21
224.8320337079
 31
0.0
  0
LINE
  5
E4
330
1F
100
AcDbEntity
  8
0
  6
Continuous
 62
     7
370
    25
100
AcDbLine
 10
67.2252696629
 20
224.8320337079
 30
0.0
 11
67.2252696629
 21
245.0820337079
 31
0.0
  0
LINE
  5
E5
330
1F
100
AcDbEntity
  8
0
  6
Continuous
 62
     7
370
    25
100
AcDbLine
 10
71.9752696629
 20
245.0820337079
 30
0.0
 11
71.9752696629
 21
224.8320337079
 31
0.0
  0
LINE
  5
E6
330
1F
100
AcDbEntity
  8
0
  6
Continuous
 62
     7
370
    25
100
AcDbLine
 10
79.2252696629
 20
224.8320337079
 30
0.0
 11
79.2252696629
 21
245.0820337079
 31
0.0
  0
LINE
  5
E7
330
1F
100
AcDbEntity
  8
0
  6
Continuous
 62
     7
370
    25
100
AcDbLine
 10
83.9752696629
 20
245.0820337079
 30
0.0
 11
83.9752696629
 21
216.2070337079
 31
0.0
  0
LINE
  5
E8
330
1F
100
AcDbEntity
  8
0
  6
Continuous
 62
     7
370
    25
100
AcDbLine
 10
55.2252696629
 20
245.0820337079
 30
0.0
 11
55.2252696629
 21
216.2070337079
 31
0.0
  0
ARC
  5
E9
330
1F
100
AcDbEntity
  8
0
  6
Continuous
 62
     7
370
    25
100
AcDbCircle
 10
75.6002696629
 20
224.8320337079
 30
0.0
 40
3.625000000000014
100
AcDbArc
 50
180.0
 51
0.0
  0
ARC
  5
EA
330
1F
100
AcDbEntity
  8
0
  6
Continuous
 62
     7
370
    25
100
AcDbCircle
 10
69.6002696629
 20
245.0820337079
 30
0.0
 40
2.375
100
AcDbArc
 50
0.0
 51
180.0
  0
ARC
  5
EB
330
1F
100
AcDbEntity
  8
0
  6
Continuous
 62
     7
370
    25
100
AcDbCircle
 10
63.6002696629
 20
224.8320337079
 30
0.0
 40
3.625000000000007
100
AcDbArc
 50
180.0
 51
0.0
  0
ARC
  5
EC
330
1F
100
AcDbEntity
  8
0
  6
Continuous
 62
     7
370
    25
100
AcDbCircle
 10
81.6002696629
 20
245.0820337079
 30
0.0
 40
2.375
100
AcDbArc
 50
0.0
 51
180.0
  0
ARC
  5
ED
330
1F
100
AcDbEntity
  8
0
  6
Continuous
 62
     7
370
    25
100
AcDbCircle
 10
57.6002696629
 20
245.0820337079
 30
0.0
 40
2.375000000000007
100
AcDbArc
 50
0.0
 51
180.0
  0
LINE
  5
EE
330
1F
100
AcDbEntity
  8
0
  6
Continuous
 62
     7
370
    25
100
AcDbLine
 10
55.2252696629
 20
216.2070337079
 30
0.0
 11
83.9752696629
 21
216.2070337079
 31
0.0
  0
LINE
  5
EF
330
1F
100
AcDbEntity
  8
0
  6
Continuous
 62
     7
370
    25
100
AcDbLine
 10
53.9752696629
 20
216.2070337079
 30
0.0
 11
55.2252696629
 21
216.2070337079
 31
0.0
  0
LINE
  5
F0
330
1F
100
AcDbEntity
  8
0
  6
Continuous
 62
     7
370
    25
100
AcDbLine
 10
83.9752696629
 20
216.2070337079
 30
0.0
 11
85.2252696629
 21
216.2070337079
 31
0.0
  0
LINE
  5
F1
330
1F
100
AcDbEntity
  8
0
  6
Continuous
 62
     7
370
    25
100
AcDbLine
 10
76.8502696629
 20
253.7070337079
 30
0.0
 11
74.3502696629
 21
253.7070337079
 31
0.0
  0
LINE
  5
F2
330
1F
100
AcDbEntity
  8
0
  6
Continuous
 62
     7
370
    25
100
AcDbLine
 10
52.2252696629
 20
253.7070337079
 30
0.0
 11
49.7252696629
 21
253.7070337079
 31
0.0
  0
LINE
  5
F3
330
1F
100
AcDbEntity
  8
0
  6
Continuous
 62
     7
370
    25
100
AcDbLine
 10
89.4752696629
 20
253.7070337079
 30
0.0
 11
86.9752696629
 21
253.7070337079
 31
0.0
  0
LINE
  5
F4
330
1F
100
AcDbEntity
  8
0
  6
Continuous
 62
     7
370
    25
100
AcDbLine
 10
64.8502696629
 20
253.7070337079
 30
0.0
 11
62.3502696629
 21
253.7070337079
 31
0.0
  0
DIMENSION
  5
F5
330
1F
100
AcDbEntity
  8
0
  6
Continuous
 62
     7
370
    18
100
AcDbDimension
  2
_D
 10
91.2252696629
 20
266.6985339732
 30
0.0
 11
67.042320236
 21
266.6985339732
 31
0.0
 70
   160
  1
<>
 71
     2
 42
-1.0
  3
SLDDIMSTYLE0
100
AcDbAlignedDimension
 13
47.9752696629
 23
253.7070337079
 33
0.0
 14
91.2252696629
 24
253.7070337079
 34
0.0
100
AcDbRotatedDimension
  0
DIMENSION
  5
100
330
1F
100
AcDbEntity
  8
0
  6
Continuous
 62
     7
370
    18
100
AcDbDimension
  2
_D_1
 10
33.759831981
 20
216.2070337079
 30
0.0
 11
33.759831981
 21
234.9680788492
 31
0.0
 70
   160
  1
<>
 71
     2
 42
-1.0
  3
SLDDIMSTYLE0
100
AcDbAlignedDimension
 13
47.9752696629
 23
253.7070337079
 33
0.0
 14
47.9752696629
 24
216.2070337079
 34
0.0
 50
90.0
100
AcDbRotatedDimension
  0
DIMENSION
  5
10A
330
1F
100
AcDbEntity
  8
0
  6
Continuous
 62
     7
370
    18
100
AcDbDimension
  2
_D_2
 10
48.7252696629
 20
260.382034952
 30
0.0
 11
39.2179629635
 21
260.382034952
 31
0.0
 70
   160
  1
<>
 71
     2
 42
-1.0
  3
SLDDIMSTYLE1
100
AcDbAlignedDimension
 13
47.9752696629
 23
253.7070337079
 33
0.0
 14
48.7252696629
 24
253.7070337079
 34
0.0
100
AcDbRotatedDimension
  0
DIMENSION
  5
117
330
1F
100
AcDbEntity
  8
0
  6
Continuous
 62
     7
370
    18
100
AcDbDimension
  2
_D_3
 10
52.2252696629
 20
256.0394915078
 30
0.0
 11
24.9424753196
 21
256.0394915078
 31
0.0
 70
   160
  1
<>
 71
     2
 42
-1.0
  3
SLDDIMSTYLE1
100
AcDbAlignedDimension
 13
49.7252696629
 23
253.7070337079
 33
0.0
 14
52.2252696629
 24
253.7070337079
 34
0.0
100
AcDbRotatedDimension
  0
DIMENSION
  5
123
330
1F
100
AcDbEntity
  8
0
  6
Continuous
 62
     7
370
    18
100
AcDbDimension
  2
_D_4
 10
55.2252696629
 20
210.1650171297
 30
0.0
 11
48.3290914417
 21
210.1650171297
 31
0.0
 70
   160
  1
<>
 71
     2
 42
-1.0
  3
SLDDIMSTYLE1
100
AcDbAlignedDimension
 13
53.9752696629
 23
216.2070337079
 33
0.0
 14
55.2252696629
 24
216.2070337079
 34
0.0
100
AcDbRotatedDimension
  0
DIMENSION
  5
12F
330
1F
100
AcDbEntity
  8
0
  6
Continuous
 62
     7
370
    18
100
AcDbDimension
  2
_D_5
 10
57.6002696629
 20
245.0820337079
 30
0.0
 11
69.3945496731
 21
262.8564359005
 31
0.0
 70
   164
  1
<>
 71
     1
 42
-1.0
  3
SLDDIMSTYLE2
100
AcDbRadialDimension
 15
58.817681591
 25
248.4964931376
 35
0.0
 40
0.0
  0
DIMENSION
  5
139
330
1F
100
AcDbEntity
  8
0
  6
Continuous
 62
     7
370
    18
100
AcDbDimension
  2
_D_6
 10
57.6002696629
 20
245.0820337079
 30
0.0
 11
69.3945496731
 21
257.8657728616
 31
0.0
 70
   164
  1
<>
 71
     1
 42
-1.0
  3
SLDDIMSTYLE2
100
AcDbRadialDimension
 15
58.7169804474
 25
247.1781210209
 35
0.0
 40
0.0
  0
DIMENSION
  5
142
330
1F
100
AcDbEntity
  8
0
  6
Continuous
 62
     7
370
    18
100
AcDbDimension
  2
_D_7
 10
90.4752696629
 20
201.3385743674
 30
0.0
 11
94.5131912738
 21
201.3385743674
 31
0.0
 70
   160
  1
<>
 71
     2
 42
-1.0
  3
SLDDIMSTYLE1
100
AcDbAlignedDimension
 13
89.4752696629
 23
228.0820337079
 33
0.0
 14
90.4752696629
 24
216.2070337079
 34
0.0
100
AcDbRotatedDimension
  0
DIMENSION
  5
14E
330
1F
100
AcDbEntity
  8
0
  6
Continuous
 62
     7
370
    18
100
AcDbDimension
  2
_D_8
 10
86.9752696629
 20
191.2771149206
 30
0.0
 11
93.4706969948
 21
191.2771149206
 31
0.0
 70
   160
  1
<>
 71
     2
 42
-1.0
  3
SLDDIMSTYLE1
100
AcDbAlignedDimension
 13
85.2252696629
 23
216.2070337079
 33
0.0
 14
86.9752696629
 24
228.0820337079
 34
0.0
100
AcDbRotatedDimension
  0
DIMENSION
  5
15A
330
1F
100
AcDbEntity
  8
0
  6
Continuous
 62
     7
370
    18
100
AcDbDimension
  2
_D_9
 10
77.9752696629
 20
196.9484132284
 30
0.0
 11
73.8308305114
 21
196.9484132284
 31
0.0
 70
   160
  1
<>
 71
     2
 42
-1.0
  3
SLDDIMSTYLE1
100
AcDbAlignedDimension
 13
76.8502696629
 23
228.0820337079
 33
0.0
 14
77.9752696629
 24
224.8320337079
 34
0.0
100
AcDbRotatedDimension
  0
DIMENSION
  5
166
330
1F
100
AcDbEntity
  8
0
  6
Continuous
 62
     7
370
    18
100
AcDbDimension
  2
_D_10
 10
107.8123592904
 20
227.4570337079
 30
0.0
 11
107.8123592904
 21
234.2457856869
 31
0.0
 70
   160
  1
<>
 71
     2
 42
-1.0
  3
SLDDIMSTYLE1
100
AcDbAlignedDimension
 13
91.2252696629
 23
253.7070337079
 33
0.0
 14
88.8502696629
 24
227.4570337079
 34
0.0
 50
90.0
100
AcDbRotatedDimension
  0
DIMENSION
  5
170
330
1F
100
AcDbEntity
  8
0
  6
Continuous
 62
     7
370
    18
100
AcDbDimension
  2
_D_11
 10
88.8502696629
 20
228.0820337079
 30
0.0
 11
110.8798135534
 21
217.6853769311
 31
0.0
 70
   164
  1
<>
 71
     1
 42
-1.0
  3
SLDDIMSTYLE2
100
AcDbRadialDimension
 15
89.3293519966
 25
227.6806546881
 35
0.0
 40
0.0
  0
LINE
  5
179
330
1F
100
AcDbEntity
  8
0
  6
Continuous
 62
     7
370
    25
100
AcDbLine
 10
150.9092808989
 20
253.7070337079
 30
0.0
 11
150.9092808989
 21
216.2070337079
 31
0.0
  0
LINE
  5
17A
330
1F
100
AcDbEntity
  8
0
  6
Continuous
 62
     7
370
    25
100
AcDbLine
 10
150.9092808989
 20
216.2070337079
 30
0.0
 11
146.9092808989
 21
216.2070337079
 31
0.0
  0
LINE
  5
17B
330
1F
100
AcDbEntity
  8
0
  6
Continuous
 62
     7
370
    25
100
AcDbLine
 10
150.9092808989
 20
253.7070337079
 30
0.0
 11
146.9092808989
 21
253.7070337079
 31
0.0
  0
LINE
  5
17C
330
1F
100
AcDbEntity
  8
0
  6
Continuous
 62
     7
370
    25
100
AcDbLine
 10
146.9092808989
 20
216.2070337079
 30
0.0
 11
146.9092808989
 21
253.7070337079
 31
0.0
  0
DIMENSION
  5
17D
330
1F
100
AcDbEntity
  8
0
  6
Continuous
 62
     7
370
    18
100
AcDbDimension
  2
_D_12
 10
146.9092808989
 20
266.7274121953
 30
0.0
 11
149.6770674057
 21
266.7274121953
 31
0.0
 70
   160
  1
<>
 71
     2
 42
-1.0
  3
SLDDIMSTYLE1
100
AcDbAlignedDimension
 13
150.9092808989
 23
253.7070337079
 33
0.0
 14
146.9092808989
 24
253.7070337079
 34
0.0
100
AcDbRotatedDimension
  0
LINE
  5
189
330
1F
100
AcDbEntity
  8
0
  6
Continuous
 62
     7
370
    25
100
AcDbLine
 10
49.7252696629
 20
167.9498651685
 30
0.0
 11
49.7252696629
 21
165.4498651685
 31
0.0
  0
LINE
  5
18A
330
1F
100
AcDbEntity
  8
0
  6
Continuous
 62
     7
370
    25
100
AcDbLine
 10
48.7252696629
 20
165.4498651685
 30
0.0
 11
49.7252696629
 21
165.4498651685
 31
0.0
  0
LINE
  5
18B
330
1F
100
AcDbEntity
  8
0
  6
Continuous
 62
     7
370
    25
100
AcDbLine
 10
48.7252696629
 20
164.1998651685
 30
0.0
 11
48.7252696629
 21
165.4498651685
 31
0.0
  0
LINE
  5
18C
330
1F
100
AcDbEntity
  8
0
  6
Continuous
 62
     7
370
    25
100
AcDbLine
 10
48.7252696629
 20
164.1998651685
 30
0.0
 11
47.9752696629
 21
164.1998651685
 31
0.0
  0
LINE
  5
18D
330
1F
100
AcDbEntity
  8
0
  6
Continuous
 62
     7
370
    25
100
AcDbLine
 10
47.9752696629
 20
168.1998651685
 30
0.0
 11
91.2252696629
 21
168.1998651685
 31
0.0
  0
LINE
  5
18E
330
1F
100
AcDbEntity
  8
0
  6
Continuous
 62
     7
370
    25
100
AcDbLine
 10
91.2252696629
 20
164.1998651685
 30
0.0
 11
91.2252696629
 21
168.1998651685
 31
0.0
  0
LINE
  5
18F
330
1F
100
AcDbEntity
  8
0
  6
Continuous
 62
     7
370
    25
100
AcDbLine
 10
91.2252696629
 20
164.1998651685
 30
0.0
 11
90.4752696629
 21
164.1998651685
 31
0.0
  0
LINE
  5
190
330
1F
100
AcDbEntity
  8
0
  6
Continuous
 62
     7
370
    25
100
AcDbLine
 10
90.4752696629
 20
164.1998651685
 30
0.0
 11
90.4752696629
 21
165.4498651685
 31
0.0
  0
LINE
  5
191
330
1F
100
AcDbEntity
  8
0
  6
Continuous
 62
     7
370
    25
100
AcDbLine
 10
89.4752696629
 20
165.4498651685
 30
0.0
 11
90.4752696629
 21
165.4498651685
 31
0.0
  0
LINE
  5
192
330
1F
100
AcDbEntity
  8
0
  6
Continuous
 62
     7
370
    25
100
AcDbLine
 10
76.8502696629
 20
165.4498651685
 30
0.0
 11
86.9752696629
 21
165.4498651685
 31
0.0
  0
LINE
  5
193
330
1F
100
AcDbEntity
  8
0
  6
Continuous
 62
     7
370
    25
100
AcDbLine
 10
64.8502696629
 20
165.4498651685
 30
0.0
 11
74.3502696629
 21
165.4498651685
 31
0.0
  0
LINE
  5
194
330
1F
100
AcDbEntity
  8
0
  6
Continuous
 62
     7
370
    25
100
AcDbLine
 10
62.3502696629
 20
167.9498651685
 30
0.0
 11
62.3502696629
 21
165.4498651685
 31
0.0
  0
LINE
  5
195
330
1F
100
AcDbEntity
  8
0
  6
Continuous
 62
     7
370
    25
100
AcDbLine
 10
52.2252696629
 20
165.4498651685
 30
0.0
 11
62.3502696629
 21
165.4498651685
 31
0.0
  0
LINE
  5
196
330
1F
100
AcDbEntity
  8
0
  6
Continuous
 62
     7
370
    25
100
AcDbLine
 10
64.8502696629
 20
167.9498651685
 30
0.0
 11
62.3502696629
 21
167.9498651685
 31
0.0
  0
LINE
  5
197
330
1F
100
AcDbEntity
  8
0
  6
Continuous
 62
     7
370
    25
100
AcDbLine
 10
64.8502696629
 20
167.9498651685
 30
0.0
 11
64.8502696629
 21
165.4498651685
 31
0.0
  0
LINE
  5
198
330
1F
100
AcDbEntity
  8
0
  6
Continuous
 62
     7
370
    25
100
AcDbLine
 10
76.8502696629
 20
167.9498651685
 30
0.0
 11
74.3502696629
 21
167.9498651685
 31
0.0
  0
LINE
  5
199
330
1F
100
AcDbEntity
  8
0
  6
Continuous
 62
     7
370
    25
100
AcDbLine
 10
74.3502696629
 20
167.9498651685
 30
0.0
 11
74.3502696629
 21
165.4498651685
 31
0.0
  0
LINE
  5
19A
330
1F
100
AcDbEntity
  8
0
  6
Continuous
 62
     7
370
    25
100
AcDbLine
 10
47.9752696629
 20
164.1998651685
 30
0.0
 11
47.9752696629
 21
168.1998651685
 31
0.0
  0
LINE
  5
19B
330
1F
100
AcDbEntity
  8
0
  6
Continuous
 62
     7
370
    25
100
AcDbLine
 10
76.8502696629
 20
167.9498651685
 30
0.0
 11
76.8502696629
 21
165.4498651685
 31
0.0
  0
LINE
  5
19C
330
1F
100
AcDbEntity
  8
0
  6
Continuous
 62
     7
370
    25
100
AcDbLine
 10
89.4752696629
 20
167.9498651685
 30
0.0
 11
86.9752696629
 21
167.9498651685
 31
0.0
  0
LINE
  5
19D
330
1F
100
AcDbEntity
  8
0
  6
Continuous
 62
     7
370
    25
100
AcDbLine
 10
86.9752696629
 20
167.9498651685
 30
0.0
 11
86.9752696629
 21
165.4498651685
 31
0.0
  0
LINE
  5
19E
330
1F
100
AcDbEntity
  8
0
  6
Continuous
 62
     7
370
    25
100
AcDbLine
 10
52.2252696629
 20
167.9498651685
 30
0.0
 11
49.7252696629
 21
167.9498651685
 31
0.0
  0
LINE
  5
19F
330
1F
100
AcDbEntity
  8
0
  6
Continuous
 62
     7
370
    25
100
AcDbLine
 10
89.4752696629
 20
167.9498651685
 30
0.0
 11
89.4752696629
 21
165.4498651685
 31
0.0
  0
LINE
  5
1A0
330
1F
100
AcDbEntity
  8
0
  6
Continuous
 62
     7
370
    25
100
AcDbLine
 10
52.2252696629
 20
167.9498651685
 30
0.0
 11
52.2252696629
 21
165.4498651685
 31
0.0
  0
LINE
  5
1A1
330
1F
100
AcDbEntity
  8
0
  6
Continuous
 62
     7
370
    25
100
AcDbLine
 10
50.3502696629
 20
167.9498651685
 30
0.0
 11
50.3502696629
 21
165.4498651685
 31
0.0
  0
LINE
  5
1A2
330
1F
100
AcDbEntity
  8
0
  6
Continuous
 62
     7
370
    25
100
AcDbLine
 10
50.3502696629
 20
165.4498651685
 30
0.0
 11
49.7252696629
 21
165.4498651685
 31
0.0
  0
LINE
  5
1A3
330
1F
100
AcDbEntity
  8
0
  6
Continuous
 62
     7
370
    25
100
AcDbLine
 10
88.8502696629
 20
165.4498651685
 30
0.0
 11
88.8502696629
 21
167.9498651685
 31
0.0
  0
LINE
  5
1A4
330
1F
100
AcDbEntity
  8
0
  6
Continuous
 62
     7
370
    25
100
AcDbLine
 10
89.4752696629
 20
165.4498651685
 30
0.0
 11
88.8502696629
 21
165.4498651685
 31
0.0
  0
LINE
  5
1A5
330
1F
100
AcDbEntity
  8
0
  6
Continuous
 62
     7
370
    25
100
AcDbLine
 10
51.6002696629
 20
165.4498651685
 30
0.0
 11
51.6002696629
 21
167.9498651685
 31
0.0
  0
LINE
  5
1A6
330
1F
100
AcDbEntity
  8
0
  6
Continuous
 62
     7
370
    25
100
AcDbLine
 10
52.2252696629
 20
165.4498651685
 30
0.0
 11
51.6002696629
 21
165.4498651685
 31
0.0
  0
LINE
  5
1A7
330
1F
100
AcDbEntity
  8
0
  6
Continuous
 62
     7
370
    25
100
AcDbLine
 10
64.2252696629
 20
165.4498651685
 30
0.0
 11
64.2252696629
 21
167.9498651685
 31
0.0
  0
LINE
  5
1A8
330
1F
100
AcDbEntity
  8
0
  6
Continuous
 62
     7
370
    25
100
AcDbLine
 10
64.8502696629
 20
165.4498651685
 30
0.0
 11
64.2252696629
 21
165.4498651685
 31
0.0
  0
LINE
  5
1A9
330
1F
100
AcDbEntity
  8
0
  6
Continuous
 62
     7
370
    25
100
AcDbLine
 10
87.6002696629
 20
167.9498651685
 30
0.0
 11
87.6002696629
 21
165.4498651685
 31
0.0
  0
LINE
  5
1AA
330
1F
100
AcDbEntity
  8
0
  6
Continuous
 62
     7
370
    25
100
AcDbLine
 10
87.6002696629
 20
165.4498651685
 30
0.0
 11
86.9752696629
 21
165.4498651685
 31
0.0
  0
LINE
  5
1AB
330
1F
100
AcDbEntity
  8
0
  6
Continuous
 62
     7
370
    25
100
AcDbLine
 10
62.9752696629
 20
167.9498651685
 30
0.0
 11
62.9752696629
 21
165.4498651685
 31
0.0
  0
LINE
  5
1AC
330
1F
100
AcDbEntity
  8
0
  6
Continuous
 62
     7
370
    25
100
AcDbLine
 10
62.9752696629
 20
165.4498651685
 30
0.0
 11
62.3502696629
 21
165.4498651685
 31
0.0
  0
LINE
  5
1AD
330
1F
100
AcDbEntity
  8
0
  6
Continuous
 62
     7
370
    25
100
AcDbLine
 10
76.2252696629
 20
165.4498651685
 30
0.0
 11
76.2252696629
 21
167.9498651685
 31
0.0
  0
LINE
  5
1AE
330
1F
100
AcDbEntity
  8
0
  6
Continuous
 62
     7
370
    25
100
AcDbLine
 10
76.8502696629
 20
165.4498651685
 30
0.0
 11
76.2252696629
 21
165.4498651685
 31
0.0
  0
LINE
  5
1AF
330
1F
100
AcDbEntity
  8
0
  6
Continuous
 62
     7
370
    25
100
AcDbLine
 10
74.9752696629
 20
167.9498651685
 30
0.0
 11
74.9752696629
 21
165.4498651685
 31
0.0
  0
LINE
  5
1B0
330
1F
100
AcDbEntity
  8
0
  6
Continuous
 62
     7
370
    25
100
AcDbLine
 10
74.9752696629
 20
165.4498651685
 30
0.0
 11
74.3502696629
 21
165.4498651685
 31
0.0
  0
LINE
  5
1B1
330
1F
100
AcDbEntity
  8
0
  6
Continuous
 62
     7
370
    25
100
AcDbLine
 10
50.3502696629
 20
165.4498651685
 30
0.0
 11
51.6002696629
 21
165.4498651685
 31
0.0
  0
LINE
  5
1B2
330
1F
100
AcDbEntity
  8
0
  6
Continuous
 62
     7
370
    25
100
AcDbLine
 10
87.6002696629
 20
165.4498651685
 30
0.0
 11
88.8502696629
 21
165.4498651685
 31
0.0
  0
LINE
  5
1B3
330
1F
100
AcDbEntity
  8
0
  6
Continuous
 62
     7
370
    25
100
AcDbLine
 10
62.9752696629
 20
165.4498651685
 30
0.0
 11
64.2252696629
 21
165.4498651685
 31
0.0
  0
LINE
  5
1B4
330
1F
100
AcDbEntity
  8
0
  6
Continuous
 62
     7
370
    25
100
AcDbLine
 10
74.9752696629
 20
165.4498651685
 30
0.0
 11
76.2252696629
 21
165.4498651685
 31
0.0
  0
DIMENSION
  5
1B5
330
1F
100
AcDbEntity
  8
0
  6
Continuous
 62
     7
370
    18
100
AcDbDimension
  2
_D_13
 10
51.6002696629
 20
173.4062079316
 30
0.0
 11
52.8290813306
 21
173.4062079316
 31
0.0
 70
   160
  1
<>
 71
     2
 42
-1.0
  3
SLDDIMSTYLE1
100
AcDbAlignedDimension
 13
50.3502696629
 23
167.9498651685
 33
0.0
 14
51.6002696629
 24
167.9498651685
 34
0.0
100
AcDbRotatedDimension
  0
DIMENSION
  5
1C1
330
1F
100
AcDbEntity
  8
0
  6
Continuous
 62
     7
370
    18
100
AcDbDimension
  2
_D_14
 10
52.2252696629
 20
158.0427286098
 30
0.0
 11
52.8290813306
 21
158.0427286098
 31
0.0
 70
   160
  1
<>
 71
     2
 42
-1.0
  3
SLDDIMSTYLE1
100
AcDbAlignedDimension
 13
49.7252696629
 23
165.4498651685
 33
0.0
 14
52.2252696629
 24
165.4498651685
 34
0.0
100
AcDbRotatedDimension
  0
DIMENSION
  5
1CD
330
1F
100
AcDbEntity
  8
0
  6
Continuous
 62
     7
370
    18
100
AcDbDimension
  2
_D_15
 10
47.9752696629
 20
160.2446604996
 30
0.0
 11
41.5692023488
 21
160.2446604996
 31
0.0
 70
   160
  1
<>
 71
     2
 42
-1.0
  3
SLDDIMSTYLE1
100
AcDbAlignedDimension
 13
48.7252696629
 23
164.1998651685
 33
0.0
 14
47.9752696629
 24
164.1998651685
 34
0.0
100
AcDbRotatedDimension
  0
DIMENSION
  5
1D9
330
1F
100
AcDbEntity
  8
0
  6
Continuous
 62
     7
370
    18
100
AcDbDimension
  2
_D_16
 10
28.50774273
 20
168.1998651685
 30
0.0
 11
28.50774273
 21
167.5010269545
 31
0.0
 70
   160
  1
<>
 71
     2
 42
-1.0
  3
SLDDIMSTYLE1
100
AcDbAlignedDimension
 13
47.9752696629
 23
164.1998651685
 33
0.0
 14
47.9752696629
 24
168.1998651685
 34
0.0
 50
90.0
100
AcDbRotatedDimension
  0
LINE
  5
1E5
330
1F
100
AcDbEntity
  8
0
  6
Continuous
 62
     7
370
    25
100
AcDbLine
 10
144.6265475557
 20
154.8866985303
 30
0.0
 11
145.6872077274
 21
154.2743924464
 31
0.0
  0
LINE
  5
1E6
330
1F
100
AcDbEntity
  8
0
  6
Continuous
 62
     7
370
    25
100
AcDbLine
 10
136.1412661814
 20
149.9882498593
 30
0.0
 11
137.2019263532
 21
149.3759437754
 31
0.0
  0
LINE
  5
1E7
330
1F
100
AcDbEntity
  8
0
  6
Continuous
 62
     7
370
    25
100
AcDbLine
 10
152.3046554046
 20
177.3723003188
 30
0.0
 11
151.2439952328
 21
177.9846064027
 31
0.0
  0
LINE
  5
1E8
330
1F
100
AcDbEntity
  8
0
  6
Continuous
 62
     7
370
    25
100
AcDbLine
 10
143.8193740303
 20
172.4738516479
 30
0.0
 11
142.7587138586
 21
173.0861577318
 31
0.0
  0
LINE
  5
1E9
330
1F
100
AcDbEntity
  8
0
  6
Continuous
 62
     7
370
    25
100
AcDbLine
 10
135.3340926561
 20
167.575402977
 30
0.0
 11
134.2734324843
 21
168.1877090608
 31
0.0
  0
LINE
  5
1EA
330
1F
100
AcDbEntity
  8
0
  6
Continuous
 62
     7
370
    25
100
AcDbLine
 10
125.3962427439
 20
139.1345181012
 30
0.0
 11
128.2246698687
 21
137.5017018776
 31
0.0
  0
LINE
  5
1EB
330
1F
100
AcDbEntity
  8
0
  6
Continuous
 62
     7
370
    25
100
AcDbLine
 10
125.3962427439
 20
139.1345181012
 30
0.0
 11
125.9265728298
 21
139.4406711432
 31
0.0
  0
LINE
  5
1EC
330
1F
100
AcDbEntity
  8
0
  6
Continuous
 62
     7
370
    25
100
AcDbLine
 10
125.9265728298
 20
139.4406711432
 30
0.0
 11
126.8104563063
 21
138.9304160733
 31
0.0
  0
LINE
  5
1ED
330
1F
100
AcDbEntity
  8
0
  6
Continuous
 62
     7
370
    25
100
AcDbLine
 10
126.8104563063
 20
138.9304160733
 30
0.0
 11
130.5227669075
 21
141.0734873668
 31
0.0
  0
LINE
  5
1EE
330
1F
100
AcDbEntity
  8
0
  6
Continuous
 62
     7
370
    25
100
AcDbLine
 10
130.5227669075
 20
141.0734873668
 30
0.0
 11
131.5834270793
 21
140.4611812829
 31
0.0
  0
LINE
  5
1EF
330
1F
100
AcDbEntity
  8
0
  6
Continuous
 62
     7
370
    25
100
AcDbLine
 10
131.5834270793
 20
140.4611812829
 30
0.0
 11
132.4673105558
 21
140.9714363528
 31
0.0
  0
LINE
  5
1F0
330
1F
100
AcDbEntity
  8
0
  6
Continuous
 62
     7
370
    25
100
AcDbLine
 10
131.406650384
 20
141.5837424367
 30
0.0
 11
132.4673105558
 21
140.9714363528
 31
0.0
  0
LINE
  5
1F1
330
1F
100
AcDbEntity
  8
0
  6
Continuous
 62
     7
370
    25
100
AcDbLine
 10
131.406650384
 20
141.5837424367
 30
0.0
 11
151.7359703431
 21
153.3196090441
 31
0.0
  0
LINE
  5
1F2
330
1F
100
AcDbEntity
  8
0
  6
Continuous
 62
     7
370
    25
100
AcDbLine
 10
151.7359703431
 20
153.3196090441
 30
0.0
 11
152.7966305149
 21
152.7073029603
 31
0.0
  0
LINE
  5
1F3
330
1F
100
AcDbEntity
  8
0
  6
Continuous
 62
     7
370
    25
100
AcDbLine
 10
152.7966305149
 20
152.7073029603
 30
0.0
 11
153.6805139914
 21
153.2175580302
 31
0.0
  0
LINE
  5
1F4
330
1F
100
AcDbEntity
  8
0
  6
Continuous
 62
     7
370
    25
100
AcDbLine
 10
152.6198538196
 20
153.829864114
 30
0.0
 11
153.6805139914
 21
153.2175580302
 31
0.0
  0
LINE
  5
1F5
330
1F
100
AcDbEntity
  8
0
  6
Continuous
 62
     7
370
    25
100
AcDbLine
 10
152.6198538196
 20
153.829864114
 30
0.0
 11
156.3321644208
 21
155.9729354076
 31
0.0
  0
LINE
  5
1F6
330
1F
100
AcDbEntity
  8
0
  6
Continuous
 62
     7
370
    25
100
AcDbLine
 10
155.4482809443
 20
156.4831904775
 30
0.0
 11
156.3321644208
 21
155.9729354076
 31
0.0
  0
LINE
  5
1F7
330
1F
100
AcDbEntity
  8
0
  6
Continuous
 62
     7
370
    25
100
AcDbLine
 10
155.4482809443
 20
156.4831904775
 30
0.0
 11
155.9786110302
 21
156.7893435194
 31
0.0
  0
LINE
  5
1F8
330
1F
100
AcDbEntity
  8
0
  6
Continuous
 62
     7
370
    25
100
AcDbLine
 10
155.9786110302
 20
156.7893435194
 30
0.0
 11
158.807038155
 21
155.1565272958
 31
0.0
  0
LINE
  5
1F9
330
1F
100
AcDbEntity
  8
0
  6
Continuous
 62
     7
370
    25
100
AcDbLine
 10
128.2246698687
 20
137.5017018776
 30
0.0
 11
158.807038155
 21
155.1565272958
 31
0.0
  0
LINE
  5
1FA
330
1F
100
AcDbEntity
  8
0
  6
Continuous
 62
     7
370
    25
100
AcDbLine
 10
155.9786110302
 20
156.7893435194
 30
0.0
 11
155.9786110302
 21
187.4096239651
 31
0.0
  0
LINE
  5
1FB
330
1F
100
AcDbEntity
  8
0
  6
Continuous
 62
     7
370
    25
100
AcDbLine
 10
155.9786110302
 20
187.4096239651
 30
0.0
 11
158.807038155
 21
185.7768077415
 31
0.0
  0
LINE
  5
1FC
330
1F
100
AcDbEntity
  8
0
  6
Continuous
 62
     7
370
    25
100
AcDbLine
 10
158.807038155
 20
185.7768077415
 30
0.0
 11
158.807038155
 21
155.1565272958
 31
0.0
  0
LINE
  5
1FD
330
1F
100
AcDbEntity
  8
0
  6
Continuous
 62
     7
370
    25
100
AcDbLine
 10
155.4482809443
 20
187.1034709232
 30
0.0
 11
155.4482809443
 21
156.4831904775
 31
0.0
  0
LINE
  5
1FE
330
1F
100
AcDbEntity
  8
0
  6
Continuous
 62
     7
370
    25
100
AcDbLine
 10
155.9786110302
 20
187.4096239651
 30
0.0
 11
155.4482809443
 21
187.1034709232
 31
0.0
  0
LINE
  5
1FF
330
1F
100
AcDbEntity
  8
0
  6
Continuous
 62
     7
370
    25
100
AcDbLine
 10
130.5227669075
 20
164.65110331
 30
0.0
 11
130.5227669075
 21
141.0734873668
 31
0.0
  0
LINE
  5
200
330
1F
100
AcDbEntity
  8
0
  6
Continuous
 62
     7
370
    25
100
AcDbLine
 10
126.8104563063
 20
138.9304160733
 30
0.0
 11
126.8104563063
 21
169.550696519
 31
0.0
  0
LINE
  5
201
330
1F
100
AcDbEntity
  8
0
  6
Continuous
 62
     7
370
    25
100
AcDbLine
 10
126.8104563063
 20
169.550696519
 30
0.0
 11
127.5175630875
 21
169.9589005749
 31
0.0
  0
LINE
  5
202
330
1F
100
AcDbEntity
  8
0
  6
Continuous
 62
     7
370
    25
100
AcDbLine
 10
127.5175630875
 20
169.9589005749
 30
0.0
 11
127.5175630875
 21
149.0350422703
 31
0.0
  0
ARC
  5
203
330
1F
100
AcDbEntity
  8
0
  6
Continuous
 62
     7
370
    25
100
AcDbCircle
 10
127.7869845671
 20
148.9913377723
 30
0.0
 40
0.2729432483928008
100
AcDbArc
 50
170.7859630095
 51
309.2032852357
  0
LINE
  5
204
330
1F
100
AcDbEntity
  8
0
  6
Continuous
 62
     7
370
    25
100
AcDbLine
 10
127.9595048257
 20
148.7798317978
 30
0.0
 11
128.8433883022
 21
149.2900868677
 31
0.0
  0
ARC
  5
205
330
1F
100
AcDbEntity
  8
0
  6
Continuous
 62
     7
370
    25
100
AcDbCircle
 10
128.3258199771
 20
150.0992154428
 30
0.0
 40
0.9605030047326223
100
AcDbArc
 50
302.60547834
 51
357.3945215143
  0
LINE
  5
206
330
1F
100
AcDbEntity
  8
0
  6
Continuous
 62
     7
370
    25
100
AcDbLine
 10
129.2853300404
 20
170.9794107147
 30
0.0
 11
129.2853300404
 21
150.0555524101
 31
0.0
  0
LINE
  5
207
330
1F
100
AcDbEntity
  8
0
  6
Continuous
 62
     7
370
    25
100
AcDbLine
 10
129.2853300404
 20
170.9794107147
 30
0.0
 11
136.4447861999
 21
175.1124767808
 31
0.0
  0
LINE
  5
208
330
1F
100
AcDbEntity
  8
0
  6
Continuous
 62
     7
370
    25
100
AcDbLine
 10
136.4447861999
 20
175.1124767808
 30
0.0
 11
136.4447861999
 21
154.1886184762
 31
0.0
  0
ARC
  5
209
330
1F
100
AcDbEntity
  8
0
  6
Continuous
 62
     7
370
    25
100
AcDbCircle
 10
136.7142076796
 20
154.1449139781
 30
0.0
 40
0.2729432483928179
100
AcDbArc
 50
170.7859630095
 51
309.2032852357
  0
LINE
  5
20A
330
1F
100
AcDbEntity
  8
0
  6
Continuous
 62
     7
370
    25
100
AcDbLine
 10
136.8867279382
 20
153.9334080037
 30
0.0
 11
137.7706114147
 21
154.4436630736
 31
0.0
  0
ARC
  5
20B
330
1F
100
AcDbEntity
  8
0
  6
Continuous
 62
     7
370
    25
100
AcDbCircle
 10
137.2530430896
 20
155.2527916487
 30
0.0
 40
0.9605030047325925
100
AcDbArc
 50
302.60547834
 51
357.3945215143
  0
LINE
  5
20C
330
1F
100
AcDbEntity
  8
0
  6
Continuous
 62
     7
370
    25
100
AcDbLine
 10
138.2125531529
 20
176.1329869206
 30
0.0
 11
138.2125531529
 21
155.209128616
 31
0.0
  0
LINE
  5
20D
330
1F
100
AcDbEntity
  8
0
  6
Continuous
 62
     7
370
    25
100
AcDbLine
 10
138.2125531529
 20
176.1329869206
 30
0.0
 11
144.9300675742
 21
180.0109254517
 31
0.0
  0
LINE
  5
20E
330
1F
100
AcDbEntity
  8
0
  6
Continuous
 62
     7
370
    25
100
AcDbLine
 10
144.9300675742
 20
180.0109254517
 30
0.0
 11
144.9300675742
 21
159.0870671471
 31
0.0
  0
ARC
  5
20F
330
1F
100
AcDbEntity
  8
0
  6
Continuous
 62
     7
370
    25
100
AcDbCircle
 10
145.1994890538
 20
159.0433626491
 30
0.0
 40
0.2729432483928056
100
AcDbArc
 50
170.7859630095
 51
309.2032852357
  0
LINE
  5
210
330
1F
100
AcDbEntity
  8
0
  6
Continuous
 62
     7
370
    25
100
AcDbLine
 10
145.3720093124
 20
158.8318566747
 30
0.0
 11
146.2558927889
 21
159.3421117446
 31
0.0
  0
ARC
  5
211
330
1F
100
AcDbEntity
  8
0
  6
Continuous
 62
     7
370
    25
100
AcDbCircle
 10
145.7383244638
 20
160.1512403196
 30
0.0
 40
0.9605030047325367
100
AcDbArc
 50
302.60547834
 51
357.3945215143
  0
LINE
  5
212
330
1F
100
AcDbEntity
  8
0
  6
Continuous
 62
     7
370
    25
100
AcDbLine
 10
146.6978345272
 20
181.0314355915
 30
0.0
 11
146.6978345272
 21
160.1075772869
 31
0.0
  0
LINE
  5
213
330
1F
100
AcDbEntity
  8
0
  6
Continuous
 62
     7
370
    25
100
AcDbLine
 10
146.6978345272
 20
181.0314355915
 30
0.0
 11
153.8572906867
 21
185.1645016576
 31
0.0
  0
LINE
  5
214
330
1F
100
AcDbEntity
  8
0
  6
Continuous
 62
     7
370
    25
100
AcDbLine
 10
153.8572906867
 20
185.1645016576
 30
0.0
 11
153.8572906867
 21
164.240643353
 31
0.0
  0
ARC
  5
215
330
1F
100
AcDbEntity
  8
0
  6
Continuous
 62
     7
370
    25
100
AcDbCircle
 10
154.1267121663
 20
164.196938855
 30
0.0
 40
0.2729432483927918
100
AcDbArc
 50
170.7859630095
 51
309.2032852357
  0
LINE
  5
216
330
1F
100
AcDbEntity
  8
0
  6
Continuous
 62
     7
370
    25
100
AcDbLine
 10
154.2992324249
 20
163.9854328805
 30
0.0
 11
155.1831159014
 21
164.4956879504
 31
0.0
  0
ARC
  5
217
330
1F
100
AcDbEntity
  8
0
  6
Continuous
 62
     7
370
    25
100
AcDbCircle
 10
154.7231817766
 20
165.2390480629
 30
0.0
 40
0.8741416681385668
100
AcDbArc
 50
301.7460387699
 51
326.0472521642
  0
LINE
  5
218
330
1F
100
AcDbEntity
  8
0
  6
Continuous
 62
     7
370
    25
100
AcDbLine
 10
152.6198538196
 20
153.829864114
 30
0.0
 11
152.6198538196
 21
177.4074800572
 31
0.0
  0
LWPOLYLINE
  5
219
330
1F
100
AcDbEntity
  8
0
  6
Continuous
 62
     7
370
    25
100
AcDbPolyline
 90
       25
 70
   128
 43
0.0
 10
152.6198538196
 20
177.4074800572
 10
152.5979247571
 20
177.7811730447
 10
152.5325127821
 20
178.123153285
 10
152.4247371116
 20
178.4275694013
 10
152.2764418172
 20
178.6892127496
 10
152.0901642724
 20
178.9036065396
 10
151.8690917378
 20
179.0670824341
 10
151.6170068256
 20
179.1768433152
 10
151.3382227787
 20
179.2310111438
 10
151.0375096693
 20
179.2286590934
 10
150.7200127821
 20
179.1698274082
 10
150.391164577
 20
179.0555227146
 10
150.0565917378
 20
178.8877007976
 10
149.7220188986
 20
178.6692331369
 10
149.3931706934
 20
178.4038577745
 10
149.0756738063
 20
178.0961153565
 10
148.7749606969
 20
177.7512714411
 10
148.4961766499
 20
177.3752264032
 10
148.2440917378
 20
176.9744144778
 10
148.0230192031
 20
176.5556936678
 10
147.8367416584
 20
176.1262284026
 10
147.6884463639
 20
175.6933669518
 10
147.5806706934
 20
175.264515695
 10
147.5152587184
 20
174.8470123959
 10
147.493329656
 20
174.4480006519
  0
LINE
  5
21A
330
1F
100
AcDbEntity
  8
0
  6
Continuous
 62
     7
370
    25
100
AcDbLine
 10
147.493329656
 20
157.9130492112
 30
0.0
 11
147.493329656
 21
174.4480006519
 31
0.0
  0
LWPOLYLINE
  5
21B
330
1F
100
AcDbEntity
  8
0
  6
Continuous
 62
     7
370
    25
100
AcDbPolyline
 90
       21
 70
   128
 43
0.0
 10
144.1345724453
 20
155.9740799456
 10
144.1552483827
 20
155.6826449881
 10
144.2167670848
 20
155.4222580557
 10
144.3176137567
 20
155.1993307388
 10
144.455305219
 20
155.0193522478
 10
144.6264510507
 20
154.8867542505
 10
144.8268370734
 20
154.8048017496
 10
145.0515291184
 20
154.7755126877
 10
145.2949945216
 20
154.7996082587
 10
145.5512383569
 20
154.8764951497
 10
145.8139510507
 20
155.0042801502
 10
146.0766637444
 20
155.1798167694
 10
146.3329075797
 20
155.3987827133
 10
146.5763729829
 20
155.6557863135
 10
146.8010650279
 20
155.9444992885
 10
147.0014510507
 20
156.2578125667
 10
147.1725968824
 20
156.5880113352
 10
147.3102883446
 20
156.9269650046
 10
147.4111350166
 20
157.2663274106
 10
147.4726537186
 20
157.5977423245
 10
147.493329656
 20
157.9130492112
  0
LINE
  5
21C
330
1F
100
AcDbEntity
  8
0
  6
Continuous
 62
     7
370
    25
100
AcDbLine
 10
144.1345724453
 20
155.9740799456
 30
0.0
 11
144.1345724453
 21
172.5090313863
 31
0.0
  0
LWPOLYLINE
  5
21D
330
1F
100
AcDbEntity
  8
0
  6
Continuous
 62
     7
370
    25
100
AcDbPolyline
 90
       25
 70
   128
 43
0.0
 10
144.1345724453
 20
172.5090313863
 10
144.1126433829
 20
172.8827243738
 10
144.0472314079
 20
173.224704614
 10
143.9394557374
 20
173.5291207304
 10
143.7911604429
 20
173.7907640787
 10
143.6048828982
 20
174.0051578686
 10
143.3838103635
 20
174.1686337631
 10
143.1317254514
 20
174.2783946442
 10
142.8529414044
 20
174.3325624729
 10
142.5522282951
 20
174.3302104225
 10
142.2347314079
 20
174.2713787372
 10
141.9058832027
 20
174.1570740437
 10
141.5713103635
 20
173.9892521267
 10
141.2367375243
 20
173.7707844659
 10
140.9078893192
 20
173.5054091035
 10
140.590392432
 20
173.1976666856
 10
140.2896793226
 20
172.8528227702
 10
140.0108952757
 20
172.4767777323
 10
139.7588103635
 20
172.0759658068
 10
139.5377378289
 20
171.6572449969
 10
139.3514602842
 20
171.2277797317
 10
139.2031649897
 20
170.7949182809
 10
139.0953893192
 20
170.366067024
 10
139.0299773442
 20
169.948563725
 10
139.0080482817
 20
169.5495519809
  0
LINE
  5
21E
330
1F
100
AcDbEntity
  8
0
  6
Continuous
 62
     7
370
    25
100
AcDbLine
 10
139.0080482817
 20
153.0146005403
 30
0.0
 11
139.0080482817
 21
169.5495519809
 31
0.0
  0
LWPOLYLINE
  5
21F
330
1F
100
AcDbEntity
  8
0
  6
Continuous
 62
     7
370
    25
100
AcDbPolyline
 90
       21
 70
   128
 43
0.0
 10
135.6492910711
 20
151.0756312747
 10
135.6699670085
 20
150.7841963172
 10
135.7314857105
 20
150.5238093848
 10
135.8323323825
 20
150.3008820678
 10
135.9700238447
 20
150.1209035768
 10
136.1411696764
 20
149.9883055795
 10
136.3415556992
 20
149.9063530786
 10
136.5662477441
 20
149.8770640167
 10
136.8097131474
 20
149.9011595877
 10
137.0659569827
 20
149.9780464787
 10
137.3286696764
 20
150.1058314792
 10
137.5913823702
 20
150.2813680985
 10
137.8476262055
 20
150.5003340424
 10
138.0910916087
 20
150.7573376426
 10
138.3157836537
 20
151.0460506176
 10
138.5161696764
 20
151.3593638957
 10
138.6873155081
 20
151.6895626643
 10
138.8250069703
 20
152.0285163337
 10
138.9258536423
 20
152.3678787397
 10
138.9873723443
 20
152.6992936536
 10
139.0080482817
 20
153.0146005403
  0
LINE
  5
220
330
1F
100
AcDbEntity
  8
0
  6
Continuous
 62
     7
370
    25
100
AcDbLine
 10
135.6492910711
 20
151.0756312747
 30
0.0
 11
135.6492910711
 21
167.6105827154
 31
0.0
  0
LWPOLYLINE
  5
221
330
1F
100
AcDbEntity
  8
0
  6
Continuous
 62
     7
370
    25
100
AcDbPolyline
 90
       25
 70
   128
 43
0.0
 10
135.6492910711
 20
167.6105827154
 10
135.6273620087
 20
167.9842757028
 10
135.5619500337
 20
168.3262559431
 10
135.4541743631
 20
168.6306720595
 10
135.3058790687
 20
168.8923154077
 10
135.1196015239
 20
169.1067091977
 10
134.8985289893
 20
169.2701850922
 10
134.6464440772
 20
169.3799459733
 10
134.3676600302
 20
169.4341138019
 10
134.0669469208
 20
169.4317617515
 10
133.7494500337
 20
169.3729300663
 10
133.4206018285
 20
169.2586253727
 10
133.0860289893
 20
169.0908034558
 10
132.7514561501
 20
168.872335795
 10
132.422607945
 20
168.6069604326
 10
132.1051110578
 20
168.2992180147
 10
131.8043979484
 20
167.9543740993
 10
131.5256139015
 20
167.5783290614
 10
131.2735289893
 20
167.1775171359
 10
131.0524564547
 20
166.7587963259
 10
130.8661789099
 20
166.3293310607
 10
130.7178836155
 20
165.89646961
 10
130.610107945
 20
165.4676183531
 10
130.54469597
 20
165.0501150541
 10
130.5227669075
 20
164.65110331
  0
LWPOLYLINE
  5
222
330
1F
100
AcDbEntity
  8
0
  6
Continuous
 62
     7
370
    25
100
AcDbPolyline
 90
       25
 70
   128
 43
0.0
 10
134.7654075946
 20
150.5653762048
 10
134.7873366571
 20
150.1916832173
 10
134.8527486321
 20
149.849702977
 10
134.9605243026
 20
149.5452868607
 10
135.108819597
 20
149.2836435124
 10
135.2950971418
 20
149.0692497224
 10
135.5161696764
 20
148.905773828
 10
135.7682545886
 20
148.7960129469
 10
136.0470386355
 20
148.7418451182
 10
136.3477517449
 20
148.7441971686
 10
136.6652486321
 20
148.8030288539
 10
136.9940968372
 20
148.9173335474
 10
137.3286696764
 20
149.0851554644
 10
137.6632425156
 20
149.3036231252
 10
137.9920907208
 20
149.5689984875
 10
138.3095876079
 20
149.8767409055
 10
138.6103007173
 20
150.2215848209
 10
138.8890847643
 20
150.5976298588
 10
139.1411696764
 20
150.9984417843
 10
139.3622422111
 20
151.4171625942
 10
139.5485197558
 20
151.8466278594
 10
139.6968150503
 20
152.2794893102
 10
139.8045907208
 20
152.7083405671
 10
139.8700026958
 20
153.1258438661
 10
139.8919317582
 20
153.5248556101
  0
LINE
  5
223
330
1F
100
AcDbEntity
  8
0
  6
Continuous
 62
     7
370
    25
100
AcDbLine
 10
139.8919317582
 20
153.5248556101
 30
0.0
 11
139.8919317582
 21
170.0598070508
 31
0.0
  0
LWPOLYLINE
  5
224
330
1F
100
AcDbEntity
  8
0
  6
Continuous
 62
     7
370
    25
100
AcDbPolyline
 90
       21
 70
   128
 43
0.0
 10
143.2506889689
 20
171.9987763164
 10
143.2300130315
 20
172.2902112739
 10
143.1684943295
 20
172.5505982063
 10
143.0676476575
 20
172.7735255232
 10
142.9299561952
 20
172.9535040143
 10
142.7588103635
 20
173.0861020116
 10
142.5584243408
 20
173.1680545125
 10
142.3337322958
 20
173.1973435744
 10
142.0902668926
 20
173.1732480034
 10
141.8340230573
 20
173.0963611124
 10
141.5713103635
 20
172.9685761119
 10
141.3085976698
 20
172.7930394926
 10
141.0523538345
 20
172.5740735487
 10
140.8088884313
 20
172.3170699485
 10
140.5841963863
 20
172.0283569735
 10
140.3838103635
 20
171.7150436954
 10
140.2126645319
 20
171.3848449268
 10
140.0749730696
 20
171.0458912574
 10
139.9741263976
 20
170.7065288514
 10
139.9126076956
 20
170.3751139375
 10
139.8919317582
 20
170.0598070508
  0
LINE
  5
225
330
1F
100
AcDbEntity
  8
0
  6
Continuous
 62
     7
370
    25
100
AcDbLine
 10
143.2506889689
 20
171.9987763164
 30
0.0
 11
143.2506889689
 21
155.4638248757
 31
0.0
  0
LWPOLYLINE
  5
226
330
1F
100
AcDbEntity
  8
0
  6
Continuous
 62
     7
370
    25
100
AcDbPolyline
 90
       25
 70
   128
 43
0.0
 10
143.2506889689
 20
155.4638248757
 10
143.2726180313
 20
155.0901318883
 10
143.3380300063
 20
154.748151648
 10
143.4458056768
 20
154.4437355316
 10
143.5941009713
 20
154.1820921834
 10
143.780378516
 20
153.9676983934
 10
144.0014510507
 20
153.8042224989
 10
144.2535359628
 20
153.6944616178
 10
144.5323200098
 20
153.6402937892
 10
144.8330331192
 20
153.6426458396
 10
145.1505300063
 20
153.7014775248
 10
145.4793782115
 20
153.8157822184
 10
145.8139510507
 20
153.9836041353
 10
146.1485238899
 20
154.2020717961
 10
146.477372095
 20
154.4674471585
 10
146.7948689822
 20
154.7751895764
 10
147.0955820916
 20
155.1200334918
 10
147.3743661385
 20
155.4960785297
 10
147.6264510507
 20
155.8968904552
 10
147.8475235853
 20
156.3156112651
 10
148.0338011301
 20
156.7450765304
 10
148.1820964245
 20
157.1779379811
 10
148.289872095
 20
157.606789238
 10
148.35528407
 20
158.024292537
 10
148.3772131325
 20
158.4233042811
  0
LINE
  5
227
330
1F
100
AcDbEntity
  8
0
  6
Continuous
 62
     7
370
    25
100
AcDbLine
 10
148.3772131325
 20
158.4233042811
 30
0.0
 11
148.3772131325
 21
174.9582557218
 31
0.0
  0
LWPOLYLINE
  5
228
330
1F
100
AcDbEntity
  8
0
  6
Continuous
 62
     7
370
    25
100
AcDbPolyline
 90
       21
 70
   128
 43
0.0
 10
151.7359703431
 20
176.8972249874
 10
151.7152944057
 20
177.1886599448
 10
151.6537757037
 20
177.4490468773
 10
151.5529290317
 20
177.6719741942
 10
151.4152375695
 20
177.8519526852
 10
151.2440917378
 20
177.9845506825
 10
151.043705715
 20
178.0665031834
 10
150.8190136701
 20
178.0957922453
 10
150.5755482668
 20
178.0716966743
 10
150.3193044315
 20
177.9948097833
 10
150.0565917378
 20
177.8670247828
 10
149.7938790441
 20
177.6914881635
 10
149.5376352088
 20
177.4725222197
 10
149.2941698055
 20
177.2155186194
 10
149.0694777606
 20
176.9268056444
 10
148.8690917378
 20
176.6134923663
 10
148.6979459061
 20
176.2832935978
 10
148.5602544439
 20
175.9443399284
 10
148.4594077719
 20
175.6049775223
 10
148.3978890699
 20
175.2735626085
 10
148.3772131325
 20
174.9582557218
  0
LINE
  5
229
330
1F
100
AcDbEntity
  8
0
  6
Continuous
 62
     7
370
    25
100
AcDbLine
 10
151.7359703431
 20
176.8972249874
 30
0.0
 11
151.7359703431
 21
153.3196090441
 31
0.0
  0
LINE
  5
22A
330
1F
100
AcDbEntity
  8
0
  6
Continuous
 62
     7
370
    25
100
AcDbLine
 10
131.406650384
 20
165.1613583799
 30
0.0
 11
131.406650384
 21
141.5837424367
 31
0.0
  0
LWPOLYLINE
  5
22B
330
1F
100
AcDbEntity
  8
0
  6
Continuous
 62
     7
370
    25
100
AcDbPolyline
 90
       21
 70
   128
 43
0.0
 10
134.7654075946
 20
167.1003276455
 10
134.7447316572
 20
167.391762603
 10
134.6832129552
 20
167.6521495354
 10
134.5823662832
 20
167.8750768523
 10
134.444674821
 20
168.0550553433
 10
134.2735289893
 20
168.1876533406
 10
134.0731429665
 20
168.2696058415
 10
133.8484509216
 20
168.2988949034
 10
133.6049855183
 20
168.2747993324
 10
133.348741683
 20
168.1979124414
 10
133.0860289893
 20
168.0701274409
 10
132.8233162956
 20
167.8945908217
 10
132.5670724603
 20
167.6756248778
 10
132.323607057
 20
167.4186212776
 10
132.0989150121
 20
167.1299083026
 10
131.8985289893
 20
166.8165950244
 10
131.7273831576
 20
166.4863962559
 10
131.5896916954
 20
166.1474425865
 10
131.4888450234
 20
165.8080801805
 10
131.4273263214
 20
165.4766652666
 10
131.406650384
 20
165.1613583799
  0
LINE
  5
22C
330
1F
100
AcDbEntity
  8
0
  6
Continuous
 62
     7
370
    25
100
AcDbLine
 10
134.7654075946
 20
167.1003276455
 30
0.0
 11
134.7654075946
 21
150.5653762048
 31
0.0
  0
LINE
  5
22D
330
1F
100
AcDbEntity
  8
0
  6
Continuous
 62
     7
370
    25
100
AcDbLine
 10
152.7966305149
 20
152.7073029603
 30
0.0
 11
152.7966305149
 21
153.7278131001
 31
0.0
  0
LWPOLYLINE
  5
22E
330
1F
100
AcDbEntity
  8
0
  6
Continuous
 62
     7
370
    25
100
AcDbPolyline
 90
        3
 70
   128
 43
0.0
 10
137.2019263532
 20
149.3759437754
 10
137.402215871
 20
149.2940469948
 10
137.6095075443
 20
149.2650990065
  0
ARC
  5
22F
330
1F
100
AcDbEntity
  8
0
  6
Continuous
 62
     7
370
    25
100
AcDbCircle
 10
143.9002602963
 20
171.1934637294
 30
0.0
 40
2.532580505838453
100
AcDbArc
 50
91.4835744684
 51
127.7110425387
  0
LWPOLYLINE
  5
230
330
1F
100
AcDbEntity
  8
0
  6
Continuous
 62
     7
370
    25
100
AcDbPolyline
 90
        3
 70
   128
 43
0.0
 10
145.6872077274
 20
154.2743924464
 10
145.8874972452
 20
154.1924956657
 10
146.0947889186
 20
154.1635476774
  0
ARC
  5
231
330
1F
100
AcDbEntity
  8
0
  6
Continuous
 62
     7
370
    25
100
AcDbCircle
 10
152.3855416705
 20
176.0919124004
 30
0.0
 40
2.532580505830556
100
AcDbArc
 50
91.4835744684
 51
127.7110425383
  0
ARC
  5
232
330
1F
100
AcDbEntity
  8
0
  6
Continuous
 62
     7
370
    25
100
AcDbCircle
 10
151.8621932748
 20
176.625704636
 30
0.0
 40
0.8678581969383369
100
AcDbArc
 50
29.1880939314
 51
59.3473408555
  0
ARC
  5
233
330
1F
100
AcDbEntity
  8
0
  6
Continuous
 62
     7
370
    25
100
AcDbCircle
 10
146.5788041075
 20
154.7655732979
 30
0.0
 40
2.269083219019358
100
AcDbArc
 50
177.8293029374
 51
209.8740285233
  0
LINE
  5
234
330
1F
100
AcDbEntity
  8
0
  6
Continuous
 62
     7
370
    25
100
AcDbLine
 10
144.3113491406
 20
154.8515187919
 30
0.0
 11
144.3113491406
 21
155.2100586418
 31
0.0
  0
ARC
  5
235
330
1F
100
AcDbEntity
  8
0
  6
Continuous
 62
     7
370
    25
100
AcDbCircle
 10
143.376911901
 20
171.7272559654
 30
0.0
 40
0.8678581963739862
100
AcDbArc
 50
29.1880939213
 51
59.3473408656
  0
ARC
  5
236
330
1F
100
AcDbEntity
  8
0
  6
Continuous
 62
     7
370
    25
100
AcDbCircle
 10
138.0935227333
 20
149.8671246269
 30
0.0
 40
2.269083219019862
100
AcDbArc
 50
177.8293029374
 51
209.8740285233
  0
LINE
  5
237
330
1F
100
AcDbEntity
  8
0
  6
Continuous
 62
     7
370
    25
100
AcDbLine
 10
135.8260677664
 20
149.9530701209
 30
0.0
 11
135.8260677664
 21
150.3116099709
 31
0.0
  0
ARC
  5
238
330
1F
100
AcDbEntity
  8
0
  6
Continuous
 62
     7
370
    25
100
AcDbCircle
 10
134.8916305262
 20
166.828807294
 30
0.0
 40
0.8678581970633005
100
AcDbArc
 50
29.1880939336
 51
59.3473408533
  0
LINE
  5
239
330
1F
100
AcDbEntity
  8
0
  6
Continuous
 62
     7
370
    25
100
AcDbLine
 10
131.5834270793
 20
141.4816914227
 30
0.0
 11
131.5834270793
 21
140.4611812829
 31
0.0
  0
ARC
  5
23A
330
1F
100
AcDbEntity
  8
0
  6
Continuous
 62
     7
370
    25
100
AcDbCircle
 10
135.414978922
 20
166.2950150585
 30
0.0
 40
2.532580505838061
100
AcDbArc
 50
91.4835744685
 51
127.7110425387
  0
LINE
  5
23B
330
1F
100
AcDbEntity
  8
0
  6
Continuous
 62
     7
370
    25
100
AcDbLine
 10
155.4482809443
 20
184.2460425318
 30
0.0
 11
153.8572906867
 21
185.1645016576
 31
0.0
  0
LINE
  5
23C
330
1F
100
AcDbEntity
  8
0
  6
Continuous
 62
     7
370
    25
100
AcDbLine
 10
143.2506889689
 20
155.4638248757
 30
0.0
 11
144.3113491406
 21
154.8515187919
 31
0.0
  0
LINE
  5
23D
330
1F
100
AcDbEntity
  8
0
  6
Continuous
 62
     7
370
    25
100
AcDbLine
 10
146.6978345272
 20
178.9904153119
 30
0.0
 11
144.9300675742
 21
180.0109254517
 31
0.0
  0
LINE
  5
23E
330
1F
100
AcDbEntity
  8
0
  6
Continuous
 62
     7
370
    25
100
AcDbLine
 10
134.7654075946
 20
150.5653762048
 30
0.0
 11
135.8260677664
 21
149.9530701209
 31
0.0
  0
LINE
  5
23F
330
1F
100
AcDbEntity
  8
0
  6
Continuous
 62
     7
370
    25
100
AcDbLine
 10
138.2125531529
 20
174.091966641
 30
0.0
 11
136.4447861999
 21
175.1124767808
 31
0.0
  0
LINE
  5
240
330
1F
100
AcDbEntity
  8
0
  6
Continuous
 62
     7
370
    25
100
AcDbLine
 10
125.9265728298
 20
139.4406711432
 30
0.0
 11
125.9265728298
 21
170.0609515889
 31
0.0
  0
LINE
  5
241
330
1F
100
AcDbEntity
  8
0
  6
Continuous
 62
     7
370
    25
100
AcDbLine
 10
125.3962427439
 20
169.7547985469
 30
0.0
 11
125.3962427439
 21
139.1345181012
 31
0.0
  0
LINE
  5
242
330
1F
100
AcDbEntity
  8
0
  6
Continuous
 62
     7
370
    25
100
AcDbLine
 10
125.9265728298
 20
170.0609515889
 30
0.0
 11
125.3962427439
 21
169.7547985469
 31
0.0
  0
LINE
  5
243
330
1F
100
AcDbEntity
  8
0
  6
Continuous
 62
     7
370
    25
100
AcDbLine
 10
125.9265728298
 20
170.0609515889
 30
0.0
 11
126.8104563063
 21
169.550696519
 31
0.0
  0
LINE
  5
244
330
1F
100
AcDbEntity
  8
0
  6
Continuous
 62
     7
370
    25
100
AcDbLine
 10
129.2853300404
 20
168.9383904351
 30
0.0
 11
127.5175630875
 21
169.9589005749
 31
0.0
  0
LINE
  5
245
330
1F
100
AcDbEntity
  8
0
  6
Continuous
 62
     8
370
    25
100
AcDbLine
 10
152.6198538196
 20
176.3869699175
 30
0.0
 11
151.7359703431
 21
176.8972249874
 31
0.0
  0
LINE
  5
246
330
1F
100
AcDbEntity
  8
0
  6
Continuous
 62
     8
370
    25
100
AcDbLine
 10
153.8572906867
 20
164.240643353
 30
0.0
 11
154.2993042587
 21
163.9854743493
 31
0.0
  0
LINE
  5
247
330
1F
100
AcDbEntity
  8
0
  6
Continuous
 62
     8
370
    25
100
AcDbLine
 10
147.493329656
 20
157.9130492112
 30
0.0
 11
148.2599322396
 21
157.4704989596
 31
0.0
  0
LINE
  5
248
330
1F
100
AcDbEntity
  8
0
  6
Continuous
 62
     8
370
    25
100
AcDbLine
 10
148.3772131325
 20
173.937745582
 30
0.0
 11
147.493329656
 21
174.4480006519
 31
0.0
  0
LINE
  5
249
330
1F
100
AcDbEntity
  8
0
  6
Continuous
 62
     8
370
    25
100
AcDbLine
 10
144.9300675742
 20
159.0870671471
 30
0.0
 11
145.3720811462
 21
158.8318981434
 31
0.0
  0
LINE
  5
24A
330
1F
100
AcDbEntity
  8
0
  6
Continuous
 62
     8
370
    25
100
AcDbLine
 10
144.1345724453
 20
171.4885212465
 30
0.0
 11
143.2506889689
 21
171.9987763164
 31
0.0
  0
LINE
  5
24B
330
1F
100
AcDbEntity
  8
0
  6
Continuous
 62
     8
370
    25
100
AcDbLine
 10
139.0080482817
 20
153.0146005403
 30
0.0
 11
139.7746508654
 21
152.5720502887
 31
0.0
  0
LINE
  5
24C
330
1F
100
AcDbEntity
  8
0
  6
Continuous
 62
     8
370
    25
100
AcDbLine
 10
139.8919317582
 20
169.0392969111
 30
0.0
 11
139.0080482817
 21
169.5495519809
 31
0.0
  0
LINE
  5
24D
330
1F
100
AcDbEntity
  8
0
  6
Continuous
 62
     8
370
    25
100
AcDbLine
 10
131.406650384
 20
164.1408482401
 30
0.0
 11
130.5227669075
 21
164.65110331
 31
0.0
  0
LINE
  5
24E
330
1F
100
AcDbEntity
  8
0
  6
Continuous
 62
     8
370
    25
100
AcDbLine
 10
136.4447861999
 20
154.1886184762
 30
0.0
 11
136.886799772
 21
153.9334494725
 31
0.0
  0
LINE
  5
24F
330
1F
100
AcDbEntity
  8
0
  6
Continuous
 62
     8
370
    25
100
AcDbLine
 10
135.6492910711
 20
166.5900725756
 30
0.0
 11
134.7654075946
 21
167.1003276455
 31
0.0
  0
LINE
  5
250
330
1F
100
AcDbEntity
  8
0
  6
Continuous
 62
     8
370
    25
100
AcDbLine
 10
127.5175630875
 20
149.0350422703
 30
0.0
 11
127.9595766595
 21
148.7798732666
 31
0.0
  0
ENDSEC
  0
SECTION
  2
OBJECTS
  0
DICTIONARY
  5
C
330
0
100
AcDbDictionary
281
     1
  3
ACAD_GROUP
350
D
  3
ACAD_LAYOUT
350
1A
  3
ACAD_MLINESTYLE
350
17
  3
ACAD_PLOTSETTINGS
350
19
  3
ACAD_PLOTSTYLENAME
350
E
  3
ACAD_SCALELIST
350
47
  3
DWGPROPS
350
251
  0
DICTIONARY
  5
D
102
{ACAD_REACTORS
330
C
102
}
330
C
100
AcDbDictionary
281
     1
  0
DICTIONARY
  5
1A
102
{ACAD_REACTORS
330
C
102
}
330
C
100
AcDbDictionary
281
     1
  3
Layout1
350
1E
  3
Layout2
350
26
  3
Model
350
22
  0
DICTIONARY
  5
17
102
{ACAD_REACTORS
330
C
102
}
330
C
100
AcDbDictionary
281
     1
  3
Standard
350
18
  0
DICTIONARY
  5
19
102
{ACAD_REACTORS
330
C
102
}
330
C
100
AcDbDictionary
281
     1
  0
ACDBDICTIONARYWDFLT
  5
E
102
{ACAD_REACTORS
330
C
102
}
330
C
100
AcDbDictionary
281
     1
  3
Normal
350
F
100
AcDbDictionaryWithDefault
340
F
  0
DICTIONARY
  5
47
102
{ACAD_REACTORS
330
C
102
}
330
C
100
AcDbDictionary
281
     1
  3
A0
350
48
  3
A1
350
49
  3
A2
350
4A
  3
A3
350
4B
  3
A4
350
4C
  3
A5
350
4D
  3
A6
350
4E
  3
A7
350
4F
  3
A8
350
50
  3
A9
350
51
  3
B0
350
52
  3
B1
350
53
  3
B2
350
54
  3
B3
350
55
  3
B4
350
56
  3
B5
350
57
  3
B6
350
58
  3
B7
350
59
  3
B8
350
5A
  3
B9
350
5B
  3
C0
350
5C
  3
C1
350
5D
  3
C2
350
5E
  3
C3
350
5F
  3
C4
350
60
  3
C5
350
61
  3
C6
350
62
  3
C7
350
63
  3
C8
350
64
  3
C9
350
65
  3
D0
350
66
  3
D1
350
67
  3
D2
350
68
  0
XRECORD
  5
251
102
{ACAD_REACTORS
330
C
102
}
330
C
100
AcDbXrecord
280
     1
  1
DWGPROPS COOKIE
  2

  3

  4

  6

  7

  8
Office
  9

300
=
301
=
302
=
303
=
304
=
305
=
306
=
307
=
308
=
309
=
 40
0.0
 41
2459842.480066586
 42
2459842.480070521
  1

 90
        0
  0
LAYOUT
  5
1E
102
{ACAD_REACTORS
330
1A
102
}
330
1A
100
AcDbPlotSettings
  1

  2
none_device
  4

  6

 40
0.0
 41
0.0
 42
0.0
 43
0.0
 44
0.0
 45
0.0
 46
0.0
 47
0.0
 48
0.0
 49
0.0
140
0.0
141
0.0
142
1.0
143
1.0
 70
   688
 72
     1
 73
     0
 74
     5
  7

 75
    16
147
1.0
148
0.0
149
0.0
100
AcDbLayout
  1
Layout1
 70
     1
 71
     1
 10
0.0
 20
0.0
 11
420.0
 21
297.0
 12
0.0
 22
0.0
 32
0.0
 14
1.0000000000E+20
 24
1.0000000000E+20
 34
1.0000000000E+20
 15
-1.0000000000E+20
 25
-1.0000000000E+20
 35
-1.0000000000E+20
146
0.0
 13
0.0
 23
0.0
 33
0.0
 16
1.0
 26
0.0
 36
0.0
 17
0.0
 27
1.0
 37
0.0
 76
     0
330
1B
  0
LAYOUT
  5
26
102
{ACAD_REACTORS
330
1A
102
}
330
1A
100
AcDbPlotSettings
  1

  2
none_device
  4

  6

 40
0.0
 41
0.0
 42
0.0
 43
0.0
 44
0.0
 45
0.0
 46
0.0
 47
0.0
 48
0.0
 49
0.0
140
0.0
141
0.0
142
1.0
143
1.0
 70
   688
 72
     1
 73
     0
 74
     5
  7

 75
    16
147
1.0
148
0.0
149
0.0
100
AcDbLayout
  1
Layout2
 70
     1
 71
     2
 10
0.0
 20
0.0
 11
0.0
 21
0.0
 12
0.0
 22
0.0
 32
0.0
 14
0.0
 24
0.0
 34
0.0
 15
0.0
 25
0.0
 35
0.0
146
0.0
 13
0.0
 23
0.0
 33
0.0
 16
1.0
 26
0.0
 36
0.0
 17
0.0
 27
1.0
 37
0.0
 76
     0
330
23
  0
LAYOUT
  5
22
102
{ACAD_REACTORS
330
1A
102
}
330
1A
100
AcDbPlotSettings
  1

  2
none_device
  4
Letter_(8.50_x_11.00_Inches)
  6

 40
6.35
 41
6.35
 42
6.35000508
 43
6.35000508
 44
215.9
 45
279.4
 46
0.0
 47
0.0
 48
0.0
 49
0.0
140
0.0
141
0.0
142
1.0
143
1.0
 70
  1712
 72
     1
 73
     0
 74
     0
  7

 75
     0
147
1.0
148
0.0
149
0.0
100
AcDbLayout
  1
Model
 70
     1
 71
     0
 10
0.0
 20
0.0
 11
210.0
 21
297.0
 12
0.0
 22
0.0
 32
0.0
 14
0.0
 24
0.0
 34
0.0
 15
210.0
 25
297.0
 35
0.0
146
0.0
 13
0.0
 23
0.0
 33
0.0
 16
1.0
 26
0.0
 36
0.0
 17
0.0
 27
1.0
 37
0.0
 76
     0
330
1F
331
29
  0
MLINESTYLE
  5
18
102
{ACAD_REACTORS
330
17
102
}
330
17
100
AcDbMlineStyle
  2
Standard
 70
     0
  3

 62
   256
 51
90.0
 52
90.0
 71
     2
 49
0.5
 62
   256
  6
BYLAYER
 49
-0.5
 62
   256
  6
BYLAYER
  0
ACDBPLACEHOLDER
  5
F
102
{ACAD_REACTORS
330
E
102
}
330
E
  0
SCALE
  5
48
102
{ACAD_REACTORS
330
47
102
}
330
47
100
AcDbScale
 70
     0
300
1:1
140
1.0
141
1.0
290
     1
  0
SCALE
  5
49
102
{ACAD_REACTORS
330
47
102
}
330
47
100
AcDbScale
 70
     0
300
1:2
140
1.0
141
2.0
290
     0
  0
SCALE
  5
4A
102
{ACAD_REACTORS
330
47
102
}
330
47
100
AcDbScale
 70
     0
300
1:4
140
1.0
141
4.0
290
     0
  0
SCALE
  5
4B
102
{ACAD_REACTORS
330
47
102
}
330
47
100
AcDbScale
 70
     0
300
1:5
140
1.0
141
5.0
290
     0
  0
SCALE
  5
4C
102
{ACAD_REACTORS
330
47
102
}
330
47
100
AcDbScale
 70
     0
300
1:8
140
1.0
141
8.0
290
     0
  0
SCALE
  5
4D
102
{ACAD_REACTORS
330
47
102
}
330
47
100
AcDbScale
 70
     0
300
1:10
140
1.0
141
10.0
290
     0
  0
SCALE
  5
4E
102
{ACAD_REACTORS
330
47
102
}
330
47
100
AcDbScale
 70
     0
300
1:16
140
1.0
141
16.0
290
     0
  0
SCALE
  5
4F
102
{ACAD_REACTORS
330
47
102
}
330
47
100
AcDbScale
 70
     0
300
1:20
140
1.0
141
20.0
290
     0
  0
SCALE
  5
50
102
{ACAD_REACTORS
330
47
102
}
330
47
100
AcDbScale
 70
     0
300
1:30
140
1.0
141
30.0
290
     0
  0
SCALE
  5
51
102
{ACAD_REACTORS
330
47
102
}
330
47
100
AcDbScale
 70
     0
300
1:40
140
1.0
141
40.0
290
     0
  0
SCALE
  5
52
102
{ACAD_REACTORS
330
47
102
}
330
47
100
AcDbScale
 70
     0
300
1:50
140
1.0
141
50.0
290
     0
  0
SCALE
  5
53
102
{ACAD_REACTORS
330
47
102
}
330
47
100
AcDbScale
 70
     0
300
1:100
140
1.0
141
100.0
290
     0
  0
SCALE
  5
54
102
{ACAD_REACTORS
330
47
102
}
330
47
100
AcDbScale
 70
     0
300
2:1
140
2.0
141
1.0
290
     0
  0
SCALE
  5
55
102
{ACAD_REACTORS
330
47
102
}
330
47
100
AcDbScale
 70
     0
300
4:1
140
4.0
141
1.0
290
     0
  0
SCALE
  5
56
102
{ACAD_REACTORS
330
47
102
}
330
47
100
AcDbScale
 70
     0
300
8:1
140
8.0
141
1.0
290
     0
  0
SCALE
  5
57
102
{ACAD_REACTORS
330
47
102
}
330
47
100
AcDbScale
 70
     0
300
10:1
140
10.0
141
1.0
290
     0
  0
SCALE
  5
58
102
{ACAD_REACTORS
330
47
102
}
330
47
100
AcDbScale
 70
     0
300
100:1
140
100.0
141
1.0
290
     0
  0
SCALE
  5
59
102
{ACAD_REACTORS
330
47
102
}
330
47
100
AcDbScale
 70
     0
300
1/128" = 1'-0"
140
0.0078125
141
12.0
290
     0
  0
SCALE
  5
5A
102
{ACAD_REACTORS
330
47
102
}
330
47
100
AcDbScale
 70
     0
300
1/64" = 1'-0"
140
0.015625
141
12.0
290
     0
  0
SCALE
  5
5B
102
{ACAD_REACTORS
330
47
102
}
330
47
100
AcDbScale
 70
     0
300
1/32" = 1'-0"
140
0.03125
141
12.0
290
     0
  0
SCALE
  5
5C
102
{ACAD_REACTORS
330
47
102
}
330
47
100
AcDbScale
 70
     0
300
1/16" = 1'-0"
140
0.0625
141
12.0
290
     0
  0
SCALE
  5
5D
102
{ACAD_REACTORS
330
47
102
}
330
47
100
AcDbScale
 70
     0
300
3/32" = 1'-0"
140
0.09375
141
12.0
290
     0
  0
SCALE
  5
5E
102
{ACAD_REACTORS
330
47
102
}
330
47
100
AcDbScale
 70
     0
300
1/8" = 1'-0"
140
0.125
141
12.0
290
     0
  0
SCALE
  5
5F
102
{ACAD_REACTORS
330
47
102
}
330
47
100
AcDbScale
 70
     0
300
3/16" = 1'-0"
140
0.1875
141
12.0
290
     0
  0
SCALE
  5
60
102
{ACAD_REACTORS
330
47
102
}
330
47
100
AcDbScale
 70
     0
300
1/4" = 1'-0"
140
0.25
141
12.0
290
     0
  0
SCALE
  5
61
102
{ACAD_REACTORS
330
47
102
}
330
47
100
AcDbScale
 70
     0
300
3/8" = 1'-0"
140
0.375
141
12.0
290
     0
  0
SCALE
  5
62
102
{ACAD_REACTORS
330
47
102
}
330
47
100
AcDbScale
 70
     0
300
1/2" = 1'-0"
140
0.5
141
12.0
290
     0
  0
SCALE
  5
63
102
{ACAD_REACTORS
330
47
102
}
330
47
100
AcDbScale
 70
     0
300
3/4" = 1'-0"
140
0.75
141
12.0
290
     0
  0
SCALE
  5
64
102
{ACAD_REACTORS
330
47
102
}
330
47
100
AcDbScale
 70
     0
300
1" = 1'-0"
140
1.0
141
12.0
290
     0
  0
SCALE
  5
65
102
{ACAD_REACTORS
330
47
102
}
330
47
100
AcDbScale
 70
     0
300
1-1/2" = 1'-0"
140
1.5
141
12.0
290
     0
  0
SCALE
  5
66
102
{ACAD_REACTORS
330
47
102
}
330
47
100
AcDbScale
 70
     0
300
3" = 1'-0"
140
3.0
141
12.0
290
     0
  0
SCALE
  5
67
102
{ACAD_REACTORS
330
47
102
}
330
47
100
AcDbScale
 70
     0
300
6" = 1'-0"
140
6.0
141
12.0
290
     0
  0
SCALE
  5
68
102
{ACAD_REACTORS
330
47
102
}
330
47
100
AcDbScale
 70
     0
300
1'-0" = 1'-0"
140
12.0
141
12.0
290
     0
  0
ENDSEC
  0
EOF
