<?xml version="1.0" encoding="UTF-8" standalone="no"?>
<!-- Created with Inkscape (http://www.inkscape.org/) -->

<svg
   width="210mm"
   height="297mm"
   viewBox="0 0 210 297"
   version="1.1"
   id="svg5"
   inkscape:version="1.2.1 (9c6d41e410, 2022-07-14)"
   sodipodi:docname="рисунок.svg"
   xmlns:inkscape="http://www.inkscape.org/namespaces/inkscape"
   xmlns:sodipodi="http://sodipodi.sourceforge.net/DTD/sodipodi-0.dtd"
   xmlns="http://www.w3.org/2000/svg"
   xmlns:svg="http://www.w3.org/2000/svg">
  <sodipodi:namedview
     id="namedview7"
     pagecolor="#ffffff"
     bordercolor="#000000"
     borderopacity="0.25"
     inkscape:showpageshadow="2"
     inkscape:pageopacity="0.0"
     inkscape:pagecheckerboard="0"
     inkscape:deskcolor="#d1d1d1"
     inkscape:document-units="mm"
     showgrid="false"
     inkscape:zoom="2.1089995"
     inkscape:cx="427.69095"
     inkscape:cy="252.72647"
     inkscape:window-width="1920"
     inkscape:window-height="1017"
     inkscape:window-x="-8"
     inkscape:window-y="-8"
     inkscape:window-maximized="1"
     inkscape:current-layer="g277" />
  <defs
     id="defs2">
    <rect
       x="72.420625"
       y="181.05156"
       width="468.05182"
       height="34.86919"
       id="rect487" />
  </defs>
  <g
     inkscape:label="Слой 1"
     inkscape:groupmode="layer"
     id="layer1">
    <g
       id="g277"
       transform="matrix(1,0,-0.93603849,1,82.239522,-13.674533)">
      <rect
         style="fill:#800000;stroke:#ff0000;stroke-width:0.936101;stroke-dasharray:none"
         id="rect592"
         width="60.61108"
         height="27.631319"
         x="61.716919"
         y="58.763084"
         ry="0"
         transform="matrix(0.99998851,-0.00479313,-0.00615329,0.99998107,1.2357005e-7,8.7500005e-8)"
         inkscape:label="rect1636" />
      <rect
         style="fill:#808080;stroke:#000000;stroke-width:0.936101;stroke-dasharray:none"
         id="rect1636"
         width="60.61108"
         height="27.631319"
         x="57.550663"
         y="54.853954"
         ry="0"
         transform="matrix(0.99998851,-0.00479313,-0.00615329,0.99998107,1.2357005e-7,8.7500005e-8)"
         inkscape:label="rect1636" />
      <g
         id="path1701"
         transform="matrix(1,0,0.50045421,1,-42.780029,-4.641814)">
        <path
           style="color:#000000;fill:none;stroke:#000000;stroke-width:0.765;-inkscape-stroke:none"
           d="m 58.838127,98.35627 c 0.103929,-0.354838 0.575308,0.177422 0.752727,0 0.21323,-0.21323 0.320884,-0.511482 0.501816,-0.752726 0.141936,-0.189246 0.396026,-0.290232 0.50182,-0.501817 0.04901,-0.09802 0.191492,-0.884804 0.250907,-1.003636 0.07996,-0.159914 0.321085,-0.335984 0.376364,-0.501817 0.02646,-0.07935 -0.02646,-0.171566 0,-0.250909 0.0374,-0.11221 0.206981,-0.141089 0.25091,-0.25091 0.101788,-0.254471 0.07348,-0.530939 0.250907,-0.752726 0.775306,-0.969129 -0.02601,0.289912 0.752726,-0.878181 0.253402,-0.380104 0.465228,-0.909543 0.752726,-1.254543 0.09653,-0.115832 0.269748,-0.144294 0.376365,-0.25091 0.576501,-0.576501 1.000368,-1.375913 1.505453,-2.007272 0.330499,-0.413121 0.790321,-0.722567 1.12909,-1.129088 0.415693,-0.498833 0.848988,-0.998509 1.254544,-1.505453 0.263321,-0.329152 0.263892,-0.811858 0.501819,-1.129091 0.952738,-1.270317 1.523315,-2.84952 2.383634,-4.139996 0.139104,-0.208656 0.02178,-0.471734 0.125455,-0.627272 0.466751,-0.700127 0.04606,0.28424 0.501816,-0.627271 0.05914,-0.118279 0.04859,-0.268756 0.125455,-0.376365 0.137496,-0.192495 0.347866,-0.322209 0.501817,-0.501816 0.326668,-0.143944 0.20112,-0.533675 0.376364,-0.752727 0.09419,-0.117739 0.282173,-0.133172 0.376362,-0.250909 0.08261,-0.103262 0.06632,-0.258085 0.125455,-0.376365 0.179649,-0.359299 0.966245,-1.535856 1.254546,-1.881814 0.212658,-0.255194 0.866584,-0.980446 1.003633,-1.254546 0.0374,-0.07481 -0.0374,-0.176101 0,-0.25091 0.0529,-0.105791 0.198014,-0.145116 0.25091,-0.250907 0.0374,-0.07481 -0.03106,-0.173254 0,-0.250909 0.08994,-0.224854 0.315476,-0.383718 0.376364,-0.627272 0.02029,-0.08114 -0.03106,-0.173254 0,-0.25091 0.056,-0.139993 0.203229,-0.233322 0.250907,-0.376361 0.03967,-0.119018 0,-0.25091 0,-0.376365 0.04182,-0.167272 0.06142,-0.341728 0.125455,-0.501817 0.255053,-0.637635 -0.0013,0.632725 0.25091,-0.376364 0.196236,-0.78495 0.385312,-1.648804 0.752726,-2.383634 0.134853,-0.269706 0.3062,-0.617357 0.501817,-0.878181 0.07097,-0.09462 0.198014,-0.145116 0.250909,-0.25091 0.319231,-0.638458 -0.621892,0.245531 0.25091,-0.627271 0.106614,-0.106617 0.269748,-0.144293 0.376362,-0.25091 0.233534,-0.233532 0.457319,-0.594921 0.627271,-0.878178 0.107577,-0.179295 0.310245,-0.303459 0.376365,-0.50182 0.02646,-0.07934 -0.04639,-0.181319 0,-0.250909 0.05187,-0.0778 0.184787,-0.05933 0.250909,-0.125453 0.198361,-0.198363 0.428911,-0.554365 0.627272,-0.752726 0.189338,-0.189341 0.437933,-0.312478 0.627272,-0.501819 0.106616,-0.106617 0.144293,-0.269748 0.250909,-0.376362 0.64112,-0.64112 -0.174977,0.526026 0.501817,-0.376365 0.05611,-0.07481 0.05446,-0.190055 0.125455,-0.250909 0.343437,-0.294373 0.785653,-0.458351 1.129091,-0.752727 0.520615,-0.446241 1.49602,-1.735042 2.383633,-1.379998 0.537382,0.214953 0.812194,0.671875 1.254543,1.003636 2.236227,1.341734 -0.06803,-0.193487 0.752727,0.627272 0.259569,0.259569 -0.01016,-0.396658 0.250909,0.125455 0.197573,0.395142 -0.08003,1.392991 -0.125454,1.756362 -0.02593,0.207476 0.06612,0.428911 0,0.627272 -0.130149,0.390445 -0.498721,0.868891 -0.627272,1.254543 -0.02646,0.07935 0.02029,0.16977 0,0.250909 -0.115133,0.460539 -0.671068,0.965775 -0.878181,1.379998 -0.05914,0.118282 -0.05984,0.261549 -0.125455,0.376365 -0.494231,0.864907 -0.218826,0.166312 -0.752726,0.878181 -0.347578,0.463439 -0.752727,1.891019 -0.752727,2.509089 0,0.278688 -0.133373,0.987795 0,1.254543 0.179658,0.359314 0.882275,1.193863 1.254546,1.38 0.233632,0.116816 1.118497,0.0523 1.379998,0 0.945637,-0.189129 -0.0226,0.01693 0.501817,-0.376364 0.105793,-0.07934 0.27057,-0.04611 0.376364,-0.125455 0.07481,-0.05611 0.05933,-0.184788 0.125455,-0.250907 0.193119,-0.193122 0.559604,-0.308698 0.752726,-0.50182 0.02957,-0.02957 -0.02151,-0.0896 0,-0.125454 0.107575,-0.179293 0.260379,-0.327843 0.376362,-0.501817 0.477179,-0.715769 0.687486,-1.647627 1.129091,-2.383634 0.06085,-0.101425 0.185298,-0.152495 0.25091,-0.25091 0.03654,-0.05481 0.752358,-1.337691 0.878181,-1.505452 0.141933,-0.189249 0.427011,-0.277397 0.501816,-0.501817 0.02646,-0.07935 -0.02646,-0.171566 0,-0.25091 0.04713,-0.141382 0.784964,-1.114718 0.878182,-1.254545 0.511614,-0.767422 1.218414,-1.433195 1.630907,-2.258179 0.133554,-0.26711 0.242808,-0.234707 0.376362,-0.501817 0.0374,-0.07481 -0.0374,-0.176104 0,-0.25091 0.01871,-0.0374 0.106754,0.0374 0.125455,0 0.0374,-0.07481 -0.02646,-0.171563 0,-0.250909 0.119697,-0.359093 0.519634,-0.692844 0.752726,-1.003634 0.06532,-0.0871 0.191011,-0.44192 0.25091,-0.501819 0.0177,-0.0177 0.350628,-0.01286 0.376364,0 0.317376,0.158689 0.501817,0.501819 0.752727,0.752726 0.832339,0.832342 1.254543,1.328045 1.254543,2.509089 0,0.167272 0.0748,0.352205 0,0.501819 -0.06743,0.134858 -0.183478,0.241504 -0.25091,0.376362 -0.129281,0.258564 -0.132728,0.708184 -0.250907,1.003636 -0.124145,0.310364 -0.723577,0.88704 -0.752726,1.003636 -0.03043,0.121709 0.02461,0.253344 0,0.376362 -0.03668,0.183385 -0.205552,0.320387 -0.25091,0.501819 -0.02029,0.08114 0.0374,0.176102 0,0.250907 -0.0529,0.105794 -0.198011,0.145116 -0.25091,0.25091 -0.0374,0.07481 0.02029,0.16977 0,0.25091 0.07562,0.227065 -0.203229,0.233323 -0.250907,0.376362 -0.122835,0.368503 -0.03299,1.010126 -0.125454,1.38 -0.05033,0.201306 -0.443297,1.792571 -0.376365,1.881815 0.106452,0.141935 0.265531,0.237823 0.376365,0.376364 0.195704,0.244631 0.348474,0.566862 0.627271,0.752726 0.06318,0.276397 0.258083,0.06632 0.376362,0.125455 0.44704,0.22352 0.942517,0.689462 1.505455,0.501817 0.403823,-0.134607 0.554974,-0.396409 0.878181,-0.627272 0.490294,-0.35021 1.073497,-0.697134 1.505457,-1.12909 0.34698,-0.346983 0.70387,-1.055812 1.00363,-1.505453 0.0925,-0.138806 0.3382,-0.349173 0.37636,-0.501817 0.0304,-0.121708 -0.0345,-0.255735 0,-0.376364 0.0514,-0.179822 0.19177,-0.324398 0.25091,-0.501817 0.10066,-0.301958 0.17223,-0.68889 0.25091,-1.003636 0.0623,-0.249293 0.28112,-0.389165 0.37636,-0.627271 0.17995,-0.449864 0.28501,-0.946367 0.50182,-1.380001 0.20206,-0.404103 0.6138,-0.963205 0.75273,-1.379998 0.0397,-0.119015 -0.0561,-0.264152 0,-0.376362 0.19093,-0.381862 0.39412,-0.823767 0.50182,-1.254545 0.0203,-0.08114 -0.0265,-0.171564 0,-0.25091 0.0561,-0.168315 0.26991,-0.234426 0.37636,-0.376362 1.04841,-1.397878 0.6914,-1.22388 2.25818,-2.007272 0.0529,-0.02646 0.0836,-0.08364 0.12545,-0.125452 0.12546,-0.08364 0.23637,-0.194913 0.37637,-0.25091 0.5489,-0.219562 1.73232,0.101418 2.13272,0.501817 0.41608,0.416081 -0.11828,-0.05914 0.25091,0.125455 0.27739,0.138694 0.0389,0.07786 0.12546,0.250909 0.0793,0.15869 0.28508,0.224227 0.37636,0.376362 0.15576,0.259609 0.31477,0.973982 0.50182,1.254546 0.0232,0.0348 0.0959,-0.02957 0.12545,0 0.0472,0.04721 0,1.3935 0,1.630908 0,0.217344 0.11246,0.904168 0,1.129088 -0.30794,0.615886 -0.60191,1.316588 -0.87818,2.007272 -0.25852,0.169743 -0.058,0.424981 -0.12545,0.627271 -0.0861,0.258268 -0.30246,0.582549 -0.37637,0.878181 -0.0203,0.08114 0.0265,0.171564 0,0.25091 -0.0382,0.114554 -0.22192,0.260429 -0.25091,0.376362 -0.0304,0.121708 0.0466,0.259882 0,0.376364 -0.0439,0.109821 -0.19005,0.149485 -0.25091,0.25091 -0.17804,0.296746 -0.0168,0.410059 -0.12545,0.627272 -0.0674,0.134858 -0.18348,0.241503 -0.25091,0.376361 -0.18179,0.363578 -0.1919,0.885616 -0.37636,1.254546 -0.0674,0.134858 -0.20323,0.233323 -0.25091,0.376362 -0.0661,0.198361 0.0661,0.428913 0,0.627274 -0.0778,0.233254 -0.26108,0.522163 -0.37636,0.752726 -0.0771,0.154218 -0.0483,0.347599 -0.12546,0.501817 -0.40827,0.816552 -1.05401,1.514335 -1.38,2.383634 -0.38847,1.035918 -0.86218,2.090052 -1.25454,3.13636 -0.0547,0.145815 -0.14981,0.709687 -0.25091,0.878181 -0.0609,0.101426 -0.19801,0.145116 -0.25091,0.25091 -0.0954,0.19072 -0.0463,0.429292 -0.12545,0.627272 -0.26209,0.655214 -0.74644,1.238813 -1.00364,1.881817 -0.0311,0.07766 0,0.167272 0,0.250909 -0.0418,0.125453 -0.0763,0.25358 -0.12545,0.376362 -0.16925,0.423117 -0.51756,0.815676 -0.62728,1.254546 -0.0894,0.357762 -0.11597,0.76926 -0.25091,1.129088 -0.1536,0.409623 -0.61452,0.714497 -0.75272,1.129091 -0.0397,0.119018 0.0246,0.253344 0,0.376362 -0.0512,0.25586 -0.24407,0.783148 -0.37636,1.003636 -0.23117,0.385286 -0.67405,0.720815 -0.87818,1.129091 -0.16132,0.322635 -0.26505,0.562483 -0.50182,0.878181 -0.21595,0.287925 -0.489776,0.534432 -0.627275,0.878181 -0.05301,0.132532 -0.07244,0.494736 -0.125455,0.627272 -0.135125,0.337817 -0.388331,0.537723 -0.501816,0.878181 -0.08761,0.262832 -0.08117,0.526407 -0.25091,0.752726 -0.07097,0.09462 -0.198011,0.145116 -0.25091,0.25091 -0.0374,0.0748 0.02029,0.16977 0,0.250907 -0.07867,0.314671 -0.699481,1.060534 -0.752726,1.38 -0.0275,0.164997 0.0275,0.33682 0,0.501814 -0.07573,0.45436 -0.107511,0.0896 -0.250907,0.37637 -0.0374,0.0748 0.0374,0.1761 0,0.2509 -0.113173,0.22635 -0.242454,0.35945 -0.376364,0.62728 -0.101037,0.20207 -0.144167,0.539238 -0.25091,0.752718 -0.350795,0.7016 -1.086985,1.21227 -1.505453,1.88182 -0.246398,0.39424 -0.536789,1.1785 -0.627271,1.63091 -0.02461,0.12302 0.03967,0.25734 0,0.37636 -0.04768,0.14304 -0.194911,0.23637 -0.25091,0.37636 -0.117896,0.29475 -0.06867,0.69991 -0.250907,1.00364 -0.17549,0.29248 -0.471472,0.56658 -0.627274,0.87818 -0.0374,0.0748 0.05914,0.19177 0,0.25091 -0.02957,0.0296 -0.08364,0 -0.125452,0"
           id="path1712" />
      </g>
      <rect
         style="fill:#800000;stroke:#ff0000;stroke-width:0.936101;stroke-dasharray:none;fill-opacity:0.40000001;stroke-opacity:0.40000001"
         id="rect599"
         width="60.61108"
         height="27.631319"
         x="52.115307"
         y="51.189655"
         ry="0"
         transform="matrix(0.99998851,-0.00479313,-0.00615329,0.99998107,0,0)"
         inkscape:label="rect1636" />
    </g>
    <rect
       style="fill:none;stroke:#000000;stroke-width:0.895322"
       id="rect279"
       width="27.850883"
       height="30.243671"
       x="169.67772"
       y="111.52354"
       transform="matrix(1,0,-0.68337303,0.73006938,0,0)" />
    <path
       style="fill:none;stroke:#000000;stroke-width:0.765"
       d="m 91.507189,88.069009 c -0.333234,0.287417 -0.503638,0.589439 -0.822011,0.878181 -0.143799,0.130442 -0.330414,0.246692 -0.477742,0.376364 -0.386662,0.340331 -3.423637,3.573291 -3.640335,3.889087 -0.06222,0.09072 -0.04192,0.159216 -0.109411,0.25091 -0.251898,0.342185 -2.127198,2.348833 -2.466034,2.634543 -0.990075,0.834779 -2.525992,2.238756 -3.186663,3.13636 -0.249575,0.339061 -0.209876,0.481322 -0.328212,0.752727 -0.01631,0.0374 -0.119357,0.09589 -0.117434,0.125459 0.0053,0.0836 0.245603,-0.0836 0.2509,0 0.0074,0.11587 -0.269288,0.38715 0.266958,0.25091 0.521762,-0.13256 1.453135,-0.730413 1.943087,-1.003641 1.657615,-0.924401 3.487818,-1.773568 5.084525,-2.885453 1.462359,-1.018323 2.147062,-2.07981 3.312124,-3.13636 0.613287,-0.55616 1.290939,-1.092187 1.902952,-1.630908 0.365066,-0.321318 0.582879,-0.680291 0.939442,-1.003636 0.195328,-0.255254 0.58719,-0.406447 0.83806,-0.627271 0.365066,-0.321318 0.582879,-0.680292 0.939442,-1.003636 0.06689,-0.352912 0.512295,-0.318432 0.72063,-0.501817 0.186335,-0.164026 0.283387,-0.337793 0.469722,-0.501819 0.221165,-0.19472 0.968774,-0.574874 1.206391,-0.752727 0.238578,-0.178601 0.489373,-0.484139 0.83806,-0.627271 0.113023,-0.04639 0.224743,-0.04639 0.25091,0 0.05129,0.09094 -0.484763,1.73224 -0.624334,2.007272 -0.0863,0.169971 -0.400711,0.562115 -0.57913,0.752726 -0.354514,0.378738 -0.847857,1.030317 -1.291732,1.379998 -0.142432,0.11221 -0.329972,0.149484 -0.485771,0.25091 -0.174142,0.113395 -0.307875,0.258082 -0.477739,0.376362 -0.508546,0.354126 -1.06886,0.630999 -1.566722,1.003636 -0.328058,0.245565 -0.607127,0.525936 -0.955481,0.752726 -0.155837,0.101425 -0.339044,0.141089 -0.485771,0.25091 -0.363126,0.27179 -0.548008,0.585454 -0.822011,0.878181 -0.75264,0.804069 -1.595571,1.62565 -1.980263,2.383634 -0.16241,0.320029 -0.200096,0.794557 -0.429603,1.129091 -0.05565,0.08114 -0.202237,0.176101 -0.234859,0.250907 -0.104429,0.239498 -5.66e-4,0.394787 -0.08533,0.627271 -0.122492,0.33596 -0.447789,0.844793 -0.429603,1.129091 0.01382,0.216074 3.301941,-2.091026 3.854054,-2.509089 0.357603,-0.292727 0.715287,-0.585454 1.072921,-0.878181 0.201031,-0.125455 0.41616,-0.236368 0.603199,-0.376362 0.103793,-0.07766 0.145561,-0.168113 0.234861,-0.250909 0.411758,-0.38167 0.906524,-0.745903 1.307782,-1.129091 0.43524,-0.415624 0.746575,-0.838079 1.174301,-1.254543 0.90151,-0.877859 1.919888,-1.765107 2.842394,-2.634544 0.625326,-0.58932 1.291446,-0.960109 1.910986,-1.505453 0.50838,-0.447508 0.88468,-0.548081 1.44126,-1.003636 0.16307,-0.133506 0.75841,-0.878181 1.07292,-0.878181 0.0418,0 -0.10537,0.0896 -0.11743,0.125455 -0.0603,0.179295 -0.003,0.311973 -0.0934,0.501817 -0.66314,1.397561 -0.53982,0.779095 -1.4945,2.132727 -0.15479,0.219429 -0.18636,0.408797 -0.33624,0.627271 -0.21923,0.319574 -1.47991,1.65604 -1.87888,2.007272 -0.492503,0.433533 -1.094635,0.98066 -1.668101,1.379998 -0.579389,0.403466 0.17598,-0.343212 -0.72063,0.501817 -0.220107,0.207478 -0.359696,0.421026 -0.587152,0.627274 -0.0646,0.05833 -0.174836,0.06808 -0.242878,0.125452 -0.44656,0.376544 -2.449281,2.3084 -2.591485,2.634544 -0.07135,0.163615 -0.248594,0.893921 -0.186722,1.003636 0.0316,0.05609 0.380901,0.07083 0.384391,0.125454 0.0019,0.02957 -0.119348,0.09588 -0.117431,0.125455 0.0057,0.08871 0.25091,0 0.37636,0 0.65358,0 0.692067,-0.280252 1.700201,-0.878181 0.239298,-0.141936 0.494226,-0.225264 0.728651,-0.376364 2.29306,-1.478037 4.262286,-3.047738 6.352186,-4.641813 0.22961,-0.17511 0.49542,-0.324398 0.72063,-0.50182 0.9818,-0.773453 1.58865,-1.82132 2.46603,-2.634541 0.36797,-0.341079 0.82071,-0.678254 1.19036,-1.003636 0.13975,-0.123018 0.21254,-0.253346 0.35229,-0.376364 0.44916,-0.395348 2.42488,-2.040152 2.65568,-1.630908 0.0293,0.05187 -0.0884,0.173107 -0.10941,0.25091 -0.0469,0.173974 -0.10282,0.353968 -0.0934,0.501817 0.004,0.06612 0.12924,0.05934 0.13348,0.125455 0.015,0.23432 -0.96699,1.648433 -1.25162,2.007272 -0.25121,0.316666 -0.70662,0.687284 -0.93944,1.003636 -0.43136,0.586065 -1.51022,1.907995 -2.22314,2.509088 -0.35214,0.296929 -0.8377,0.824648 -1.0649,1.003634 -0.36622,0.288472 -0.73171,0.568756 -1.07292,0.878181 -0.61813,0.560586 -1.07144,1.338236 -1.76145,1.881817 -0.83829,0.660395 -1.57347,1.326661 -2.3807,2.007272 -0.14002,0.118073 -0.21226,0.258286 -0.35229,0.376362 -0.10762,0.09072 -0.258603,0.158674 -0.360323,0.250914 -0.638523,0.57906 -1.168947,1.25096 -1.894931,1.75636 -0.335382,0.23355 -1.170687,1.38228 -1.409159,1.50545 -0.05731,0.0296 -0.06819,-0.0296 -0.12545,0 -0.171727,0.0887 -0.201189,0.25735 -0.352287,0.37636 -0.164939,0.12995 -0.424478,0.25191 -0.603207,0.37637 -0.164932,0.11488 -0.509754,0.562 -0.587149,0.62727 -0.06803,0.0574 -0.166956,0.0726 -0.242876,0.12545 -0.324688,0.2261 -1.595038,1.70403 -1.878891,2.00728"
       id="path346" />
    <ellipse
       style="fill:none;stroke:#000000;stroke-width:0.895322"
       id="path400"
       cx="129.09322"
       cy="114.35889"
       rx="6.711812"
       ry="8.8497105"
       transform="matrix(1,0,-0.68337303,0.73006938,0,0)" />
    <ellipse
       style="fill:none;stroke:#000000;stroke-width:0.895322"
       id="path402"
       cx="124.82777"
       cy="114.78848"
       rx="1.5681803"
       ry="2.2339077"
       transform="matrix(1,0,-0.68337303,0.73006938,0,0)" />
    <ellipse
       style="fill:none;stroke:#000000;stroke-width:0.895322"
       id="path402-7"
       cx="127.39958"
       cy="119.42815"
       rx="1.5681803"
       ry="2.2339077"
       transform="matrix(1,0,-0.68337303,0.73006938,0,0)" />
    <ellipse
       style="fill:none;stroke:#000000;stroke-width:0.895322"
       id="path402-4"
       cx="131.41412"
       cy="118.74078"
       rx="1.5681803"
       ry="2.2339077"
       transform="matrix(1,0,-0.68337303,0.73006938,0,0)" />
    <ellipse
       style="fill:none;stroke:#000000;stroke-width:0.895322"
       id="path402-5"
       cx="132.91957"
       cy="113.41378"
       rx="1.5681803"
       ry="2.2339077"
       transform="matrix(1,0,-0.68337303,0.73006938,0,0)" />
    <ellipse
       style="fill:none;stroke:#000000;stroke-width:0.895322"
       id="path402-79"
       cx="127.02322"
       cy="109.46147"
       rx="1.5681803"
       ry="2.2339077"
       transform="matrix(1,0,-0.68337303,0.73006938,0,0)" />
    <ellipse
       style="fill:none;stroke:#000000;stroke-width:0.895322"
       id="path402-70"
       cx="130.66139"
       cy="109.28963"
       rx="1.5681803"
       ry="2.2339077"
       transform="matrix(1,0,-0.68337303,0.73006938,0,0)" />
    <path
       style="fill:none;stroke:#000000;stroke-width:0.765"
       d="m 42.630265,84.932649 c -0.210834,-0.278302 0.658933,-0.476242 0.838059,-0.627272 0.310227,-0.261567 1.348324,-1.53883 1.526592,-1.630907 0.05725,-0.02957 0.06821,0.02957 0.125455,0 0.074,-0.03822 2.491075,-2.661296 2.818324,-3.010906 0.619898,-0.662257 1.625058,-1.569011 1.870859,-2.132727 0.10296,-0.236124 0.668597,-0.623646 0.822012,-0.878181 0.263034,-0.436422 0.631099,-0.871921 0.797938,-1.254543 0.07945,-0.182208 -0.260068,-0.143224 -0.266957,-0.25091 -0.0038,-0.05914 0.238644,-0.19177 0.23486,-0.250909 -3.2e-4,-0.005 -0.625172,-0.125455 -0.76075,-0.125455"
       id="path478" />
  </g>
</svg>
